<svg width="358" height="172" viewBox="0 0 358 172" fill="none" xmlns="http://www.w3.org/2000/svg">
<path d="M81.8177 149.568C82.7009 142.466 87.1023 135.469 93.8753 133.158C91.2042 140.468 91.2048 148.487 93.8769 155.796C94.9177 158.611 96.3684 161.634 95.3894 164.471C94.7803 166.237 93.2902 167.588 91.6246 168.432C89.9589 169.277 88.1103 169.679 86.2848 170.074L85.9255 170.371C83.0277 163.827 80.9345 156.67 81.8177 149.568Z" fill="#F0F0F0"/>
<path d="M93.9425 133.292C89.9982 137.711 87.5467 143.261 86.9362 149.153C86.7822 150.42 86.8288 151.702 87.0742 152.954C87.3527 154.165 87.9505 155.28 88.8055 156.182C89.5858 157.04 90.4833 157.826 91.0416 158.858C91.3196 159.391 91.4818 159.976 91.5177 160.576C91.5536 161.175 91.4623 161.776 91.2498 162.338C90.7569 163.752 89.7853 164.904 88.7961 165.998C87.6977 167.213 86.5375 168.457 86.0706 170.067C86.0141 170.262 85.7146 170.163 85.7711 169.968C86.5834 167.167 89.303 165.575 90.6 163.052C91.2052 161.874 91.4592 160.508 90.8918 159.265C90.3957 158.178 89.4709 157.366 88.6733 156.505C87.8263 155.637 87.2048 154.574 86.8629 153.411C86.5546 152.176 86.4586 150.897 86.5793 149.63C86.8053 146.773 87.4792 143.969 88.5762 141.321C89.8115 138.292 91.5558 135.496 93.7338 133.055C93.8686 132.904 94.0765 133.142 93.9425 133.292Z" fill="white"/>
<path d="M87.0211 147.245C86.0465 147.008 85.1876 146.433 84.5981 145.621C84.0085 144.81 83.7265 143.815 83.8025 142.815C83.8186 142.613 84.1337 142.629 84.1176 142.831C84.0451 143.762 84.3079 144.689 84.8584 145.443C85.409 146.198 86.2111 146.73 87.12 146.945C87.3175 146.992 87.2174 147.291 87.0211 147.245Z" fill="white"/>
<path d="M88.3526 155.799C90.1129 154.748 91.4125 153.072 91.992 151.106C92.0493 150.911 92.3487 151.01 92.2915 151.205C91.6846 153.25 90.3287 154.991 88.4945 156.081C88.3196 156.185 88.1786 155.903 88.3526 155.799Z" fill="white"/>
<path d="M90.1042 138.59C90.4622 138.761 90.8569 138.839 91.2528 138.819C91.6487 138.799 92.0334 138.681 92.3724 138.475C92.5459 138.369 92.6866 138.652 92.5142 138.757C92.1387 138.982 91.7136 139.112 91.2763 139.135C90.8389 139.159 90.4025 139.074 90.0053 138.89C89.9664 138.876 89.9344 138.847 89.9157 138.81C89.8971 138.773 89.8932 138.73 89.905 138.691C89.9183 138.651 89.9466 138.618 89.9839 138.6C90.0212 138.581 90.0644 138.577 90.1042 138.59Z" fill="white"/>
<path d="M114.52 145.843C114.414 145.912 114.308 145.981 114.201 146.053C112.775 146.991 111.427 148.043 110.171 149.199C110.072 149.287 109.974 149.378 109.878 149.468C106.882 152.286 104.434 155.636 102.661 159.347C101.957 160.825 101.366 162.354 100.893 163.921C100.241 166.085 99.7061 168.483 98.415 170.254C98.2824 170.44 98.1383 170.618 97.9837 170.786H86.3159C86.2893 170.773 86.2627 170.762 86.2361 170.749L85.7702 170.77C85.7889 170.688 85.8101 170.602 85.8288 170.52C85.8395 170.472 85.8527 170.424 85.8634 170.376C85.8713 170.344 85.8794 170.312 85.8847 170.283C85.8873 170.272 85.89 170.262 85.8926 170.254C85.898 170.224 85.906 170.198 85.9114 170.171C86.0285 169.695 86.1491 169.218 86.2734 168.742C86.2734 168.739 86.2734 168.739 86.276 168.736C87.1878 165.096 88.5282 161.577 90.2691 158.253C90.3223 158.155 90.3755 158.053 90.4341 157.955C91.2403 156.483 92.1653 155.08 93.2001 153.76C93.769 153.038 94.374 152.346 95.0129 151.686C96.667 149.983 98.5786 148.551 100.678 147.442C104.863 145.233 109.707 144.386 114.18 145.736C114.294 145.771 114.406 145.805 114.52 145.843Z" fill="#F0F0F0"/>
<path d="M114.494 145.99C108.684 147.144 103.385 150.1 99.3504 154.437C98.4652 155.355 97.7303 156.407 97.1727 157.554C96.6656 158.689 96.4717 159.939 96.6112 161.174C96.718 162.328 96.961 163.497 96.7854 164.657C96.6867 165.25 96.4639 165.815 96.1315 166.315C95.7991 166.815 95.3647 167.24 94.8568 167.561C93.612 168.393 92.1424 168.728 90.6939 169.006C89.0856 169.314 87.4102 169.609 86.0679 170.614C85.9053 170.735 85.7259 170.476 85.8883 170.354C88.2237 168.607 91.3532 168.973 93.908 167.74C95.1001 167.164 96.1259 166.225 96.4212 164.891C96.6794 163.725 96.4299 162.52 96.3116 161.352C96.1579 160.149 96.3011 158.927 96.7287 157.792C97.2261 156.62 97.9193 155.541 98.7786 154.602C100.679 152.457 102.906 150.624 105.376 149.17C108.186 147.495 111.262 146.313 114.47 145.676C114.669 145.636 114.692 145.951 114.494 145.99Z" fill="white"/>
<path d="M100.567 152.964C99.9316 152.188 99.5923 151.211 99.6101 150.209C99.6278 149.206 100.001 148.242 100.664 147.489C100.799 147.337 101.041 147.539 100.906 147.691C100.288 148.391 99.94 149.289 99.9253 150.223C99.9107 151.157 100.23 152.065 100.827 152.784C100.956 152.94 100.696 153.119 100.567 152.964Z" fill="white"/>
<path d="M96.4799 160.596C98.5183 160.816 100.565 160.261 102.212 159.039C102.375 158.918 102.554 159.178 102.391 159.299C100.675 160.566 98.5443 161.14 96.4236 160.906C96.2215 160.884 96.2789 160.573 96.4799 160.596Z" fill="white"/>
<path d="M108.239 147.91C108.423 148.261 108.691 148.562 109.019 148.784C109.347 149.006 109.725 149.144 110.12 149.184C110.322 149.203 110.264 149.514 110.063 149.494C109.628 149.448 109.21 149.296 108.847 149.051C108.484 148.806 108.186 148.476 107.98 148.09C107.958 148.055 107.949 148.013 107.957 147.972C107.964 147.931 107.987 147.895 108.02 147.87C108.054 147.846 108.097 147.837 108.138 147.845C108.179 147.852 108.215 147.876 108.239 147.91Z" fill="white"/>
<path d="M291.821 152.079C291.057 145.939 287.252 139.89 281.397 137.892C283.706 144.211 283.705 151.144 281.395 157.463C280.495 159.897 279.241 162.51 280.088 164.963C280.614 166.489 281.902 167.657 283.342 168.387C284.782 169.117 286.381 169.465 287.959 169.806L288.269 170.063C290.775 164.406 292.584 158.219 291.821 152.079Z" fill="#F0F0F0"/>
<path d="M281.339 138.009C284.748 141.829 286.868 146.627 287.396 151.721C287.529 152.816 287.488 153.924 287.276 155.006C287.036 156.054 286.519 157.017 285.78 157.798C285.105 158.539 284.329 159.219 283.846 160.111C283.606 160.571 283.466 161.077 283.435 161.596C283.404 162.114 283.483 162.633 283.666 163.119C284.093 164.341 284.932 165.338 285.788 166.283C286.737 167.333 287.74 168.409 288.144 169.801C288.193 169.97 288.452 169.884 288.403 169.716C287.701 167.294 285.349 165.918 284.228 163.736C283.705 162.719 283.485 161.537 283.976 160.462C284.405 159.523 285.204 158.821 285.894 158.076C286.626 157.326 287.163 156.408 287.459 155.402C287.725 154.334 287.808 153.229 287.704 152.133C287.509 149.663 286.926 147.239 285.978 144.95C284.91 142.331 283.402 139.914 281.519 137.804C281.402 137.674 281.223 137.879 281.339 138.009Z" fill="white"/>
<path d="M287.322 150.07C288.165 149.866 288.907 149.368 289.417 148.667C289.927 147.965 290.17 147.106 290.105 146.241C290.091 146.066 289.818 146.08 289.832 146.255C289.895 147.06 289.668 147.86 289.192 148.513C288.716 149.165 288.022 149.626 287.237 149.811C287.066 149.852 287.152 150.111 287.322 150.07Z" fill="white"/>
<path d="M286.171 157.467C284.649 156.558 283.526 155.109 283.025 153.409C282.975 153.241 282.716 153.326 282.766 153.495C283.29 155.263 284.463 156.768 286.048 157.71C286.2 157.8 286.321 157.556 286.171 157.467Z" fill="white"/>
<path d="M284.657 142.59C284.347 142.737 284.006 142.805 283.664 142.787C283.322 142.77 282.989 142.668 282.696 142.49C282.546 142.398 282.424 142.643 282.573 142.734C282.898 142.928 283.265 143.041 283.644 143.061C284.022 143.081 284.399 143.008 284.742 142.848C284.776 142.836 284.804 142.812 284.82 142.78C284.836 142.748 284.839 142.711 284.829 142.676C284.818 142.642 284.793 142.614 284.761 142.597C284.729 142.581 284.691 142.578 284.657 142.59Z" fill="white"/>
<path d="M263.549 148.859C263.641 148.919 263.733 148.979 263.825 149.041C265.058 149.852 266.223 150.761 267.309 151.761C267.394 151.837 267.479 151.915 267.562 151.993C270.153 154.43 272.268 157.325 273.801 160.534C274.41 161.811 274.921 163.133 275.329 164.488C275.893 166.359 276.356 168.432 277.472 169.963C277.587 170.124 277.711 170.277 277.845 170.423H287.932C287.955 170.411 287.978 170.402 288.001 170.391L288.404 170.409C288.387 170.338 288.369 170.264 288.353 170.193C288.344 170.151 288.332 170.11 288.323 170.068C288.316 170.041 288.309 170.013 288.305 169.988C288.302 169.979 288.3 169.97 288.298 169.963C288.293 169.937 288.286 169.914 288.282 169.891C288.18 169.479 288.076 169.067 287.969 168.655C287.969 168.653 287.969 168.653 287.966 168.651C287.178 165.504 286.019 162.462 284.514 159.588C284.468 159.503 284.422 159.415 284.372 159.33C283.675 158.058 282.875 156.845 281.98 155.703C281.489 155.08 280.965 154.481 280.413 153.91C278.983 152.438 277.331 151.201 275.516 150.242C271.898 148.332 267.71 147.6 263.843 148.767C263.744 148.797 263.648 148.827 263.549 148.859Z" fill="#F0F0F0"/>
<path d="M263.571 148.987C268.594 149.985 273.175 152.54 276.663 156.289C277.429 157.083 278.064 157.992 278.546 158.984C278.984 159.965 279.152 161.046 279.031 162.114C278.939 163.112 278.729 164.122 278.881 165.125C278.966 165.637 279.159 166.125 279.446 166.558C279.734 166.991 280.109 167.358 280.548 167.635C281.624 168.354 282.895 168.644 284.147 168.884C285.537 169.151 286.986 169.406 288.146 170.274C288.287 170.379 288.442 170.155 288.301 170.05C286.283 168.539 283.577 168.856 281.368 167.789C280.338 167.292 279.451 166.48 279.196 165.327C278.972 164.319 279.188 163.277 279.29 162.267C279.423 161.227 279.299 160.171 278.93 159.189C278.5 158.176 277.901 157.244 277.158 156.432C275.514 154.577 273.59 152.993 271.454 151.736C269.025 150.288 266.366 149.266 263.592 148.715C263.421 148.681 263.401 148.953 263.571 148.987Z" fill="white"/>
<path d="M275.611 155.015C276.161 154.345 276.454 153.5 276.439 152.633C276.423 151.766 276.1 150.933 275.527 150.282C275.411 150.151 275.202 150.326 275.318 150.457C275.853 151.062 276.154 151.839 276.166 152.646C276.179 153.453 275.903 154.238 275.387 154.86C275.275 154.995 275.5 155.15 275.611 155.015Z" fill="white"/>
<path d="M279.145 161.614C277.383 161.805 275.613 161.324 274.19 160.268C274.049 160.164 273.894 160.388 274.034 160.492C275.518 161.588 277.36 162.085 279.194 161.882C279.368 161.863 279.319 161.595 279.145 161.614Z" fill="white"/>
<path d="M268.979 150.646C268.82 150.95 268.589 151.209 268.305 151.402C268.021 151.594 267.694 151.713 267.353 151.747C267.178 151.764 267.228 152.032 267.402 152.015C267.778 151.975 268.139 151.844 268.453 151.632C268.767 151.421 269.025 151.135 269.203 150.801C269.222 150.771 269.23 150.735 269.223 150.7C269.217 150.664 269.197 150.633 269.168 150.612C269.139 150.591 269.102 150.583 269.066 150.59C269.031 150.596 268.999 150.616 268.979 150.646Z" fill="white"/>
<path d="M312.875 12.4039H75.4895C75.3982 12.4039 75.3105 12.3676 75.2459 12.303C75.1813 12.2384 75.145 12.1507 75.145 12.0593C75.145 11.968 75.1813 11.8803 75.2459 11.8157C75.3105 11.7511 75.3982 11.7148 75.4895 11.7148H312.875C312.966 11.7148 313.054 11.7511 313.119 11.8157C313.183 11.8803 313.22 11.968 313.22 12.0593C313.22 12.1507 313.183 12.2384 313.119 12.303C313.054 12.3676 312.966 12.4039 312.875 12.4039Z" fill="#CACACA"/>
<path d="M83.2443 7.57979C85.3374 7.57979 87.0342 5.883 87.0342 3.7899C87.0342 1.69679 85.3374 0 83.2443 0C81.1512 0 79.4544 1.69679 79.4544 3.7899C79.4544 5.883 81.1512 7.57979 83.2443 7.57979Z" fill="#3F3D56"/>
<path d="M96.3366 7.57979C98.4297 7.57979 100.127 5.883 100.127 3.7899C100.127 1.69679 98.4297 0 96.3366 0C94.2435 0 92.5467 1.69679 92.5467 3.7899C92.5467 5.883 94.2435 7.57979 96.3366 7.57979Z" fill="#3F3D56"/>
<path d="M109.429 7.57979C111.522 7.57979 113.219 5.883 113.219 3.7899C113.219 1.69679 111.522 0 109.429 0C107.336 0 105.639 1.69679 105.639 3.7899C105.639 5.883 107.336 7.57979 109.429 7.57979Z" fill="#3F3D56"/>
<path d="M305.031 2.31853H295.728C295.545 2.31853 295.37 2.24594 295.241 2.11671C295.112 1.98749 295.039 1.81222 295.039 1.62946C295.039 1.44671 295.112 1.27144 295.241 1.14221C295.37 1.01299 295.545 0.940392 295.728 0.940392H305.031C305.121 0.940184 305.211 0.957854 305.295 0.99239C305.379 1.02693 305.455 1.07765 305.519 1.14165C305.583 1.20566 305.634 1.28169 305.669 1.3654C305.703 1.4491 305.721 1.53884 305.721 1.62946C305.721 1.72009 305.703 1.80982 305.669 1.89353C305.634 1.97723 305.583 2.05326 305.519 2.11727C305.455 2.18128 305.379 2.232 305.295 2.26654C305.211 2.30107 305.121 2.31874 305.031 2.31853Z" fill="#3F3D56"/>
<path d="M305.031 4.90178H295.728C295.545 4.90178 295.37 4.82918 295.241 4.69996C295.112 4.57073 295.039 4.39546 295.039 4.21271C295.039 4.02995 295.112 3.85469 295.241 3.72546C295.37 3.59623 295.545 3.52363 295.728 3.52363H305.031C305.213 3.52363 305.389 3.59623 305.518 3.72546C305.647 3.85469 305.72 4.02995 305.72 4.21271C305.72 4.39546 305.647 4.57073 305.518 4.69996C305.389 4.82918 305.213 4.90178 305.031 4.90178Z" fill="#3F3D56"/>
<path d="M305.031 7.48628H295.728C295.545 7.48628 295.37 7.41368 295.241 7.28445C295.112 7.15523 295.039 6.97996 295.039 6.7972C295.039 6.61445 295.112 6.43918 295.241 6.30996C295.37 6.18073 295.545 6.10813 295.728 6.10813H305.031C305.121 6.10793 305.211 6.1256 305.295 6.16013C305.379 6.19467 305.455 6.24539 305.519 6.3094C305.583 6.3734 305.634 6.44944 305.669 6.53314C305.703 6.61685 305.721 6.70658 305.721 6.7972C305.721 6.88783 305.703 6.97756 305.669 7.06127C305.634 7.14497 305.583 7.22101 305.519 7.28501C305.455 7.34902 305.379 7.39974 305.295 7.43428C305.211 7.46881 305.121 7.48648 305.031 7.48628Z" fill="#3F3D56"/>
<path d="M305.72 27.1782H256.107V56.9244H305.72V27.1782Z" fill="#EA4638"/>
<path d="M295.822 70.5897H266.302C265.934 70.5891 265.58 70.4423 265.32 70.1816C265.06 69.921 264.914 69.5676 264.914 69.1993C264.914 68.8309 265.06 68.4776 265.32 68.2169C265.58 67.9562 265.934 67.8094 266.302 67.8088H295.822C296.19 67.8088 296.544 67.9553 296.805 68.2161C297.066 68.4768 297.212 68.8305 297.212 69.1993C297.212 69.568 297.066 69.9217 296.805 70.1824C296.544 70.4432 296.19 70.5897 295.822 70.5897Z" fill="#E4E4E4"/>
<path d="M291.062 65.8302H271.061C270.879 65.8305 270.698 65.7948 270.529 65.725C270.36 65.6553 270.206 65.5529 270.077 65.4238C269.947 65.2946 269.845 65.1413 269.775 64.9724C269.705 64.8036 269.669 64.6226 269.669 64.4398C269.669 64.257 269.705 64.076 269.775 63.9072C269.845 63.7384 269.947 63.585 270.077 63.4559C270.206 63.3267 270.36 63.2243 270.529 63.1546C270.698 63.0849 270.879 63.0491 271.061 63.0494H291.062C291.245 63.0491 291.426 63.0849 291.595 63.1546C291.764 63.2243 291.917 63.3267 292.047 63.4559C292.176 63.585 292.279 63.7384 292.349 63.9072C292.419 64.076 292.455 64.257 292.455 64.4398C292.455 64.6226 292.419 64.8036 292.349 64.9724C292.279 65.1413 292.176 65.2946 292.047 65.4238C291.917 65.5529 291.764 65.6553 291.595 65.725C291.426 65.7948 291.245 65.8305 291.062 65.8302Z" fill="#E4E4E4"/>
<path d="M305.72 81.2697H256.107V111.016H305.72V81.2697Z" fill="#F0F0F0"/>
<path d="M295.822 124.681H266.302C265.933 124.681 265.579 124.535 265.319 124.274C265.058 124.013 264.911 123.66 264.911 123.291C264.911 122.922 265.058 122.568 265.319 122.308C265.579 122.047 265.933 121.9 266.302 121.9H295.822C296.19 121.9 296.544 122.047 296.805 122.308C297.065 122.568 297.212 122.922 297.212 123.291C297.212 123.66 297.065 124.013 296.805 124.274C296.544 124.535 296.19 124.681 295.822 124.681Z" fill="#E4E4E4"/>
<path d="M291.062 119.922H271.061C270.693 119.922 270.339 119.776 270.078 119.515C269.817 119.254 269.671 118.901 269.671 118.532C269.671 118.163 269.817 117.809 270.078 117.549C270.339 117.288 270.693 117.141 271.061 117.141H291.062C291.431 117.141 291.785 117.288 292.045 117.549C292.306 117.809 292.453 118.163 292.453 118.532C292.453 118.901 292.306 119.254 292.045 119.515C291.785 119.776 291.431 119.922 291.062 119.922Z" fill="#E4E4E4"/>
<path d="M230.665 48.0337H80.9068C80.538 48.0337 80.1843 47.8872 79.9236 47.6265C79.6628 47.3657 79.5163 47.0121 79.5163 46.6433C79.5163 46.2745 79.6628 45.9209 79.9236 45.6601C80.1843 45.3994 80.538 45.2529 80.9068 45.2529H230.665C231.034 45.2529 231.388 45.3994 231.648 45.6601C231.909 45.9209 232.056 46.2745 232.056 46.6433C232.056 47.0121 231.909 47.3657 231.648 47.6265C231.388 47.8872 231.034 48.0337 230.665 48.0337Z" fill="#E4E4E4"/>
<path d="M230.665 58.5677H80.9068C80.538 58.5677 80.1843 58.4212 79.9236 58.1605C79.6628 57.8997 79.5163 57.546 79.5163 57.1773C79.5163 56.8085 79.6628 56.4549 79.9236 56.1941C80.1843 55.9333 80.538 55.7869 80.9068 55.7869H230.665C231.034 55.7869 231.388 55.9333 231.648 56.1941C231.909 56.4549 232.056 56.8085 232.056 57.1773C232.056 57.546 231.909 57.8997 231.648 58.1605C231.388 58.4212 231.034 58.5677 230.665 58.5677Z" fill="#E4E4E4"/>
<path d="M230.665 69.1029H80.9068C80.538 69.1029 80.1843 68.9564 79.9236 68.6957C79.6628 68.4349 79.5163 68.0813 79.5163 67.7125C79.5163 67.3437 79.6628 66.9901 79.9236 66.7293C80.1843 66.4686 80.538 66.3221 80.9068 66.3221H230.665C231.034 66.3221 231.388 66.4686 231.648 66.7293C231.909 66.9901 232.056 67.3437 232.056 67.7125C232.056 68.0813 231.909 68.4349 231.648 68.6957C231.388 68.9564 231.034 69.1029 230.665 69.1029Z" fill="#E4E4E4"/>
<path d="M230.665 79.6373H80.9068C80.538 79.6373 80.1843 79.4908 79.9236 79.2301C79.6628 78.9693 79.5163 78.6157 79.5163 78.2469C79.5163 77.8781 79.6628 77.5245 79.9236 77.2637C80.1843 77.003 80.538 76.8565 80.9068 76.8565H230.665C231.034 76.8565 231.388 77.003 231.648 77.2637C231.909 77.5245 232.056 77.8781 232.056 78.2469C232.056 78.6157 231.909 78.9693 231.648 79.2301C231.388 79.4908 231.034 79.6373 230.665 79.6373Z" fill="#E4E4E4"/>
<path d="M230.665 100.707H80.9068C80.538 100.707 80.1843 100.56 79.9236 100.3C79.6628 100.039 79.5163 99.6853 79.5163 99.3165C79.5163 98.9478 79.6628 98.5941 79.9236 98.3333C80.1843 98.0726 80.538 97.9261 80.9068 97.9261H230.665C231.034 97.9261 231.388 98.0726 231.648 98.3333C231.909 98.5941 232.056 98.9478 232.056 99.3165C232.056 99.6853 231.909 100.039 231.648 100.3C231.388 100.56 231.034 100.707 230.665 100.707Z" fill="#E4E4E4"/>
<path d="M230.665 111.241H80.9068C80.538 111.241 80.1843 111.094 79.9236 110.834C79.6628 110.573 79.5163 110.219 79.5163 109.85C79.5163 109.482 79.6628 109.128 79.9236 108.867C80.1843 108.607 80.538 108.46 80.9068 108.46H230.665C231.034 108.46 231.388 108.607 231.648 108.867C231.909 109.128 232.056 109.482 232.056 109.85C232.056 110.219 231.909 110.573 231.648 110.834C231.388 111.094 231.034 111.241 230.665 111.241Z" fill="#E4E4E4"/>
<path d="M205.927 37.462H105.646C105.463 37.4623 105.282 37.4265 105.113 37.3568C104.944 37.2871 104.79 37.1847 104.661 37.0555C104.532 36.9264 104.429 36.773 104.359 36.6042C104.289 36.4354 104.253 36.2544 104.253 36.0716C104.253 35.8888 104.289 35.7078 104.359 35.539C104.429 35.3701 104.532 35.2167 104.661 35.0876C104.79 34.9585 104.944 34.8561 105.113 34.7863C105.282 34.7166 105.463 34.6809 105.646 34.6811H205.927C206.109 34.6809 206.29 34.7166 206.459 34.7863C206.628 34.8561 206.782 34.9585 206.911 35.0876C207.041 35.2167 207.143 35.3701 207.213 35.539C207.283 35.7078 207.319 35.8888 207.319 36.0716C207.319 36.2544 207.283 36.4354 207.213 36.6042C207.143 36.773 207.041 36.9264 206.911 37.0555C206.782 37.1847 206.628 37.2871 206.459 37.3568C206.29 37.4265 206.109 37.4623 205.927 37.462Z" fill="#E4E4E4"/>
<path d="M244.351 168.113H247.246L248.624 156.945L244.351 156.945L244.351 168.113Z" fill="#FFB6B6"/>
<path d="M243.612 167.168L249.314 167.168C250.278 167.168 251.203 167.55 251.884 168.232C252.565 168.913 252.948 169.838 252.948 170.801V170.919L243.613 170.92L243.612 167.168Z" fill="#2F2E41"/>
<path d="M229.553 168.113H232.448L233.825 156.945L229.552 156.945L229.553 168.113Z" fill="#FFB6B6"/>
<path d="M228.814 167.168L234.516 167.168C235.48 167.168 236.404 167.55 237.085 168.232C237.767 168.913 238.15 169.838 238.15 170.801V170.919L228.814 170.92L228.814 167.168Z" fill="#2F2E41"/>
<path d="M263.362 43.6647C263.362 43.1787 263.255 42.6987 263.047 42.2593C262.84 41.8198 262.538 41.4318 262.162 41.1232C261.787 40.8145 261.348 40.5929 260.877 40.4742C260.405 40.3556 259.914 40.3428 259.437 40.4369C258.96 40.531 258.51 40.7296 258.119 41.0183C257.728 41.3071 257.406 41.6789 257.177 42.107C256.947 42.5351 256.814 43.0089 256.789 43.4942C256.764 43.9795 256.847 44.4643 257.032 44.9138L250.378 55.4409L246.236 63.7884L249.654 66.8222L252.285 64.0536L260.888 46.8475C261.595 46.667 262.222 46.2562 262.67 45.6799C263.118 45.1036 263.362 44.3946 263.362 43.6647Z" fill="#FFB6B6"/>
<path d="M228.832 78.1954L222.31 77.1846L220.756 88.9838L212.292 107.199C211.74 107.543 211.302 108.043 211.034 108.636C210.766 109.229 210.68 109.888 210.786 110.53C210.893 111.172 211.187 111.768 211.632 112.242C212.077 112.717 212.653 113.049 213.286 113.196C213.92 113.344 214.583 113.3 215.192 113.07C215.801 112.841 216.328 112.436 216.707 111.907C217.086 111.379 217.299 110.749 217.32 110.099C217.342 109.449 217.17 108.807 216.826 108.254L225.677 92.2726L228.832 78.1954Z" fill="#FFB6B6"/>
<path d="M232.446 97.8514C232.446 97.8514 226.711 103.155 227.44 116.49L229.047 137.091L228.641 165.809L234.532 165.346L239.679 117.219L244.612 136.951L242.841 163.235L248.515 163.367L254.477 133.662L253.064 111.643L250.69 97.8514H232.446Z" fill="#2F2E41"/>
<path d="M238.582 66.7937L224.88 70.6304L231.847 91.5052L230.806 99.491L251.933 99.6278L247.04 84.1925C247.04 84.1925 249.786 78.5461 246.651 74.5883L238.582 66.7937Z" fill="#EA4638"/>
<path d="M236.938 70.0828L238.582 66.7937C238.582 66.7937 238.529 65.9678 242.393 65.5589L246.926 61.0536L251.074 65.1888L244.063 75.5638L236.938 70.0828Z" fill="#EA4638"/>
<path d="M230.361 73.3711C230.361 73.3711 225.428 67.8902 222.688 70.6307C219.947 73.3712 221.352 82.0853 221.352 82.0853L229.888 83.4098L230.361 73.3711Z" fill="#EA4638"/>
<path d="M232.863 52.3027C241.264 52.3404 241.263 65.1135 232.863 65.15C224.462 65.1123 224.463 52.3392 232.863 52.3027Z" fill="#FFB6B6"/>
<path d="M233.798 58.3018C234.934 58.9705 236.114 59.6545 237.424 59.7979C238.734 59.9413 240.217 59.3899 240.742 58.1815C240.907 57.7628 240.994 57.3178 241 56.868C241.115 54.5729 240.321 52.3248 238.79 50.6113C238.021 49.7715 237.08 49.1072 236.032 48.6639C234.983 48.2205 233.851 48.0085 232.713 48.0423C230.543 48.1366 228.537 49.1642 226.611 50.1694C224.84 51.0938 222.969 52.1124 222.007 53.8633C220.581 56.4579 221.62 59.6345 221.897 62.5822C222.092 64.7801 221.841 66.9947 221.161 69.0938C220.48 71.1928 219.384 73.1332 217.937 74.7992L229.89 75.9317C231.345 76.0696 232.828 76.2058 234.254 75.8873C235.484 75.6126 236.617 75.0096 237.532 74.1425C238.446 73.2754 239.109 72.1766 239.45 70.9629C239.79 69.7491 239.795 68.4659 239.464 67.2496C239.133 66.0333 238.479 64.9293 237.571 64.0551C235.874 62.4217 233.146 61.2654 233.079 58.9113" fill="#2F2E41"/>
<path d="M322.875 167.845H319.703L318.195 155.613H322.875L322.875 167.845Z" fill="#9F616A"/>
<path d="M323.683 170.92L313.458 170.919V170.79C313.458 169.734 313.877 168.722 314.624 167.976C315.37 167.229 316.382 166.81 317.438 166.81L323.683 166.81L323.683 170.92Z" fill="#2F2E41"/>
<path d="M352.362 167.845H349.191L347.682 155.613H352.362L352.362 167.845Z" fill="#9F616A"/>
<path d="M353.171 170.92L342.946 170.919V170.79C342.946 169.734 343.365 168.722 344.111 167.976C344.858 167.229 345.87 166.81 346.925 166.81L353.171 166.81L353.171 170.92Z" fill="#2F2E41"/>
<path d="M321.611 105.773C321.611 105.773 318.949 112.998 319.329 116.04C319.709 119.082 316.667 140.376 317.047 142.278C317.428 144.179 316.667 153.685 317.047 155.206C317.428 156.727 315.98 158.544 316.741 160.065C317.501 161.586 318.569 164.713 318.569 164.713L323.512 164.332L324.272 160.15C324.272 160.15 326.554 159.769 326.174 157.488C325.793 155.206 328.075 139.996 328.075 139.996L334.539 118.702L343.665 138.095C343.665 138.095 344.046 151.784 345.186 153.305C346.327 154.826 344.046 159.009 345.186 160.53C346.327 162.051 347.468 164.713 347.468 164.713H353.172V161.671C353.172 161.671 356.594 159.769 353.172 154.066L350.859 119.812L348.578 104.221L321.611 105.773Z" fill="#2F2E41"/>
<path d="M335.786 57.9601C339.708 57.9601 342.888 54.7803 342.888 50.8579C342.888 46.9354 339.708 43.7556 335.786 43.7556C331.863 43.7556 328.684 46.9354 328.684 50.8579C328.684 54.7803 331.863 57.9601 335.786 57.9601Z" fill="#A0616A"/>
<path d="M329.742 50.3679C330.243 51.6483 330.744 52.9287 331.245 54.2091C331.861 55.7832 332.567 57.4673 334.011 58.3458C335.794 59.4304 338.175 58.9016 339.9 57.7266C341.452 56.6699 342.643 55.1637 343.313 53.4104C343.983 51.6572 344.101 49.7407 343.65 47.9185C343.2 46.0963 342.202 44.4557 340.792 43.2169C339.382 41.9782 337.626 41.2007 335.761 40.9888L335.69 42.2745L334.112 40.9521C333.995 41.1523 333.835 41.3235 333.643 41.4527C333.45 41.582 333.231 41.666 333.002 41.6985C332.772 41.7309 332.538 41.711 332.318 41.6401C332.097 41.5692 331.895 41.4493 331.728 41.2893C332.142 42.1483 331.664 43.196 330.973 43.8541C330.125 44.6625 327.698 45.6341 327.798 47.0792C327.866 48.0436 329.351 49.3685 329.742 50.3679Z" fill="#2F2E41"/>
<path d="M355.336 116.279C355.581 115.914 355.742 115.499 355.81 115.065C355.877 114.631 355.848 114.187 355.725 113.765C355.602 113.342 355.388 112.952 355.098 112.622C354.809 112.291 354.45 112.028 354.047 111.852L354.189 104.981L350.035 103.876L349.971 113.582C349.718 114.278 349.73 115.042 350.004 115.73C350.278 116.418 350.794 116.981 351.455 117.313C352.117 117.646 352.877 117.724 353.592 117.534C354.307 117.343 354.928 116.897 355.336 116.279Z" fill="#9F616A"/>
<path d="M341.062 62.3489C341.062 62.3489 335.558 59.5971 330.36 61.4316C325.162 63.2662 322.41 65.4065 322.41 65.4065L325.774 83.1405L321.187 106.99C321.187 106.99 344.731 105.155 346.871 106.99C349.011 108.824 349.011 104.849 349.011 104.849L347.177 82.2232L350.54 67.8525L341.062 62.3489Z" fill="#3F3D56"/>
<path d="M317.833 116.686C318.17 116.404 318.442 116.052 318.628 115.654C318.815 115.256 318.912 114.822 318.912 114.382C318.913 113.942 318.817 113.508 318.632 113.109C318.446 112.711 318.176 112.358 317.839 112.075L319.904 105.52L316.227 103.294L313.441 112.591C313.003 113.188 312.8 113.925 312.869 114.662C312.939 115.399 313.276 116.085 313.818 116.589C314.359 117.094 315.067 117.383 315.807 117.401C316.547 117.418 317.268 117.164 317.833 116.686Z" fill="#9F616A"/>
<path d="M324.551 65.4073L322.41 65.4065C322.41 65.4065 319.047 67.5476 319.047 70.6052C319.047 73.6627 314.155 109.436 314.155 109.436L319.353 110.354L323.939 85.2816L327.302 78.5549L324.551 65.4073Z" fill="#3F3D56"/>
<path d="M344.731 67.8525L350.54 67.8525C350.54 67.8525 352.375 69.687 353.292 73.9676C354.209 78.2482 355.126 95.0649 355.126 95.0649L354.515 110.353H349.929L349.317 90.4786L346.259 77.6367L344.731 67.8525Z" fill="#3F3D56"/>
<path d="M75.4421 88.201C75.2955 88.2721 75.1547 88.3546 75.021 88.4478L61.42 83.1312L60.8809 79.6248L55.4827 79.7467L55.8339 86.047C55.8623 86.5559 56.0549 87.042 56.3831 87.4321C56.7112 87.8222 57.157 88.0954 57.6536 88.2106L73.8376 91.9651C74.0353 92.5608 74.4097 93.0822 74.9109 93.46C75.4122 93.8378 76.0166 94.0541 76.6437 94.08C77.2709 94.1059 77.8911 93.9402 78.4218 93.6051C78.9525 93.2699 79.3686 92.7811 79.6147 92.2037C79.8609 91.6263 79.9254 90.9876 79.7997 90.3727C79.674 89.7577 79.3641 89.1956 78.9111 88.761C78.4581 88.3265 77.8836 88.0402 77.2639 87.9402C76.6443 87.8401 76.0088 87.9311 75.4421 88.201Z" fill="#9F616A"/>
<path d="M55.021 167.42L58.6311 167.42L60.3482 153.496H55.0203L55.021 167.42Z" fill="#9F616A"/>
<path d="M54.1002 166.241L61.2096 166.241C62.4112 166.241 63.5638 166.718 64.4135 167.568C65.2631 168.418 65.7405 169.57 65.7406 170.772V170.919L54.1004 170.919L54.1002 166.241Z" fill="#2F2E41"/>
<path d="M37.6478 167.42L41.2579 167.42L42.9754 153.496H37.6475L37.6478 167.42Z" fill="#9F616A"/>
<path d="M36.7271 166.241L43.8365 166.241C45.0381 166.241 46.1907 166.718 47.0404 167.568C47.89 168.418 48.3674 169.57 48.3675 170.772V170.919L36.7273 170.919L36.7271 166.241Z" fill="#2F2E41"/>
<path d="M39.7411 61.2577C38.713 57.0127 37.842 52.2248 39.7809 48.315C41.1263 45.6023 46.1031 44.6888 48.9561 45.6661C51.809 46.6434 53.8717 49.2948 54.7789 52.1858C55.6861 55.0767 55.5807 58.192 55.1853 61.1973C49.9383 61.0965 44.6913 60.9957 39.7411 61.2577Z" fill="#2F2E41"/>
<path d="M48.5956 61.2565C51.9748 61.2565 54.7141 58.5172 54.7141 55.138C54.7141 51.7588 51.9748 49.0195 48.5956 49.0195C45.2164 49.0195 42.4771 51.7588 42.4771 55.138C42.4771 58.5172 45.2164 61.2565 48.5956 61.2565Z" fill="#9F616A"/>
<path d="M41.1157 53.8771C41.0963 52.8473 41.284 51.8241 41.6678 50.8683C42.0515 49.9125 42.6235 49.0436 43.3497 48.3133C44.076 47.5829 44.9416 47.006 45.8952 46.6167C46.8487 46.2275 47.8708 46.0339 48.9007 46.0475C49.9306 46.0611 50.9472 46.2815 51.8902 46.6958C52.8332 47.11 53.6833 47.7096 54.39 48.4588C55.0967 49.2081 55.6456 50.0917 56.0041 51.0573C56.3625 52.0229 56.5232 53.0507 56.4766 54.0796C51.2396 54.0907 46.0026 54.1018 41.1157 53.8771Z" fill="#2F2E41"/>
<path d="M43.5177 83.8299L40.9589 88.0947C40.9589 88.0947 33.951 101.238 34.3678 112.133L35.9186 125.702L34.2167 129.032L35.3559 134.891L33.2402 139.088L37.0648 159.35L37.2275 163.745H43.4119L43.0864 159.269L45.6904 139.53L50.0845 118.454L52.363 136.647L51.5493 141.204L52.6071 145.029L54.0718 156.828L54.2346 162.524L59.8494 163.175L61.9651 142.099L63.1857 132.043L56.6442 87.4568L43.5177 83.8299Z" fill="#2F2E41"/>
<path d="M42.7061 63.2378L38.8965 64.8558L36.757 73.7108L41.2619 85.248L39.5778 91.0125C44.6758 99.733 50.9858 101 58.411 95.4076C56.8395 90.9954 57.0665 86.4586 58.6325 81.8289C58.6325 81.8289 62.5386 78.1917 59.81 73.4629L57.2072 66.3983L53.9847 64.7871L42.7061 63.2378Z" fill="#CBCBCB"/>
<path d="M56.4566 67.9378L57.3215 66.3317C57.3215 66.3317 59.6022 66.6748 60.5336 69.4204C61.4651 72.166 61.7073 83.2575 61.7073 83.2575L56.8273 83.5046L56.4566 67.9378Z" fill="#CBCBCB"/>
<path d="M175.607 67.8082L30.5872 105.183C30.2307 105.273 29.8528 105.218 29.5364 105.031C29.2199 104.843 28.9907 104.538 28.8989 104.182C28.8071 103.826 28.8602 103.448 29.0466 103.13C29.2329 102.813 29.5374 102.583 29.8932 102.49L174.913 65.1154C175.09 65.0692 175.275 65.0584 175.456 65.0836C175.637 65.1088 175.811 65.1695 175.969 65.2622C176.127 65.355 176.265 65.478 176.375 65.6241C176.485 65.7702 176.565 65.9366 176.611 66.1138C176.656 66.2909 176.667 66.4753 176.641 66.6565C176.615 66.8376 176.554 67.0119 176.461 67.1693C176.367 67.3267 176.244 67.4641 176.098 67.5738C175.951 67.6834 175.784 67.7631 175.607 67.8082Z" fill="#EA4638"/>
<path d="M37.3389 105.583C37.7529 105.377 38.1167 105.083 38.4047 104.721C38.6927 104.359 38.8978 103.939 39.0057 103.489C39.1135 103.039 39.1214 102.572 39.0289 102.118C38.9364 101.665 38.7456 101.238 38.4701 100.867L40.8355 77.7398H35.7236L33.8438 100.322C33.2505 100.826 32.8629 101.531 32.7542 102.302C32.6456 103.073 32.8235 103.857 33.2544 104.505C33.6852 105.154 34.3389 105.622 35.0917 105.82C35.8445 106.019 36.6441 105.935 37.3389 105.583Z" fill="#9F616A"/>
<path d="M42.0098 67.471L40.2184 64.9383C40.2184 64.9383 37.0679 62.8024 35.4618 67.7181C33.8557 72.6337 34.1028 81.7405 34.1028 81.7405L40.2184 84.2732L42.0098 67.471Z" fill="#CBCBCB"/>
<path d="M138.765 171.149H0.363259C0.266917 171.149 0.17452 171.111 0.106396 171.043C0.0382716 170.975 0 170.882 0 170.786C0 170.69 0.0382716 170.597 0.106396 170.529C0.17452 170.461 0.266917 170.423 0.363259 170.423H138.765C138.861 170.423 138.954 170.461 139.022 170.529C139.09 170.597 139.128 170.69 139.128 170.786C139.128 170.882 139.09 170.975 139.022 171.043C138.954 171.111 138.861 171.149 138.765 171.149Z" fill="#CACACA"/>
<path d="M356.72 171.149H218.319C218.222 171.149 218.13 171.111 218.062 171.043C217.994 170.975 217.955 170.882 217.955 170.786C217.955 170.69 217.994 170.597 218.062 170.529C218.13 170.461 218.222 170.423 218.319 170.423H356.72C356.817 170.423 356.909 170.461 356.977 170.529C357.046 170.597 357.084 170.69 357.084 170.786C357.084 170.882 357.046 170.975 356.977 171.043C356.909 171.111 356.817 171.149 356.72 171.149Z" fill="#CACACA"/>
</svg>
