<svg width="282" height="134" viewBox="0 0 282 134" fill="none" xmlns="http://www.w3.org/2000/svg">
<path d="M6.07596 107V26.719H39.5525C45.5631 26.719 50.5938 27.5683 54.6444 29.2669C58.7212 30.9656 61.7788 33.3437 63.8171 36.4013C65.8817 39.4589 66.9139 42.9999 66.9139 47.0244C66.9139 50.082 66.2737 52.8129 64.9931 55.2172C63.7126 57.5953 61.9486 59.5683 59.7012 61.1363C57.4537 62.7043 54.8535 63.8019 51.9004 64.4291V65.2131C55.1409 65.3699 58.1332 66.2454 60.8772 67.8395C63.6473 69.4336 65.8686 71.6549 67.5411 74.5034C69.2136 77.3258 70.0499 80.6709 70.0499 84.5386C70.0499 88.8505 68.9523 92.7052 66.7571 96.1025C64.5619 99.4737 61.3868 102.139 57.2316 104.099C53.0764 106.033 48.0327 107 42.1005 107H6.07596ZM25.4798 91.3593H37.4749C41.6824 91.3593 44.7792 90.5622 46.7653 88.9681C48.7775 87.374 49.7837 85.1527 49.7837 82.3042C49.7837 80.2397 49.3002 78.4626 48.3333 76.973C47.3663 75.4573 45.9943 74.2944 44.2173 73.4842C42.4402 72.648 40.3104 72.2298 37.8277 72.2298H25.4798V91.3593ZM25.4798 59.7251H36.2205C38.3373 59.7251 40.2189 59.3723 41.8653 58.6667C43.5117 57.9611 44.7922 56.942 45.7069 55.6092C46.6477 54.2764 47.1181 52.6692 47.1181 50.7876C47.1181 48.0959 46.1642 45.9791 44.2565 44.4372C42.3488 42.8954 39.7747 42.1245 36.5341 42.1245H25.4798V59.7251ZM98.5481 26.719V107H79.3794V26.719H98.5481ZM138.855 108.137C132.531 108.137 127.095 106.843 122.548 104.256C118.027 101.643 114.538 98.0102 112.082 93.3585C109.651 88.6807 108.436 83.258 108.436 77.0906C108.436 70.8971 109.651 65.4744 112.082 60.8227C114.538 56.1449 118.027 52.5124 122.548 49.9252C127.095 47.3119 132.531 46.0052 138.855 46.0052C145.179 46.0052 150.602 47.3119 155.123 49.9252C159.67 52.5124 163.159 56.1449 165.589 60.8227C168.046 65.4744 169.274 70.8971 169.274 77.0906C169.274 83.258 168.046 88.6807 165.589 93.3585C163.159 98.0102 159.67 101.643 155.123 104.256C150.602 106.843 145.179 108.137 138.855 108.137ZM138.973 93.6721C141.273 93.6721 143.219 92.9665 144.814 91.5553C146.408 90.1441 147.623 88.1841 148.459 85.6753C149.322 83.1666 149.753 80.2658 149.753 76.973C149.753 73.628 149.322 70.7011 148.459 68.1923C147.623 65.6835 146.408 63.7235 144.814 62.3123C143.219 60.9011 141.273 60.1955 138.973 60.1955C136.595 60.1955 134.582 60.9011 132.936 62.3123C131.316 63.7235 130.074 65.6835 129.212 68.1923C128.376 70.7011 127.958 73.628 127.958 76.973C127.958 80.2658 128.376 83.1666 129.212 85.6753C130.074 88.1841 131.316 90.1441 132.936 91.5553C134.582 92.9665 136.595 93.6721 138.973 93.6721ZM207.161 130.833C201.438 130.833 196.538 130.036 192.461 128.442C188.384 126.848 185.183 124.666 182.857 121.896C180.531 119.126 179.133 115.99 178.663 112.488L196.812 111.469C197.152 112.697 197.779 113.768 198.694 114.683C199.634 115.598 200.85 116.303 202.339 116.8C203.855 117.296 205.632 117.545 207.67 117.545C210.885 117.545 213.537 116.761 215.628 115.193C217.745 113.651 218.803 110.946 218.803 107.078V96.4945H218.137C217.379 98.3499 216.229 100.009 214.687 101.473C213.145 102.936 211.224 104.086 208.925 104.922C206.651 105.759 204.038 106.177 201.085 106.177C196.694 106.177 192.67 105.158 189.011 103.119C185.379 101.055 182.465 97.8665 180.27 93.5545C178.101 89.2164 177.016 83.637 177.016 76.8162C177.016 69.7864 178.14 63.9979 180.387 59.4507C182.635 54.8774 185.575 51.4932 189.207 49.298C192.866 47.1028 196.799 46.0052 201.006 46.0052C204.168 46.0052 206.873 46.554 209.121 47.6516C211.394 48.7231 213.263 50.1081 214.726 51.8068C216.19 53.5054 217.3 55.2694 218.058 57.0987H218.607V46.7892H237.697V107.235C237.697 112.331 236.417 116.63 233.856 120.132C231.295 123.634 227.714 126.286 223.115 128.089C218.516 129.919 213.197 130.833 207.161 130.833ZM207.749 92.2217C210.075 92.2217 212.061 91.6076 213.707 90.3793C215.353 89.1511 216.621 87.3871 217.509 85.0874C218.398 82.7876 218.842 80.0306 218.842 76.8162C218.842 73.5496 218.398 70.7403 217.509 68.3883C216.647 66.0102 215.38 64.1808 213.707 62.9003C212.061 61.6198 210.075 60.9795 207.749 60.9795C205.371 60.9795 203.358 61.6329 201.712 62.9395C200.066 64.2462 198.811 66.0886 197.949 68.4667C197.113 70.8187 196.694 73.6018 196.694 76.8162C196.694 80.0306 197.126 82.7876 197.988 85.0874C198.85 87.3871 200.092 89.1511 201.712 90.3793C203.358 91.6076 205.371 92.2217 207.749 92.2217Z" fill="#130F31"/>
<circle cx="268" cy="120.06" r="13.087" fill="#EA4638"/>
<path d="M268.893 112.363H271.698V123.339C271.693 124.345 271.479 125.211 271.057 125.938C270.636 126.659 270.046 127.216 269.289 127.607C268.537 127.993 267.661 128.186 266.66 128.186C265.745 128.186 264.922 128.023 264.19 127.698C263.464 127.368 262.887 126.88 262.46 126.235C262.033 125.59 261.82 124.787 261.82 123.826H264.632C264.637 124.248 264.729 124.611 264.907 124.916C265.09 125.221 265.341 125.455 265.661 125.618C265.981 125.78 266.35 125.861 266.766 125.861C267.219 125.861 267.602 125.767 267.917 125.579C268.232 125.386 268.471 125.102 268.634 124.726C268.801 124.35 268.888 123.887 268.893 123.339V112.363Z" fill="white"/>
</svg>
