<svg width="22" height="23" viewBox="0 0 22 23" fill="none" xmlns="http://www.w3.org/2000/svg">
<path d="M21.9999 5.66985C21.9999 4.84105 21.6707 4.04619 21.0846 3.46014C20.4986 2.87409 19.7037 2.54485 18.8749 2.54485H18.0937V1.78557C18.0937 1.36516 17.7704 1.00432 17.35 0.983327C17.2444 0.978238 17.1388 0.994648 17.0397 1.03156C16.9406 1.06848 16.8501 1.12513 16.7735 1.19808C16.6969 1.27104 16.636 1.35878 16.5943 1.45599C16.5527 1.55319 16.5312 1.65785 16.5312 1.7636V2.54485H5.59369V1.78557C5.59369 1.36516 5.27045 1.00432 4.85004 0.983327C4.7444 0.978238 4.63884 0.994648 4.53974 1.03156C4.44063 1.06848 4.35006 1.12513 4.27349 1.19808C4.19693 1.27104 4.13598 1.35878 4.09433 1.45599C4.05268 1.55319 4.0312 1.65785 4.03119 1.7636V2.54485H3.24994C2.42114 2.54485 1.62628 2.87409 1.04023 3.46014C0.454179 4.04619 0.124939 4.84105 0.124939 5.66985V6.25579C0.124939 6.30759 0.145517 6.35727 0.182145 6.39389C0.218773 6.43052 0.268451 6.4511 0.320251 6.4511H21.8046C21.8564 6.4511 21.9061 6.43052 21.9427 6.39389C21.9794 6.35727 21.9999 6.30759 21.9999 6.25579V5.66985ZM0.124939 19.7323C0.124939 20.5611 0.454179 21.356 1.04023 21.9421C1.62628 22.5281 2.42114 22.8573 3.24994 22.8573H18.8749C19.7037 22.8573 20.4986 22.5281 21.0846 21.9421C21.6707 21.356 21.9999 20.5611 21.9999 19.7323V8.16008C21.9999 8.12123 21.9845 8.08398 21.957 8.0565C21.9296 8.02903 21.8923 8.0136 21.8535 8.0136H0.271423C0.232573 8.0136 0.195314 8.02903 0.167843 8.0565C0.140372 8.08398 0.124939 8.12123 0.124939 8.16008V19.7323ZM16.9218 9.5761C17.1536 9.5761 17.3802 9.64483 17.5729 9.7736C17.7656 9.90236 17.9158 10.0854 18.0045 10.2995C18.0932 10.5136 18.1164 10.7493 18.0712 10.9766C18.026 11.2039 17.9143 11.4127 17.7505 11.5766C17.5866 11.7405 17.3778 11.8521 17.1504 11.8973C16.9231 11.9425 16.6875 11.9193 16.4734 11.8306C16.2592 11.7419 16.0762 11.5917 15.9474 11.399C15.8187 11.2063 15.7499 10.9797 15.7499 10.748C15.7499 10.4372 15.8734 10.1391 16.0932 9.91933C16.3129 9.69956 16.611 9.5761 16.9218 9.5761ZM16.9218 13.4823C17.1536 13.4823 17.3802 13.5511 17.5729 13.6798C17.7656 13.8086 17.9158 13.9916 18.0045 14.2058C18.0932 14.4199 18.1164 14.6555 18.0712 14.8828C18.026 15.1102 17.9143 15.319 17.7505 15.4829C17.5866 15.6468 17.3778 15.7584 17.1504 15.8036C16.9231 15.8488 16.6875 15.8256 16.4734 15.7369C16.2592 15.6482 16.0762 15.498 15.9474 15.3053C15.8187 15.1126 15.7499 14.886 15.7499 14.6542C15.7499 14.3434 15.8734 14.0454 16.0932 13.8256C16.3129 13.6058 16.611 13.4823 16.9218 13.4823ZM13.0156 9.5761C13.2473 9.5761 13.4739 9.64483 13.6666 9.7736C13.8593 9.90236 14.0095 10.0854 14.0982 10.2995C14.1869 10.5136 14.2101 10.7493 14.1649 10.9766C14.1197 11.2039 14.0081 11.4127 13.8442 11.5766C13.6803 11.7405 13.4715 11.8521 13.2442 11.8973C13.0169 11.9425 12.7812 11.9193 12.5671 11.8306C12.353 11.7419 12.17 11.5917 12.0412 11.399C11.9124 11.2063 11.8437 10.9797 11.8437 10.748C11.8437 10.4372 11.9672 10.1391 12.1869 9.91933C12.4067 9.69956 12.7048 9.5761 13.0156 9.5761ZM13.0156 13.4823C13.2473 13.4823 13.4739 13.5511 13.6666 13.6798C13.8593 13.8086 14.0095 13.9916 14.0982 14.2058C14.1869 14.4199 14.2101 14.6555 14.1649 14.8828C14.1197 15.1102 14.0081 15.319 13.8442 15.4829C13.6803 15.6468 13.4715 15.7584 13.2442 15.8036C13.0169 15.8488 12.7812 15.8256 12.5671 15.7369C12.353 15.6482 12.17 15.498 12.0412 15.3053C11.9124 15.1126 11.8437 14.886 11.8437 14.6542C11.8437 14.3434 11.9672 14.0454 12.1869 13.8256C12.4067 13.6058 12.7048 13.4823 13.0156 13.4823ZM13.0156 17.3886C13.2473 17.3886 13.4739 17.4573 13.6666 17.5861C13.8593 17.7149 14.0095 17.8979 14.0982 18.112C14.1869 18.3261 14.2101 18.5618 14.1649 18.7891C14.1197 19.0164 14.0081 19.2252 13.8442 19.3891C13.6803 19.553 13.4715 19.6646 13.2442 19.7098C13.0169 19.755 12.7812 19.7318 12.5671 19.6431C12.353 19.5544 12.17 19.4042 12.0412 19.2115C11.9124 19.0188 11.8437 18.7922 11.8437 18.5605C11.8437 18.2497 11.9672 17.9516 12.1869 17.7318C12.4067 17.5121 12.7048 17.3886 13.0156 17.3886ZM9.10931 13.4823C9.34109 13.4823 9.56766 13.5511 9.76037 13.6798C9.95309 13.8086 10.1033 13.9916 10.192 14.2058C10.2807 14.4199 10.3039 14.6555 10.2587 14.8828C10.2135 15.1102 10.1018 15.319 9.93795 15.4829C9.77407 15.6468 9.56526 15.7584 9.33794 15.8036C9.11061 15.8488 8.87499 15.8256 8.66086 15.7369C8.44672 15.6482 8.2637 15.498 8.13494 15.3053C8.00617 15.1126 7.93744 14.886 7.93744 14.6542C7.93744 14.3434 8.0609 14.0454 8.28067 13.8256C8.50044 13.6058 8.79851 13.4823 9.10931 13.4823ZM9.10931 17.3886C9.34109 17.3886 9.56766 17.4573 9.76037 17.5861C9.95309 17.7149 10.1033 17.8979 10.192 18.112C10.2807 18.3261 10.3039 18.5618 10.2587 18.7891C10.2135 19.0164 10.1018 19.2252 9.93795 19.3891C9.77407 19.553 9.56526 19.6646 9.33794 19.7098C9.11061 19.755 8.87499 19.7318 8.66086 19.6431C8.44672 19.5544 8.2637 19.4042 8.13494 19.2115C8.00617 19.0188 7.93744 18.7922 7.93744 18.5605C7.93744 18.2497 8.0609 17.9516 8.28067 17.7318C8.50044 17.5121 8.79851 17.3886 9.10931 17.3886ZM5.20306 13.4823C5.43484 13.4823 5.66141 13.5511 5.85412 13.6798C6.04684 13.8086 6.19704 13.9916 6.28574 14.2058C6.37443 14.4199 6.39764 14.6555 6.35242 14.8828C6.3072 15.1102 6.19559 15.319 6.0317 15.4829C5.86782 15.6468 5.65901 15.7584 5.43169 15.8036C5.20436 15.8488 4.96874 15.8256 4.75461 15.7369C4.54047 15.6482 4.35745 15.498 4.22869 15.3053C4.09992 15.1126 4.03119 14.886 4.03119 14.6542C4.03119 14.3434 4.15465 14.0454 4.37442 13.8256C4.59419 13.6058 4.89226 13.4823 5.20306 13.4823ZM5.20306 17.3886C5.43484 17.3886 5.66141 17.4573 5.85412 17.5861C6.04684 17.7149 6.19704 17.8979 6.28574 18.112C6.37443 18.3261 6.39764 18.5618 6.35242 18.7891C6.3072 19.0164 6.19559 19.2252 6.0317 19.3891C5.86782 19.553 5.65901 19.6646 5.43169 19.7098C5.20436 19.755 4.96874 19.7318 4.75461 19.6431C4.54047 19.5544 4.35745 19.4042 4.22869 19.2115C4.09992 19.0188 4.03119 18.7922 4.03119 18.5605C4.03119 18.2497 4.15465 17.9516 4.37442 17.7318C4.59419 17.5121 4.89226 17.3886 5.20306 17.3886Z" fill="#67676D"/>
</svg>
