<svg width="30" height="31" viewBox="0 0 30 31" fill="none" xmlns="http://www.w3.org/2000/svg">
<path opacity="0.5" d="M2.49994 15.9194C2.49994 17.9694 3.03119 18.6582 4.09369 20.0394C6.21494 22.7944 9.77244 25.9194 14.9999 25.9194C20.2274 25.9194 23.7849 22.7944 25.9062 20.0394C26.9687 18.6594 27.4999 17.9682 27.4999 15.9194C27.4999 13.8694 26.9687 13.1807 25.9062 11.7994C23.7849 9.04443 20.2274 5.91943 14.9999 5.91943C9.77244 5.91943 6.21494 9.04443 4.09369 11.7994C3.03119 13.1819 2.49994 13.8707 2.49994 15.9194Z" fill="#67676D"/>
<path fill-rule="evenodd" clip-rule="evenodd" d="M10.3125 15.9199C10.3125 14.6767 10.8064 13.4844 11.6854 12.6054C12.5645 11.7263 13.7568 11.2324 15 11.2324C16.2432 11.2324 17.4355 11.7263 18.3146 12.6054C19.1936 13.4844 19.6875 14.6767 19.6875 15.9199C19.6875 17.1631 19.1936 18.3554 18.3146 19.2345C17.4355 20.1136 16.2432 20.6074 15 20.6074C13.7568 20.6074 12.5645 20.1136 11.6854 19.2345C10.8064 18.3554 10.3125 17.1631 10.3125 15.9199ZM12.1875 15.9199C12.1875 15.174 12.4838 14.4586 13.0113 13.9312C13.5387 13.4037 14.2541 13.1074 15 13.1074C15.7459 13.1074 16.4613 13.4037 16.9887 13.9312C17.5162 14.4586 17.8125 15.174 17.8125 15.9199C17.8125 16.6658 17.5162 17.3812 16.9887 17.9087C16.4613 18.4361 15.7459 18.7324 15 18.7324C14.2541 18.7324 13.5387 18.4361 13.0113 17.9087C12.4838 17.3812 12.1875 16.6658 12.1875 15.9199Z" fill="#67676D"/>
</svg>
