<svg width="31" height="46" viewBox="0 0 31 46" fill="none" xmlns="http://www.w3.org/2000/svg">
<path d="M7.66667 46C11.8987 46 15.3333 42.5653 15.3333 38.3333V30.6667H7.66667C3.43467 30.6667 0 34.1013 0 38.3333C0 42.5653 3.43467 46 7.66667 46Z" fill="#0ACF83"/>
<path d="M0 23C0 18.768 3.43467 15.3333 7.66667 15.3333H15.3333V30.6667H7.66667C3.43467 30.6667 0 27.232 0 23Z" fill="#A259FF"/>
<path d="M0 7.66667C0 3.43467 3.43467 0 7.66667 0H15.3333V15.3333H7.66667C3.43467 15.3333 0 11.8987 0 7.66667Z" fill="#F24E1E"/>
<path d="M15.3333 0H23C27.232 0 30.6667 3.43467 30.6667 7.66667C30.6667 11.8987 27.232 15.3333 23 15.3333L15.3333 15.3333V0Z" fill="#FF7262"/>
<path d="M30.6667 23C30.6667 27.232 27.232 30.6667 23 30.6667C18.768 30.6667 15.3333 27.232 15.3333 23C15.3333 18.768 18.768 15.3333 23 15.3333C27.232 15.3333 30.6667 18.768 30.6667 23Z" fill="#1ABCFE"/>
</svg>
