<svg width="100" height="20" viewBox="0 0 198 46" fill="none" xmlns="http://www.w3.org/2000/svg">
<path d="M16.4734 0.818176H24.6183V24.4517C24.6071 26.666 24.0786 28.602 23.0327 30.2599C21.9867 31.9067 20.5402 33.1863 18.6932 34.0987C16.8572 35.0111 14.732 35.4673 12.3175 35.4673C10.1811 35.4673 8.23951 35.0946 6.49251 34.3491C4.75671 33.6036 3.37141 32.4464 2.33661 30.8775C1.31301 29.3086 0.806706 27.3002 0.817806 24.8523H9.04621C9.07951 25.7313 9.24641 26.4824 9.54691 27.1055C9.85841 27.7174 10.2868 28.1792 10.832 28.4908C11.3772 28.8023 12.0282 28.9581 12.7848 28.9581C13.5748 28.9581 14.2424 28.7912 14.7876 28.4574C15.3329 28.1125 15.7446 27.6062 16.0227 26.9386C16.312 26.271 16.4622 25.442 16.4734 24.4517V0.818176ZM41.7884 35.484C39.1069 35.484 36.7925 34.9555 34.8453 33.8984C32.9092 32.8303 31.4182 31.3114 30.3722 29.342C29.3374 27.3614 28.82 25.008 28.82 22.282C28.82 19.6338 29.343 17.3194 30.3889 15.3388C31.4349 13.3471 32.9092 11.8004 34.8119 10.6989C36.7146 9.58618 38.9566 9.02978 41.5381 9.02978C43.3629 9.02978 45.0319 9.31358 46.5452 9.88098C48.0584 10.4485 49.3659 11.2886 50.4674 12.4013C51.569 13.514 52.4258 14.8881 53.0377 16.5238C53.6497 18.1483 53.9557 20.0121 53.9557 22.1151V24.1513H31.6741V19.4112H46.3616C46.3505 18.5433 46.1446 17.77 45.7441 17.0913C45.3435 16.4125 44.7927 15.884 44.0917 15.5057C43.4018 15.1162 42.6063 14.9215 41.705 14.9215C40.7926 14.9215 39.9748 15.1274 39.2515 15.5391C38.5283 15.9396 37.9552 16.4904 37.5324 17.1914C37.1096 17.8813 36.887 18.6657 36.8648 19.5447V24.3683C36.8648 25.4142 37.0706 26.3321 37.4823 27.1222C37.894 27.901 38.4782 28.5075 39.2348 28.9414C39.9914 29.3754 40.8927 29.5923 41.9387 29.5923C42.6619 29.5923 43.3184 29.4922 43.9081 29.2919C44.4978 29.0916 45.0041 28.7968 45.4269 28.4073C45.8498 28.0179 46.1669 27.5394 46.3783 26.9719L53.8722 27.1889C53.5607 28.8691 52.8764 30.3323 51.8193 31.5785C50.7734 32.8136 49.3992 33.776 47.6968 34.4659C45.9944 35.1446 44.0249 35.484 41.7884 35.484ZM58.1241 35V9.36358H66.052V14.0369H66.3191C66.7864 12.3456 67.5486 11.0883 68.6056 10.2649C69.6627 9.43038 70.8922 9.01308 72.2942 9.01308C72.6725 9.01308 73.062 9.04098 73.4625 9.09658C73.8631 9.14108 74.2359 9.21338 74.5808 9.31358V16.407C74.1913 16.2734 73.6795 16.1677 73.0453 16.0898C72.4222 16.012 71.8658 15.973 71.3762 15.973C70.4082 15.973 69.5347 16.19 68.7559 16.6239C67.9881 17.0468 67.3817 17.642 66.9366 18.4098C66.5027 19.1664 66.2857 20.0566 66.2857 21.0803V35H58.1241ZM88.5589 35.484C85.8774 35.484 83.563 34.9555 81.6158 33.8984C79.6797 32.8303 78.1887 31.3114 77.1428 29.342C76.108 27.3614 75.5906 25.008 75.5906 22.282C75.5906 19.6338 76.1135 17.3194 77.1594 15.3388C78.2054 13.3471 79.6797 11.8004 81.5824 10.6989C83.4851 9.58618 85.7272 9.02978 88.3086 9.02978C90.133 9.02978 91.802 9.31358 93.316 9.88098C94.829 10.4485 96.136 11.2886 97.238 12.4013C98.339 13.514 99.196 14.8881 99.808 16.5238C100.42 18.1483 100.726 20.0121 100.726 22.1151V24.1513H78.4446V19.4112H93.132C93.121 18.5433 92.915 17.77 92.515 17.0913C92.114 16.4125 91.563 15.884 90.862 15.5057C90.172 15.1162 89.3768 14.9215 88.4755 14.9215C87.5631 14.9215 86.7453 15.1274 86.022 15.5391C85.2988 15.9396 84.7257 16.4904 84.3029 17.1914C83.8801 17.8813 83.6576 18.6657 83.6353 19.5447V24.3683C83.6353 25.4142 83.8411 26.3321 84.2528 27.1222C84.6645 27.901 85.2487 28.5075 86.0053 28.9414C86.762 29.3754 87.6632 29.5923 88.7092 29.5923C89.4324 29.5923 90.089 29.4922 90.679 29.2919C91.268 29.0916 91.775 28.7968 92.197 28.4073C92.62 28.0179 92.937 27.5394 93.149 26.9719L100.643 27.1889C100.331 28.8691 99.647 30.3323 98.59 31.5785C97.544 32.8136 96.17 33.776 94.467 34.4659C92.765 35.1446 90.795 35.484 88.5589 35.484ZM104.895 35V9.36358H112.656V14.0703H112.939C113.473 12.5125 114.375 11.283 115.643 10.3817C116.912 9.48048 118.425 9.02978 120.183 9.02978C121.963 9.02978 123.488 9.48598 124.756 10.3984C126.025 11.3108 126.831 12.5348 127.176 14.0703H127.443C127.922 12.5459 128.856 11.3275 130.247 10.4151C131.638 9.49158 133.279 9.02978 135.171 9.02978C137.597 9.02978 139.566 9.80868 141.079 11.3665C142.593 12.9131 143.349 15.0384 143.349 17.7422V35H135.188V19.6115C135.188 18.3319 134.859 17.3583 134.203 16.6907C133.546 16.012 132.695 15.6726 131.649 15.6726C130.525 15.6726 129.641 16.0398 128.995 16.7741C128.361 17.4974 128.044 18.471 128.044 19.695V35H120.2V19.5281C120.2 18.3375 119.877 17.3973 119.232 16.7074C118.586 16.0175 117.735 15.6726 116.678 15.6726C115.966 15.6726 115.337 15.8451 114.792 16.19C114.247 16.5238 113.818 17.0022 113.507 17.6254C113.206 18.2485 113.056 18.9828 113.056 19.8285V35H104.895ZM152.479 44.6136C151.5 44.6136 150.576 44.5357 149.708 44.38C148.84 44.2353 148.095 44.0406 147.472 43.7958L149.274 37.8707C150.075 38.1378 150.799 38.2936 151.444 38.3381C152.1 38.3826 152.662 38.2769 153.13 38.021C153.608 37.7762 153.975 37.3366 154.231 36.7024L154.548 35.9347L145.435 9.36358H153.981L158.704 27.6562H158.971L163.761 9.36358H172.357L162.693 37.4535C162.226 38.8555 161.564 40.0906 160.707 41.1587C159.861 42.238 158.765 43.0837 157.419 43.6957C156.084 44.3076 154.437 44.6136 152.479 44.6136Z" fill="#130F31"/>
<path d="M190.5 46C194.642 46 198 42.6421 198 38.5C198 34.3578 194.642 31 190.5 31C186.358 31 183 34.3578 183 38.5C183 42.6421 186.358 46 190.5 46Z" fill="#EA4638"/>
<path d="M191.012 34.0545H192.619V40.3443C192.616 40.9209 192.494 41.4174 192.252 41.8338C192.01 42.2473 191.673 42.5661 191.239 42.7903C190.808 43.0116 190.305 43.1223 189.732 43.1223C189.208 43.1223 188.736 43.0291 188.317 42.8428C187.9 42.6535 187.57 42.3739 187.325 42.0041C187.08 41.6343 186.958 41.1742 186.958 40.6239H188.57C188.573 40.8656 188.625 41.0738 188.727 41.2485C188.832 41.4232 188.976 41.5571 189.16 41.6503C189.343 41.7435 189.554 41.7901 189.793 41.7901C190.052 41.7901 190.272 41.7362 190.452 41.6285C190.633 41.5178 190.77 41.3548 190.863 41.1393C190.959 40.9238 191.009 40.6588 191.012 40.3443V34.0545Z" fill="white"/>
</svg>
