<svg width="205" height="51" viewBox="0 0 205 51" fill="none" xmlns="http://www.w3.org/2000/svg">
<path d="M16.4734 6.81818H24.6183V30.4517C24.6071 32.666 24.0786 34.602 23.0327 36.2599C21.9867 37.9067 20.5402 39.1863 18.6932 40.0987C16.8572 41.0111 14.732 41.4673 12.3175 41.4673C10.1811 41.4673 8.23946 41.0946 6.49254 40.3491C4.75675 39.6036 3.37145 38.4464 2.33665 36.8775C1.31297 35.3086 0.8067 33.3002 0.817827 30.8523H9.04616C9.07955 31.7313 9.24645 32.4824 9.54688 33.1055C9.85843 33.7174 10.2868 34.1792 10.832 34.4908C11.3772 34.8023 12.0282 34.9581 12.7848 34.9581C13.5748 34.9581 14.2424 34.7912 14.7876 34.4574C15.3329 34.1125 15.7446 33.6062 16.0227 32.9386C16.312 32.271 16.4622 31.442 16.4734 30.4517V6.81818ZM41.7884 41.484C39.1069 41.484 36.7925 40.9555 34.8453 39.8984C32.9092 38.8303 31.4182 37.3114 30.3722 35.342C29.3374 33.3614 28.82 31.008 28.82 28.282C28.82 25.6338 29.343 23.3194 30.3889 21.3388C31.4349 19.3471 32.9092 17.8004 34.8119 16.6989C36.7146 15.5862 38.9566 15.0298 41.5381 15.0298C43.3629 15.0298 45.0319 15.3136 46.5452 15.881C48.0584 16.4485 49.3659 17.2886 50.4674 18.4013C51.569 19.514 52.4258 20.8881 53.0377 22.5238C53.6497 24.1483 53.9557 26.0121 53.9557 28.1151V30.1513H31.6741V25.4112H46.3616C46.3505 24.5433 46.1446 23.77 45.7441 23.0913C45.3435 22.4125 44.7927 21.884 44.0917 21.5057C43.4018 21.1162 42.6063 20.9215 41.705 20.9215C40.7926 20.9215 39.9748 21.1274 39.2515 21.5391C38.5283 21.9396 37.9552 22.4904 37.5324 23.1914C37.1096 23.8813 36.887 24.6657 36.8648 25.5447V30.3683C36.8648 31.4142 37.0706 32.3321 37.4823 33.1222C37.894 33.901 38.4782 34.5075 39.2348 34.9414C39.9914 35.3754 40.8927 35.5923 41.9387 35.5923C42.6619 35.5923 43.3184 35.4922 43.9081 35.2919C44.4978 35.0916 45.0041 34.7968 45.4269 34.4073C45.8498 34.0179 46.1669 33.5394 46.3783 32.9719L53.8722 33.1889C53.5607 34.8691 52.8764 36.3323 51.8193 37.5785C50.7734 38.8136 49.3992 39.776 47.6968 40.4659C45.9944 41.1446 44.0249 41.484 41.7884 41.484ZM58.1241 41V15.3636H66.052V20.0369H66.3191C66.7864 18.3456 67.5486 17.0883 68.6056 16.2649C69.6627 15.4304 70.8922 15.0131 72.2942 15.0131C72.6725 15.0131 73.062 15.041 73.4625 15.0966C73.8631 15.1411 74.2359 15.2134 74.5808 15.3136V22.407C74.1913 22.2734 73.6795 22.1677 73.0453 22.0898C72.4222 22.012 71.8658 21.973 71.3762 21.973C70.4082 21.973 69.5347 22.19 68.7559 22.6239C67.9881 23.0468 67.3817 23.642 66.9366 24.4098C66.5027 25.1664 66.2857 26.0566 66.2857 27.0803V41H58.1241ZM88.5589 41.484C85.8774 41.484 83.563 40.9555 81.6158 39.8984C79.6797 38.8303 78.1887 37.3114 77.1428 35.342C76.108 33.3614 75.5906 31.008 75.5906 28.282C75.5906 25.6338 76.1135 23.3194 77.1594 21.3388C78.2054 19.3471 79.6797 17.8004 81.5824 16.6989C83.4851 15.5862 85.7272 15.0298 88.3086 15.0298C90.1334 15.0298 91.8024 15.3136 93.3157 15.881C94.829 16.4485 96.1364 17.2886 97.2379 18.4013C98.3395 19.514 99.1963 20.8881 99.8082 22.5238C100.42 24.1483 100.726 26.0121 100.726 28.1151V30.1513H78.4446V25.4112H93.1321C93.121 24.5433 92.9151 23.77 92.5146 23.0913C92.114 22.4125 91.5632 21.884 90.8622 21.5057C90.1723 21.1162 89.3768 20.9215 88.4755 20.9215C87.5631 20.9215 86.7453 21.1274 86.022 21.5391C85.2988 21.9396 84.7257 22.4904 84.3029 23.1914C83.8801 23.8813 83.6576 24.6657 83.6353 25.5447V30.3683C83.6353 31.4142 83.8411 32.3321 84.2528 33.1222C84.6645 33.901 85.2487 34.5075 86.0053 34.9414C86.762 35.3754 87.6632 35.5923 88.7092 35.5923C89.4324 35.5923 90.0889 35.4922 90.6786 35.2919C91.2683 35.0916 91.7746 34.7968 92.1974 34.4073C92.6203 34.0179 92.9374 33.5394 93.1488 32.9719L100.643 33.1889C100.331 34.8691 99.6469 36.3323 98.5898 37.5785C97.5439 38.8136 96.1697 39.776 94.4673 40.4659C92.7649 41.1446 90.7955 41.484 88.5589 41.484ZM104.895 41V15.3636H112.656V20.0703H112.939C113.473 18.5125 114.375 17.283 115.643 16.3817C116.912 15.4805 118.425 15.0298 120.183 15.0298C121.963 15.0298 123.488 15.486 124.756 16.3984C126.025 17.3108 126.831 18.5348 127.176 20.0703H127.443C127.922 18.5459 128.856 17.3275 130.247 16.4151C131.638 15.4916 133.279 15.0298 135.171 15.0298C137.597 15.0298 139.566 15.8087 141.079 17.3665C142.593 18.9131 143.349 21.0384 143.349 23.7422V41H135.188V25.6115C135.188 24.3319 134.859 23.3583 134.203 22.6907C133.546 22.012 132.695 21.6726 131.649 21.6726C130.525 21.6726 129.641 22.0398 128.995 22.7741C128.361 23.4974 128.044 24.471 128.044 25.695V41H120.2V25.5281C120.2 24.3375 119.877 23.3973 119.232 22.7074C118.586 22.0175 117.735 21.6726 116.678 21.6726C115.966 21.6726 115.337 21.8451 114.792 22.19C114.247 22.5238 113.818 23.0022 113.507 23.6254C113.206 24.2485 113.056 24.9828 113.056 25.8285V41H104.895ZM152.479 50.6136C151.5 50.6136 150.576 50.5357 149.708 50.38C148.84 50.2353 148.095 50.0406 147.472 49.7958L149.274 43.8707C150.075 44.1378 150.799 44.2936 151.444 44.3381C152.1 44.3826 152.662 44.2769 153.13 44.021C153.608 43.7762 153.975 43.3366 154.231 42.7024L154.548 41.9347L145.435 15.3636H153.981L158.704 33.6562H158.971L163.761 15.3636H172.357L162.693 43.4535C162.226 44.8555 161.564 46.0906 160.707 47.1587C159.861 48.238 158.765 49.0837 157.419 49.6957C156.084 50.3076 154.437 50.6136 152.479 50.6136Z" fill="#130F31"/>
<circle cx="197.5" cy="34.5" r="7.5" fill="#EA4638"/>
<path d="M198.012 30.0545H199.619V36.3443C199.616 36.9209 199.494 37.4174 199.252 37.8338C199.01 38.2473 198.673 38.5661 198.239 38.7903C197.808 39.0116 197.305 39.1223 196.732 39.1223C196.208 39.1223 195.736 39.0291 195.317 38.8428C194.9 38.6535 194.57 38.3739 194.325 38.0041C194.08 37.6343 193.958 37.1742 193.958 36.6239H195.57C195.573 36.8656 195.625 37.0738 195.727 37.2485C195.832 37.4232 195.976 37.5571 196.16 37.6503C196.343 37.7435 196.554 37.7901 196.793 37.7901C197.052 37.7901 197.272 37.7362 197.452 37.6285C197.633 37.5178 197.77 37.3548 197.863 37.1393C197.959 36.9238 198.009 36.6588 198.012 36.3443V30.0545Z" fill="white"/>
</svg>
