<svg width="21" height="17" viewBox="0 0 21 17" fill="none" xmlns="http://www.w3.org/2000/svg">
<path fill-rule="evenodd" clip-rule="evenodd" d="M3.29169 16.8334C2.46289 16.8334 1.66803 16.5042 1.08198 15.9181C0.495927 15.3321 0.166687 14.5372 0.166687 13.7084V3.29175C0.166687 2.46295 0.495927 1.66809 1.08198 1.08204C1.66803 0.495988 2.46289 0.166748 3.29169 0.166748H17.875C18.7038 0.166748 19.4987 0.495988 20.0847 1.08204C20.6708 1.66809 21 2.46295 21 3.29175V13.7084C21 14.5372 20.6708 15.3321 20.0847 15.9181C19.4987 16.5042 18.7038 16.8334 17.875 16.8334H3.29169ZM6.02606 4.56258C5.91995 4.47197 5.79672 4.40361 5.66368 4.36154C5.53064 4.31948 5.39051 4.30457 5.25159 4.3177C5.11268 4.33083 4.97782 4.37174 4.85503 4.43799C4.73223 4.50425 4.62399 4.5945 4.53674 4.70338C4.44949 4.81227 4.38501 4.93758 4.34712 5.07187C4.30922 5.20615 4.2987 5.34669 4.31616 5.48512C4.33363 5.62355 4.37872 5.75707 4.44878 5.87774C4.51884 5.99841 4.61242 6.10377 4.72398 6.18758L8.63023 9.31362C9.18448 9.75738 9.87334 9.99917 10.5834 9.99917C11.2934 9.99917 11.9822 9.75738 12.5365 9.31362L16.4427 6.18862C16.5496 6.10313 16.6385 5.99743 16.7045 5.87755C16.7705 5.75768 16.8122 5.62599 16.8273 5.48999C16.8424 5.35399 16.8305 5.21635 16.7924 5.08493C16.7543 4.9535 16.6907 4.83088 16.6052 4.72404C16.5197 4.6172 16.414 4.52825 16.2942 4.46227C16.1743 4.39628 16.0426 4.35455 15.9066 4.33946C15.7706 4.32437 15.633 4.33622 15.5015 4.37432C15.3701 4.41243 15.2475 4.47604 15.1406 4.56154L11.2344 7.68654C11.0496 7.83446 10.82 7.91506 10.5834 7.91506C10.3467 7.91506 10.1171 7.83446 9.93231 7.68654L6.02606 4.56154V4.56258Z" fill="#F4F0F1"/>
</svg>
