<svg width="142" height="96" viewBox="0 0 142 96" fill="none" xmlns="http://www.w3.org/2000/svg">
<rect x="40.8337" y="33.3247" width="45" height="13" transform="rotate(-22 40.8337 33.3247)" fill="#EA4638"/>
<rect width="133" height="43" transform="translate(2.14978 55.1436) rotate(-22)" fill="#6B6B6B" fill-opacity="0.75"/>
<path d="M35.8834 56.6138L41.8771 71.4488L39.4867 72.4145L28.414 65.1339L28.2909 65.1836L32.3735 75.2885L29.6861 76.3742L23.6924 61.5393L26.0973 60.5677L37.1657 67.8585L37.2961 67.8058L33.2105 57.6937L35.8834 56.6138ZM49.7029 68.5397C48.5874 68.9904 47.5304 69.1479 46.5318 69.012C45.5361 68.8694 44.6482 68.4586 43.8683 67.7794C43.0864 67.0954 42.4603 66.1716 41.9901 65.0077C41.5277 63.8633 41.3392 62.771 41.4246 61.731C41.5128 60.6842 41.8529 59.7604 42.445 58.9594C43.0351 58.1537 43.8613 57.5362 44.9237 57.1069C45.6094 56.8299 46.3014 56.6795 46.9996 56.6558C47.7007 56.6253 48.3781 56.7448 49.0319 57.0144C49.6905 57.2819 50.2984 57.716 50.8557 58.3166C51.411 58.9124 51.8857 59.698 52.2798 60.6735L52.6046 61.4775L43.4849 65.1621L42.7708 63.3947L49.377 60.7256C49.1693 60.2254 48.8801 59.8226 48.5096 59.5173C48.1371 59.2071 47.7143 59.0156 47.2411 58.9428C46.7727 58.868 46.2874 58.9321 45.7852 59.135C45.2492 59.3516 44.831 59.6722 44.5308 60.0968C44.2285 60.5167 44.0488 60.9825 43.9916 61.4943C43.9372 61.9994 44.0081 62.5016 44.2042 63.0009L44.8276 64.5438C45.0891 65.1909 45.4317 65.6985 45.8557 66.0665C46.2776 66.4296 46.7509 66.6485 47.2753 66.7231C47.7978 66.7928 48.344 66.7126 48.9138 66.4824C49.2953 66.3282 49.6192 66.1356 49.8853 65.9045C50.1495 65.6686 50.3521 65.3985 50.4933 65.0943C50.6344 64.7902 50.6995 64.4577 50.6886 64.097L53.2481 63.3831C53.355 64.0926 53.2887 64.7766 53.0492 65.4351C52.8126 66.0868 52.4123 66.6811 51.8484 67.2179C51.2825 67.7499 50.5673 68.1905 49.7029 68.5397ZM59.0174 64.5237L51.3783 54.6676L54.0512 53.5877L59.1678 60.6206L59.2692 60.5796L58.1077 51.9488L60.7516 50.8806L65.894 57.8525L66.0027 57.8086L64.7863 49.2504L67.4664 48.1676L68.8107 60.5669L66.0799 61.6702L60.9559 54.9942L60.8038 55.0557L61.7554 63.4174L59.0174 64.5237ZM78.9681 56.463L72.9744 41.6281L78.6534 39.3336C79.7255 38.9005 80.6847 38.7095 81.5312 38.7608C82.3805 38.8052 83.0985 39.046 83.6851 39.483C84.2766 39.9181 84.7206 40.5027 85.0172 41.2367C85.2611 41.8404 85.3539 42.4039 85.2958 42.9273C85.2357 43.4459 85.0637 43.9171 84.7799 44.3407C84.496 44.7643 84.1361 45.1317 83.7 45.4427L83.7585 45.5875C84.2966 45.4038 84.8666 45.3617 85.4685 45.4612C86.0733 45.5539 86.6376 45.8034 87.1612 46.2097C87.6849 46.6161 88.0989 47.1959 88.4033 47.9492C88.7135 48.717 88.8066 49.4827 88.6826 50.2463C88.5566 51.0049 88.1905 51.7118 87.5844 52.3667C86.9784 53.0216 86.1079 53.5784 84.9731 54.0369L78.9681 56.463ZM80.7482 53.1317L83.6384 51.964C84.6139 51.5699 85.2414 51.1001 85.521 50.5546C85.8034 50.0023 85.8256 49.4316 85.5876 48.8425C85.41 48.403 85.1414 48.051 84.7817 47.7862C84.42 47.5167 83.9978 47.3615 83.515 47.3206C83.0303 47.2749 82.5103 47.3642 81.9549 47.5886L78.9923 48.7856L80.7482 53.1317ZM78.2109 46.8515L80.8693 45.7774C81.3329 45.5901 81.7164 45.3369 82.02 45.0176C82.3216 44.6935 82.5152 44.3316 82.6009 43.9319C82.6894 43.5254 82.6459 43.1048 82.4703 42.6702C82.2381 42.0955 81.8441 41.7042 81.2882 41.4963C80.7372 41.2864 80.0657 41.3414 79.2737 41.6614L76.5573 42.7589L78.2109 46.8515ZM88.8868 35.1991L94.8805 50.034L92.2583 51.0934L86.2646 36.2585L88.8868 35.1991ZM102.518 47.201C101.431 47.64 100.393 47.7815 99.4032 47.6253C98.4133 47.4691 97.5249 47.0501 96.7382 46.368C95.9563 45.6841 95.3332 44.7674 94.8688 43.6181C94.4045 42.4688 94.215 41.3741 94.3003 40.3341C94.3905 39.2921 94.7375 38.3712 95.3411 37.5712C95.9448 36.7711 96.7898 36.1516 97.8764 35.7127C98.9629 35.2737 100.001 35.1322 100.991 35.2884C101.981 35.4445 102.868 35.867 103.652 36.5558C104.441 37.2427 105.067 38.1608 105.531 39.3101C105.996 40.4594 106.182 41.5526 106.09 42.5898C106.002 43.6249 105.657 44.5425 105.053 45.3425C104.45 46.1425 103.605 46.762 102.518 47.201ZM101.684 45.0945C102.273 44.8565 102.7 44.4957 102.965 44.0122C103.229 43.5238 103.346 42.9654 103.316 42.3368C103.292 41.7063 103.143 41.053 102.87 40.3769C102.595 39.696 102.247 39.1203 101.827 38.6498C101.409 38.1725 100.936 37.8496 100.408 37.6813C99.8789 37.5129 99.32 37.5477 98.7308 37.7857C98.1272 38.0296 97.6913 38.3967 97.4231 38.887C97.1598 39.3754 97.0414 39.9372 97.0678 40.5726C97.097 41.2011 97.2492 41.8559 97.5243 42.5368C97.7974 43.2128 98.1418 43.7871 98.5574 44.2596C98.9778 44.7301 99.4524 45.0496 99.981 45.2179C100.513 45.3796 101.08 45.3384 101.684 45.0945ZM116.605 46.3797C115.664 46.7601 114.803 46.959 114.024 46.9762C113.246 46.9982 112.566 46.8797 111.984 46.6206C111.402 46.3615 110.927 46.0057 110.559 45.5534L112.689 44.0271C112.883 44.2015 113.124 44.3539 113.413 44.4845C113.703 44.6198 114.048 44.6883 114.448 44.6898C114.854 44.6942 115.32 44.59 115.847 44.3774C116.59 44.0769 117.133 43.6471 117.474 43.0878C117.818 42.5334 117.824 41.8457 117.492 41.0248L116.64 38.9169L116.51 38.9696C116.484 39.2946 116.398 39.6523 116.252 40.0426C116.112 40.4309 115.868 40.8075 115.521 41.1723C115.179 41.5352 114.689 41.8455 114.052 42.103C113.197 42.4484 112.341 42.5611 111.483 42.4412C110.629 42.3146 109.835 41.9334 109.1 41.2976C108.369 40.655 107.758 39.7277 107.268 38.5156C106.775 37.2938 106.561 36.1809 106.627 35.1767C106.696 34.1658 106.991 33.3026 107.511 32.587C108.028 31.8666 108.715 31.3337 109.569 30.9884C110.221 30.725 110.802 30.6195 111.312 30.6719C111.825 30.7175 112.269 30.8441 112.645 31.0517C113.019 31.2545 113.326 31.4647 113.566 31.6825L113.711 31.624L112.967 29.7841L115.553 28.7393L120.122 40.0466C120.506 40.9979 120.597 41.8767 120.395 42.6831C120.193 43.4894 119.76 44.2062 119.098 44.8332C118.436 45.4603 117.605 45.9758 116.605 46.3797ZM113.952 39.7502C114.507 39.5259 114.926 39.1994 115.208 38.771C115.49 38.3425 115.63 37.8338 115.628 37.2448C115.626 36.6558 115.481 36.0063 115.194 35.2965C114.911 34.5963 114.562 34.0239 114.147 33.5795C113.736 33.1331 113.277 32.8441 112.768 32.7124C112.263 32.5739 111.728 32.6188 111.163 32.8471C110.579 33.0831 110.152 33.4323 109.884 33.8946C109.616 34.3569 109.49 34.8936 109.507 35.5048C109.521 36.1111 109.664 36.7499 109.936 37.4212C110.211 38.1021 110.551 38.6585 110.955 39.0904C111.363 39.5155 111.82 39.7915 112.326 39.9184C112.835 40.0385 113.377 39.9824 113.952 39.7502Z" fill="white"/>
</svg>
