<svg width="25" height="25" viewBox="0 0 25 25" fill="none" xmlns="http://www.w3.org/2000/svg">
<path opacity="0.5" d="M2.08331 12.5001C2.08331 14.2084 2.52602 14.7824 3.41144 15.9334C5.17915 18.2292 8.14373 20.8334 12.5 20.8334C16.8562 20.8334 19.8208 18.2292 21.5885 15.9334C22.4739 14.7834 22.9166 14.2074 22.9166 12.5001C22.9166 10.7917 22.4739 10.2178 21.5885 9.06675C19.8208 6.77092 16.8562 4.16675 12.5 4.16675C8.14373 4.16675 5.17915 6.77092 3.41144 9.06675C2.52602 10.2188 2.08331 10.7928 2.08331 12.5001Z" fill="#F4F0F1"/>
<path fill-rule="evenodd" clip-rule="evenodd" d="M8.59375 12.5C8.59375 11.464 9.0053 10.4704 9.73786 9.73786C10.4704 9.0053 11.464 8.59375 12.5 8.59375C13.536 8.59375 14.5296 9.0053 15.2621 9.73786C15.9947 10.4704 16.4062 11.464 16.4062 12.5C16.4062 13.536 15.9947 14.5296 15.2621 15.2621C14.5296 15.9947 13.536 16.4062 12.5 16.4062C11.464 16.4062 10.4704 15.9947 9.73786 15.2621C9.0053 14.5296 8.59375 13.536 8.59375 12.5ZM10.1562 12.5C10.1562 11.8784 10.4032 11.2823 10.8427 10.8427C11.2823 10.4032 11.8784 10.1562 12.5 10.1562C13.1216 10.1562 13.7177 10.4032 14.1573 10.8427C14.5968 11.2823 14.8438 11.8784 14.8438 12.5C14.8438 13.1216 14.5968 13.7177 14.1573 14.1573C13.7177 14.5968 13.1216 14.8438 12.5 14.8438C11.8784 14.8438 11.2823 14.5968 10.8427 14.1573C10.4032 13.7177 10.1562 13.1216 10.1562 12.5Z" fill="#F4F0F1"/>
</svg>
