<svg width="25" height="25" viewBox="0 0 25 25" fill="none" xmlns="http://www.w3.org/2000/svg">
<path d="M20.8333 3.125C21.3859 3.125 21.9158 3.34449 22.3065 3.73519C22.6972 4.1259 22.9167 4.6558 22.9167 5.20833V19.7917C22.9167 20.3442 22.6972 20.8741 22.3065 21.2648C21.9158 21.6555 21.3859 21.875 20.8333 21.875H4.16667C3.61413 21.875 3.08423 21.6555 2.69353 21.2648C2.30283 20.8741 2.08333 20.3442 2.08333 19.7917V5.20833C2.08333 4.6558 2.30283 4.1259 2.69353 3.73519C3.08423 3.34449 3.61413 3.125 4.16667 3.125H20.8333ZM17.7083 15.625H7.29167C7.0154 15.625 6.75045 15.7347 6.5551 15.9301C6.35975 16.1254 6.25 16.3904 6.25 16.6667C6.25 16.9429 6.35975 17.2079 6.5551 17.4032C6.75045 17.5986 7.0154 17.7083 7.29167 17.7083H17.7083C17.9846 17.7083 18.2496 17.5986 18.4449 17.4032C18.6403 17.2079 18.75 16.9429 18.75 16.6667C18.75 16.3904 18.6403 16.1254 18.4449 15.9301C18.2496 15.7347 17.9846 15.625 17.7083 15.625ZM10.4167 7.29167H8.33333C7.80773 7.2915 7.30149 7.49001 6.9161 7.84739C6.5307 8.20478 6.29463 8.69463 6.25521 9.21875L6.25 9.375V11.4583C6.24983 11.9839 6.44834 12.4902 6.80573 12.8756C7.16311 13.261 7.65296 13.497 8.17708 13.5365L8.33333 13.5417H10.4167C10.9423 13.5418 11.4485 13.3433 11.8339 12.9859C12.2193 12.6286 12.4554 12.1387 12.4948 11.6146L12.5 11.4583V9.375C12.5002 8.8494 12.3017 8.34316 11.9443 7.95776C11.5869 7.57237 11.097 7.3363 10.5729 7.29688L10.4167 7.29167ZM17.7083 11.4583H14.5833C14.3178 11.4586 14.0625 11.5603 13.8694 11.7425C13.6763 11.9248 13.5602 12.1739 13.5446 12.439C13.5291 12.704 13.6153 12.965 13.7857 13.1686C13.9561 13.3722 14.1978 13.503 14.4615 13.5344L14.5833 13.5417H17.7083C17.9738 13.5414 18.2292 13.4397 18.4223 13.2575C18.6153 13.0752 18.7315 12.8261 18.7471 12.561C18.7626 12.296 18.6764 12.035 18.506 11.8314C18.3356 11.6278 18.0939 11.497 17.8302 11.4656L17.7083 11.4583ZM10.4167 9.375V11.4583H8.33333V9.375H10.4167ZM17.7083 7.29167H14.5833C14.3071 7.29167 14.0421 7.40141 13.8468 7.59676C13.6514 7.79211 13.5417 8.05707 13.5417 8.33333C13.5417 8.6096 13.6514 8.87455 13.8468 9.0699C14.0421 9.26525 14.3071 9.375 14.5833 9.375H17.7083C17.9846 9.375 18.2496 9.26525 18.4449 9.0699C18.6403 8.87455 18.75 8.6096 18.75 8.33333C18.75 8.05707 18.6403 7.79211 18.4449 7.59676C18.2496 7.40141 17.9846 7.29167 17.7083 7.29167Z" fill="#F4F0F1"/>
</svg>
