<svg width="52" height="48" viewBox="0 0 52 48" fill="none" xmlns="http://www.w3.org/2000/svg">
<path d="M13.1057 16.917C6.98939 18.4942 3 21.1963 3 24.2811C3 29.1681 13.217 33.1529 25.8462 33.1529C27.5626 33.1529 28.7687 33.0624 30.3691 32.9279M21.1772 32.9209C20.2193 31.5386 19.3078 30.293 18.4403 28.746C12.0596 17.3809 10.3502 6.08533 14.6597 3.52702C17.327 1.91039 21.7269 4.11383 26.1964 8.75498M13.2727 31.7311C11.6444 37.9656 11.9738 42.6694 14.5715 44.2443C18.7071 46.7493 27.0662 39.7029 33.2266 28.463C34.0616 26.909 34.8107 25.3805 35.4718 23.8752M26.1941 38.9978C30.6659 43.6366 35.0473 45.8401 37.7402 44.2234C42.0311 41.6674 40.3402 30.3719 33.9526 19.0045C33.0619 17.4342 32.1504 16.2119 31.2156 14.8295M39.322 30.8335C45.3803 29.24 49.3882 26.5425 49.3882 23.467C49.3882 18.573 39.1643 14.5976 26.5536 14.5976C24.821 14.5976 23.6173 14.6648 22.0192 14.7994M16.9165 23.8752C17.5775 22.3444 18.3244 20.8414 19.1617 19.2874C25.3011 8.0522 33.6649 0.987267 37.8236 3.51311C40.3982 5.08799 40.7507 9.78943 39.1225 16.0217M26.7972 23.91H26.774C26.7508 24.2115 26.4956 24.4667 26.1709 24.4667C26.0156 24.459 25.8691 24.3923 25.7613 24.2802C25.6536 24.1681 25.5927 24.0191 25.5911 23.8636C25.5911 23.5389 25.8462 23.2838 26.1477 23.2838H26.1245C26.4261 23.2606 26.7044 23.5389 26.7044 23.8404" stroke="#61DAFB" stroke-width="4.63882" stroke-linecap="round" stroke-linejoin="round"/>
</svg>
