<svg width="703" height="612" viewBox="0 0 703 612" fill="none" xmlns="http://www.w3.org/2000/svg">
<g clip-path="url(#clip0_58_64)">
<path d="M633.342 318.406C633.434 394.113 604.171 466.908 551.705 521.488C548.542 524.799 545.293 528.031 541.96 531.183C536.88 536.015 531.631 540.659 526.21 545.116C475.504 586.892 412.202 610.368 346.517 611.755C344.329 611.805 342.132 611.83 339.927 611.83C287.542 611.83 221.654 583.849 161.861 545.116C156.914 541.911 152.011 538.633 147.152 535.28C144.881 533.727 142.621 532.152 140.372 530.556C117.31 514.272 95.4204 496.389 74.8635 477.039C61.4042 464.408 48.7829 450.912 37.08 436.638C-8.86324 379.966 -18.9967 328.903 46.5031 318.406C54.2581 317.167 61.7845 315.843 69.0825 314.433C79.6536 312.402 89.7706 310.208 99.4332 307.851C112.449 304.688 124.677 301.258 136.118 297.561C139.967 296.322 143.727 295.059 147.4 293.77C201.693 274.701 238.031 249.834 262.766 222.853C266.961 218.286 270.829 213.663 274.369 208.986C279.786 201.867 284.706 194.384 289.094 186.589C295.152 175.758 300.24 164.413 304.299 152.687L304.522 152.042C324.202 95.2721 318.215 42.6146 339.927 24.9905C432.738 -50.3537 548.286 56.9434 602.521 183.475C605.254 189.851 607.826 196.265 610.234 202.718C611.316 205.6 612.36 208.488 613.364 211.381C616.007 218.921 618.405 226.481 620.558 234.06C621.384 236.95 622.171 239.838 622.92 242.723C623.721 245.837 624.489 248.942 625.199 252.047C630.476 274.783 633.342 297.206 633.342 318.406Z" fill="#F2F2F2"/>
<path d="M346.517 611.755C344.329 611.805 342.132 611.83 339.927 611.83C287.542 611.83 221.654 583.849 161.861 545.116C156.914 541.911 152.011 538.633 147.152 535.28L151.414 509.347L280.423 492.219L345.171 541.73L346.517 611.755Z" fill="#2F2E41"/>
<path d="M352.728 148.698H334.344C333.775 148.698 333.229 148.924 332.826 149.327C332.423 149.73 332.197 150.276 332.197 150.845V169.237C332.197 169.519 332.253 169.797 332.361 170.057C332.469 170.317 332.627 170.553 332.827 170.752C333.026 170.951 333.263 171.108 333.523 171.215C333.783 171.322 334.062 171.377 334.344 171.376H352.728C353.296 171.376 353.841 171.151 354.244 170.75C354.646 170.349 354.873 169.805 354.875 169.237V150.845C354.873 150.276 354.647 149.731 354.244 149.328C353.842 148.926 353.297 148.699 352.728 148.698Z" fill="white"/>
<path d="M352.728 180.039H334.344C333.775 180.04 333.229 180.266 332.826 180.669C332.423 181.071 332.197 181.617 332.197 182.187V200.579C332.197 200.86 332.253 201.139 332.361 201.399C332.469 201.659 332.627 201.895 332.827 202.093C333.026 202.292 333.263 202.45 333.523 202.557C333.783 202.664 334.062 202.719 334.344 202.718H352.728C353.296 202.718 353.841 202.493 354.244 202.092C354.646 201.691 354.873 201.147 354.875 200.579V182.187C354.873 181.618 354.647 181.072 354.244 180.67C353.842 180.268 353.297 180.041 352.728 180.039Z" fill="#E6E6E6"/>
<path d="M352.728 211.381H334.344C333.775 211.382 333.228 211.608 332.826 212.011C332.423 212.413 332.197 212.959 332.197 213.529V231.913C332.196 232.195 332.251 232.474 332.359 232.735C332.467 232.996 332.625 233.233 332.824 233.432C333.024 233.632 333.261 233.79 333.522 233.897C333.782 234.005 334.062 234.06 334.344 234.06H352.728C353.297 234.059 353.843 233.833 354.246 233.431C354.649 233.028 354.875 232.482 354.875 231.913V213.529C354.873 212.96 354.647 212.414 354.244 212.012C353.842 211.61 353.297 211.383 352.728 211.381Z" fill="#E6E6E6"/>
<path d="M354.842 244.49C354.75 243.996 354.489 243.549 354.103 243.226C353.717 242.903 353.231 242.725 352.728 242.723H334.344C333.775 242.723 333.229 242.95 332.826 243.352C332.423 243.755 332.197 244.301 332.197 244.87V263.254C332.196 263.536 332.251 263.816 332.359 264.077C332.467 264.337 332.625 264.574 332.824 264.774C333.024 264.973 333.261 265.131 333.522 265.239C333.782 265.347 334.062 265.402 334.344 265.401H352.728C353.297 265.401 353.843 265.175 354.246 264.772C354.649 264.37 354.875 263.824 354.875 263.254V244.87C354.877 244.743 354.866 244.616 354.842 244.49Z" fill="#E6E6E6"/>
<path d="M353.562 274.23C353.298 274.121 353.014 274.065 352.728 274.065H334.344C334.062 274.064 333.782 274.12 333.522 274.227C333.261 274.335 333.024 274.493 332.824 274.693C332.625 274.892 332.467 275.129 332.359 275.39C332.251 275.651 332.196 275.93 332.197 276.212V294.596C332.196 294.878 332.25 295.158 332.358 295.419C332.465 295.68 332.623 295.918 332.823 296.117C333.023 296.317 333.26 296.475 333.521 296.583C333.782 296.69 334.062 296.745 334.344 296.743H352.728C353.297 296.743 353.843 296.517 354.246 296.114C354.649 295.712 354.875 295.166 354.875 294.596V276.212C354.874 275.79 354.749 275.377 354.516 275.024C354.282 274.672 353.951 274.396 353.562 274.23Z" fill="#E6E6E6"/>
<path d="M391.346 148.698H372.962C372.392 148.698 371.846 148.924 371.444 149.327C371.041 149.73 370.815 150.276 370.815 150.845V169.237C370.815 169.519 370.871 169.797 370.979 170.057C371.087 170.317 371.245 170.553 371.445 170.752C371.644 170.951 371.881 171.108 372.141 171.215C372.401 171.322 372.68 171.377 372.962 171.376H391.346C391.914 171.376 392.459 171.151 392.861 170.75C393.264 170.349 393.491 169.805 393.493 169.237V150.845C393.491 150.276 393.264 149.731 392.862 149.328C392.46 148.926 391.915 148.699 391.346 148.698Z" fill="#E6E6E6"/>
<path d="M391.346 180.039H372.962C372.392 180.04 371.846 180.266 371.444 180.669C371.041 181.071 370.815 181.617 370.815 182.187V200.579C370.815 200.86 370.871 201.139 370.979 201.399C371.087 201.659 371.245 201.895 371.445 202.093C371.644 202.292 371.881 202.45 372.141 202.557C372.401 202.664 372.68 202.719 372.962 202.718H391.346C391.914 202.718 392.459 202.493 392.861 202.092C393.264 201.691 393.491 201.147 393.493 200.579V182.187C393.491 181.618 393.264 181.072 392.862 180.67C392.46 180.268 391.915 180.041 391.346 180.039Z" fill="#EA4638"/>
<path d="M391.346 211.381H372.962C372.392 211.382 371.846 211.608 371.444 212.011C371.041 212.413 370.815 212.959 370.815 213.529V231.913C370.814 232.195 370.869 232.474 370.977 232.735C371.085 232.996 371.243 233.233 371.442 233.432C371.642 233.632 371.879 233.79 372.139 233.897C372.4 234.005 372.68 234.06 372.962 234.06H391.346C391.915 234.059 392.461 233.833 392.864 233.431C393.266 233.028 393.493 232.482 393.493 231.913V213.529C393.491 212.96 393.264 212.414 392.862 212.012C392.46 211.61 391.915 211.383 391.346 211.381Z" fill="#EA4638"/>
<path d="M391.346 242.723H372.962C372.511 242.723 372.073 242.865 371.708 243.129C371.343 243.393 371.071 243.765 370.93 244.193C370.854 244.411 370.815 244.64 370.815 244.87V263.254C370.814 263.536 370.869 263.816 370.977 264.076C371.084 264.337 371.243 264.574 371.442 264.774C371.642 264.973 371.879 265.131 372.139 265.239C372.4 265.347 372.68 265.402 372.962 265.401H391.346C391.915 265.401 392.461 265.175 392.864 264.772C393.266 264.37 393.493 263.824 393.493 263.254V244.87C393.491 244.301 393.264 243.756 392.862 243.354C392.46 242.951 391.915 242.725 391.346 242.723Z" fill="#EA4638"/>
<path d="M391.346 274.065H372.962C372.68 274.064 372.4 274.12 372.139 274.227C371.879 274.335 371.642 274.493 371.442 274.693C371.243 274.892 371.085 275.129 370.977 275.39C370.869 275.651 370.814 275.93 370.815 276.212V294.596C370.814 294.878 370.869 295.158 370.977 295.418C371.085 295.679 371.243 295.916 371.442 296.116C371.642 296.315 371.879 296.473 372.139 296.581C372.4 296.689 372.68 296.744 372.962 296.743H391.346C391.915 296.743 392.461 296.517 392.864 296.114C393.266 295.712 393.493 295.166 393.493 294.596V276.212C393.493 275.643 393.266 275.097 392.864 274.694C392.461 274.291 391.915 274.065 391.346 274.065Z" fill="#E6E6E6"/>
<path d="M429.963 148.698H411.579C411.01 148.698 410.464 148.924 410.061 149.327C409.659 149.73 409.433 150.276 409.432 150.845V169.237C409.433 169.519 409.488 169.797 409.596 170.057C409.705 170.317 409.863 170.553 410.062 170.752C410.262 170.951 410.498 171.108 410.759 171.215C411.019 171.322 411.298 171.377 411.579 171.376H429.963C430.531 171.376 431.076 171.151 431.479 170.75C431.882 170.349 432.109 169.805 432.111 169.237V150.845C432.109 150.276 431.882 149.731 431.48 149.328C431.077 148.926 430.532 148.699 429.963 148.698Z" fill="#EA4638"/>
<path d="M429.963 180.039H411.579C411.01 180.04 410.464 180.266 410.061 180.669C409.659 181.071 409.433 181.617 409.432 182.187V200.579C409.433 200.86 409.488 201.139 409.596 201.399C409.705 201.659 409.863 201.895 410.062 202.093C410.262 202.292 410.498 202.45 410.759 202.557C411.019 202.664 411.298 202.719 411.579 202.718H429.963C430.531 202.718 431.076 202.493 431.479 202.092C431.882 201.691 432.109 201.147 432.111 200.579V182.187C432.109 181.618 431.882 181.072 431.48 180.67C431.078 180.268 430.532 180.041 429.963 180.039Z" fill="#EA4638"/>
<path d="M429.963 211.381H411.579C411.01 211.382 410.464 211.608 410.061 212.011C409.659 212.413 409.433 212.959 409.432 213.529V231.913C409.432 232.195 409.487 232.474 409.595 232.735C409.702 232.996 409.86 233.233 410.06 233.432C410.259 233.632 410.496 233.79 410.757 233.897C411.018 234.005 411.297 234.06 411.579 234.06H429.963C430.533 234.059 431.079 233.833 431.481 233.431C431.884 233.028 432.11 232.482 432.111 231.913V213.529C432.109 212.96 431.882 212.414 431.48 212.012C431.078 211.61 430.532 211.383 429.963 211.381Z" fill="#E6E6E6"/>
<path d="M429.963 242.723H411.579C411.01 242.723 410.464 242.95 410.061 243.352C409.659 243.755 409.433 244.301 409.432 244.87V263.254C409.432 263.536 409.487 263.816 409.595 264.077C409.702 264.337 409.86 264.574 410.06 264.774C410.259 264.973 410.496 265.131 410.757 265.239C411.018 265.347 411.297 265.402 411.579 265.401H429.963C430.533 265.401 431.079 265.175 431.481 264.772C431.884 264.37 432.11 263.824 432.111 263.254V244.87C432.109 244.301 431.882 243.756 431.48 243.354C431.078 242.951 430.532 242.725 429.963 242.723Z" fill="#EA4638"/>
<path d="M429.963 274.065H411.579C411.297 274.064 411.018 274.12 410.757 274.227C410.496 274.335 410.259 274.493 410.06 274.693C409.86 274.892 409.702 275.129 409.595 275.39C409.487 275.651 409.432 275.93 409.432 276.212V294.596C409.432 294.878 409.487 295.158 409.595 295.418C409.702 295.679 409.86 295.916 410.06 296.116C410.259 296.315 410.496 296.473 410.757 296.581C411.018 296.689 411.297 296.744 411.579 296.743H429.963C430.533 296.743 431.079 296.517 431.481 296.114C431.884 295.712 432.11 295.166 432.111 294.596V276.212C432.11 275.643 431.884 275.097 431.481 274.694C431.079 274.291 430.533 274.065 429.963 274.065Z" fill="#EA4638"/>
<path d="M468.581 148.698H450.197C449.628 148.698 449.082 148.924 448.679 149.327C448.276 149.73 448.05 150.276 448.05 150.845V169.237C448.05 169.519 448.106 169.797 448.214 170.057C448.322 170.317 448.48 170.553 448.68 170.752C448.879 170.951 449.116 171.108 449.376 171.215C449.637 171.322 449.916 171.377 450.197 171.376H468.581C469.149 171.376 469.694 171.151 470.097 170.75C470.499 170.349 470.726 169.805 470.728 169.237V150.845C470.727 150.276 470.5 149.731 470.098 149.328C469.695 148.926 469.15 148.699 468.581 148.698Z" fill="#EA4638"/>
<path d="M468.581 180.039H450.197C449.628 180.04 449.082 180.266 448.679 180.669C448.276 181.071 448.05 181.617 448.05 182.187V200.579C448.05 200.86 448.106 201.139 448.214 201.399C448.322 201.659 448.48 201.895 448.68 202.093C448.879 202.292 449.116 202.45 449.376 202.557C449.637 202.664 449.916 202.719 450.197 202.718H468.581C469.149 202.718 469.694 202.493 470.097 202.092C470.499 201.691 470.726 201.147 470.728 200.579V182.187C470.727 181.618 470.5 181.072 470.098 180.67C469.695 180.268 469.15 180.041 468.581 180.039Z" fill="white"/>
<path d="M468.581 211.381H450.197C449.628 211.382 449.082 211.608 448.679 212.011C448.276 212.413 448.05 212.959 448.05 213.529V231.913C448.049 232.195 448.104 232.474 448.212 232.735C448.32 232.996 448.478 233.233 448.678 233.432C448.877 233.632 449.114 233.79 449.375 233.897C449.635 234.005 449.915 234.06 450.197 234.06H468.581C469.15 234.059 469.696 233.833 470.099 233.431C470.502 233.028 470.728 232.482 470.728 231.913V213.529C470.727 212.96 470.5 212.414 470.098 212.012C469.695 211.61 469.15 211.383 468.581 211.381Z" fill="white"/>
<path d="M468.581 242.723H450.197C449.628 242.723 449.082 242.95 448.679 243.352C448.276 243.755 448.05 244.301 448.05 244.87V263.254C448.049 263.536 448.104 263.816 448.212 264.077C448.32 264.337 448.478 264.574 448.678 264.774C448.877 264.973 449.114 265.131 449.375 265.239C449.635 265.347 449.915 265.402 450.197 265.401H468.581C469.15 265.401 469.696 265.175 470.099 264.772C470.502 264.37 470.728 263.824 470.728 263.254V244.87C470.727 244.301 470.5 243.756 470.098 243.354C469.695 242.951 469.15 242.725 468.581 242.723Z" fill="#E6E6E6"/>
<path d="M468.581 274.065H450.197C449.915 274.064 449.635 274.12 449.375 274.227C449.114 274.335 448.877 274.493 448.678 274.693C448.478 274.892 448.32 275.129 448.212 275.39C448.104 275.651 448.049 275.93 448.05 276.212V294.596C448.049 294.878 448.104 295.158 448.212 295.418C448.32 295.679 448.478 295.916 448.678 296.116C448.877 296.315 449.114 296.473 449.375 296.581C449.635 296.689 449.915 296.744 450.197 296.743H468.581C469.15 296.743 469.696 296.517 470.099 296.114C470.502 295.712 470.728 295.166 470.728 294.596V276.212C470.728 275.643 470.502 275.097 470.099 274.694C469.696 274.291 469.15 274.065 468.581 274.065Z" fill="#EA4638"/>
<path d="M507.199 148.698H488.807C488.238 148.7 487.694 148.927 487.293 149.329C486.892 149.732 486.667 150.277 486.667 150.845V169.237C486.668 169.804 486.893 170.348 487.294 170.749C487.695 171.151 488.239 171.376 488.807 171.376H507.199C507.767 171.376 508.312 171.151 508.714 170.75C509.117 170.349 509.344 169.805 509.346 169.237V150.845C509.344 150.276 509.118 149.731 508.715 149.328C508.313 148.926 507.768 148.699 507.199 148.698Z" fill="white"/>
<path d="M507.199 180.039H488.807C488.238 180.041 487.694 180.268 487.293 180.671C486.892 181.073 486.667 181.618 486.667 182.187V200.579C486.668 201.146 486.893 201.69 487.294 202.091C487.695 202.492 488.239 202.718 488.807 202.718H507.199C507.767 202.718 508.312 202.493 508.714 202.092C509.117 201.691 509.344 201.147 509.346 200.579V182.187C509.344 181.618 509.118 181.072 508.715 180.67C508.313 180.268 507.768 180.041 507.199 180.039Z" fill="white"/>
<path d="M507.199 211.381H488.807C488.238 211.383 487.694 211.61 487.293 212.013C486.892 212.416 486.667 212.961 486.667 213.529V231.913C486.667 232.194 486.721 232.473 486.829 232.733C486.936 232.994 487.093 233.23 487.292 233.43C487.49 233.629 487.726 233.787 487.986 233.896C488.246 234.004 488.525 234.059 488.807 234.06H507.199C507.768 234.059 508.314 233.833 508.717 233.431C509.119 233.028 509.346 232.482 509.346 231.913V213.529C509.344 212.96 509.118 212.414 508.715 212.012C508.313 211.61 507.768 211.383 507.199 211.381Z" fill="white"/>
<path d="M507.199 242.723H488.807C488.238 242.725 487.694 242.952 487.293 243.355C486.892 243.757 486.667 244.302 486.667 244.87V263.254C486.667 263.536 486.721 263.815 486.829 264.075C486.936 264.335 487.093 264.572 487.292 264.771C487.49 264.971 487.726 265.129 487.986 265.237C488.246 265.345 488.525 265.401 488.807 265.401H507.199C507.768 265.401 508.314 265.175 508.717 264.772C509.119 264.37 509.346 263.824 509.346 263.254V244.87C509.344 244.301 509.118 243.756 508.715 243.354C508.313 242.951 507.768 242.725 507.199 242.723Z" fill="#EA4638"/>
<path d="M507.199 274.065H488.807C488.525 274.065 488.246 274.121 487.986 274.229C487.726 274.337 487.49 274.496 487.292 274.695C487.093 274.894 486.936 275.131 486.829 275.391C486.721 275.652 486.667 275.931 486.667 276.212V294.596C486.667 294.878 486.721 295.157 486.829 295.417C486.936 295.677 487.093 295.914 487.292 296.113C487.49 296.313 487.726 296.471 487.986 296.579C488.246 296.687 488.525 296.743 488.807 296.743H507.199C507.768 296.743 508.314 296.517 508.717 296.114C509.119 295.712 509.346 295.166 509.346 294.596V276.212C509.346 275.643 509.119 275.097 508.717 274.694C508.314 274.291 507.768 274.065 507.199 274.065Z" fill="#E6E6E6"/>
<path d="M545.816 148.698H527.424C526.856 148.7 526.312 148.927 525.911 149.329C525.51 149.732 525.285 150.277 525.285 150.845V169.237C525.285 169.804 525.511 170.348 525.912 170.749C526.313 171.151 526.857 171.376 527.424 171.376H545.816C546.385 171.376 546.93 171.151 547.332 170.75C547.735 170.349 547.962 169.805 547.964 169.237V150.845C547.962 150.276 547.735 149.731 547.333 149.328C546.931 148.926 546.385 148.699 545.816 148.698Z" fill="white"/>
<path d="M545.816 180.039H527.424C526.856 180.041 526.312 180.268 525.911 180.671C525.51 181.073 525.285 181.618 525.285 182.187V200.579C525.285 201.146 525.511 201.69 525.912 202.091C526.313 202.492 526.857 202.718 527.424 202.718H545.816C546.385 202.718 546.93 202.493 547.332 202.092C547.735 201.691 547.962 201.147 547.964 200.579V182.187C547.962 181.618 547.735 181.072 547.333 180.67C546.931 180.268 546.385 180.041 545.816 180.039Z" fill="white"/>
<path d="M545.816 211.381H527.424C526.856 211.383 526.312 211.61 525.911 212.013C525.51 212.416 525.285 212.961 525.285 213.529V231.913C525.285 232.194 525.339 232.473 525.446 232.733C525.554 232.994 525.711 233.23 525.91 233.43C526.108 233.629 526.344 233.787 526.604 233.896C526.864 234.004 527.143 234.059 527.424 234.06H545.816C546.386 234.059 546.932 233.833 547.334 233.431C547.737 233.028 547.964 232.482 547.964 231.913V213.529C547.962 212.96 547.735 212.414 547.333 212.012C546.931 211.61 546.385 211.383 545.816 211.381Z" fill="#EA4638"/>
<path d="M545.816 242.723H527.424C526.856 242.725 526.312 242.952 525.911 243.355C525.51 243.757 525.285 244.302 525.285 244.87V263.254C525.284 263.536 525.339 263.815 525.446 264.075C525.553 264.335 525.711 264.572 525.91 264.771C526.108 264.971 526.344 265.129 526.604 265.237C526.864 265.345 527.143 265.401 527.424 265.401H545.816C546.386 265.401 546.932 265.175 547.335 264.772C547.737 264.37 547.964 263.824 547.964 263.254V244.87C547.962 244.301 547.735 243.756 547.333 243.354C546.931 242.951 546.385 242.725 545.816 242.723Z" fill="#E6E6E6"/>
<path d="M545.816 274.065H527.424C527.143 274.065 526.864 274.121 526.604 274.229C526.344 274.337 526.108 274.496 525.91 274.695C525.711 274.894 525.553 275.131 525.446 275.391C525.339 275.652 525.284 275.931 525.285 276.212V294.596C525.284 294.878 525.339 295.157 525.446 295.417C525.553 295.677 525.711 295.914 525.91 296.113C526.108 296.313 526.344 296.471 526.604 296.579C526.864 296.687 527.143 296.743 527.424 296.743H545.816C546.386 296.743 546.932 296.517 547.335 296.114C547.737 295.712 547.964 295.166 547.964 294.596V276.212C547.964 275.643 547.737 275.097 547.335 274.694C546.932 274.292 546.386 274.065 545.816 274.065Z" fill="white"/>
<path d="M584.434 148.698H566.042C565.474 148.7 564.93 148.927 564.529 149.329C564.128 149.732 563.903 150.277 563.903 150.845V169.237C563.903 169.804 564.129 170.348 564.53 170.749C564.931 171.151 565.475 171.376 566.042 171.376H584.434C585.002 171.376 585.547 171.151 585.95 170.75C586.352 170.349 586.579 169.805 586.581 169.237V150.845C586.58 150.276 586.353 149.731 585.951 149.328C585.548 148.926 585.003 148.699 584.434 148.698Z" fill="#EA4638"/>
<path d="M584.434 180.039H566.042C565.474 180.041 564.93 180.268 564.529 180.671C564.128 181.073 563.903 181.618 563.903 182.187V200.579C563.903 201.146 564.129 201.69 564.53 202.091C564.931 202.492 565.475 202.718 566.042 202.718H584.434C585.002 202.718 585.547 202.493 585.95 202.092C586.352 201.691 586.579 201.147 586.581 200.579V182.187C586.58 181.618 586.353 181.072 585.951 180.67C585.548 180.268 585.003 180.041 584.434 180.039Z" fill="#EA4638"/>
<path d="M584.434 211.381H566.042C565.474 211.383 564.93 211.61 564.529 212.013C564.128 212.416 563.903 212.961 563.903 213.529V231.913C563.902 232.194 563.957 232.473 564.064 232.733C564.171 232.994 564.329 233.23 564.527 233.43C564.726 233.629 564.962 233.787 565.222 233.896C565.482 234.004 565.761 234.059 566.042 234.06H584.434C585.004 234.059 585.55 233.833 585.952 233.431C586.355 233.028 586.581 232.482 586.582 231.913V213.529C586.58 212.96 586.353 212.414 585.951 212.012C585.548 211.61 585.003 211.383 584.434 211.381Z" fill="#E6E6E6"/>
<path d="M584.434 242.723H566.042C565.474 242.725 564.93 242.952 564.529 243.355C564.128 243.757 563.903 244.302 563.903 244.87V263.254C563.902 263.536 563.957 263.815 564.064 264.075C564.171 264.335 564.329 264.572 564.527 264.771C564.726 264.971 564.962 265.129 565.222 265.237C565.482 265.345 565.761 265.401 566.042 265.401H584.434C585.004 265.401 585.55 265.175 585.952 264.772C586.355 264.37 586.581 263.824 586.582 263.254V244.87C586.58 244.301 586.353 243.756 585.951 243.354C585.548 242.951 585.003 242.725 584.434 242.723Z" fill="white"/>
<path d="M584.434 274.065H566.042C565.761 274.065 565.482 274.121 565.222 274.229C564.962 274.337 564.726 274.496 564.527 274.695C564.329 274.894 564.171 275.131 564.064 275.391C563.957 275.652 563.902 275.931 563.903 276.212V294.596C563.902 294.878 563.957 295.157 564.064 295.417C564.171 295.677 564.329 295.914 564.527 296.113C564.726 296.313 564.962 296.471 565.222 296.579C565.482 296.687 565.761 296.743 566.042 296.743H584.434C585.004 296.743 585.55 296.517 585.952 296.114C586.355 295.712 586.581 295.166 586.582 294.596V276.212C586.581 275.643 586.355 275.097 585.952 274.694C585.55 274.292 585.004 274.065 584.434 274.065Z" fill="#EA4638"/>
<path d="M623.052 148.698H604.66C604.092 148.7 603.547 148.927 603.146 149.329C602.746 149.732 602.521 150.277 602.521 150.845V169.237C602.521 169.804 602.746 170.348 603.147 170.749C603.548 171.151 604.092 171.376 604.66 171.376H623.052C623.62 171.376 624.165 171.151 624.568 170.75C624.97 170.349 625.197 169.805 625.199 169.237V150.845C625.197 150.276 624.971 149.731 624.568 149.328C624.166 148.926 623.621 148.699 623.052 148.698Z" fill="#EA4638"/>
<path d="M623.052 180.039H604.66C604.092 180.041 603.547 180.268 603.146 180.671C602.745 181.073 602.52 181.618 602.521 182.187V200.579C602.521 201.146 602.746 201.69 603.147 202.091C603.548 202.492 604.092 202.718 604.66 202.718H623.052C623.62 202.718 624.165 202.493 624.568 202.092C624.97 201.691 625.197 201.147 625.199 200.579V182.187C625.197 181.618 624.971 181.072 624.568 180.67C624.166 180.268 623.621 180.041 623.052 180.039Z" fill="#EA4638"/>
<path d="M623.052 211.381H604.66C604.092 211.383 603.547 211.61 603.146 212.013C602.746 212.416 602.52 212.961 602.521 213.529V231.913C602.52 232.194 602.575 232.473 602.682 232.733C602.789 232.994 602.946 233.23 603.145 233.43C603.344 233.629 603.58 233.787 603.84 233.896C604.1 234.004 604.378 234.059 604.66 234.06H623.052C623.621 234.059 624.167 233.833 624.57 233.431C624.972 233.028 625.199 232.482 625.199 231.913V213.529C625.197 212.96 624.971 212.414 624.568 212.012C624.166 211.61 623.621 211.383 623.052 211.381Z" fill="#E6E6E6"/>
<path d="M623.052 242.723H604.66C604.092 242.725 603.547 242.952 603.147 243.355C602.746 243.757 602.521 244.302 602.521 244.87V263.254C602.52 263.536 602.575 263.815 602.682 264.075C602.789 264.335 602.946 264.572 603.145 264.771C603.344 264.971 603.58 265.129 603.84 265.237C604.1 265.345 604.378 265.401 604.66 265.401H623.052C623.621 265.401 624.167 265.175 624.57 264.772C624.973 264.37 625.199 263.824 625.199 263.254V244.87C625.197 244.301 624.971 243.756 624.568 243.354C624.166 242.951 623.621 242.725 623.052 242.723Z" fill="#EA4638"/>
<path d="M623.052 274.065H604.66C604.378 274.065 604.1 274.121 603.84 274.229C603.58 274.337 603.344 274.496 603.145 274.695C602.946 274.894 602.789 275.131 602.682 275.391C602.575 275.652 602.52 275.931 602.521 276.212V294.596C602.52 294.878 602.575 295.157 602.682 295.417C602.789 295.677 602.946 295.914 603.145 296.113C603.344 296.313 603.58 296.471 603.84 296.579C604.099 296.687 604.378 296.743 604.66 296.743H623.052C623.621 296.743 624.167 296.517 624.57 296.114C624.973 295.712 625.199 295.165 625.199 294.596V276.212C625.199 275.643 624.973 275.097 624.57 274.694C624.167 274.292 623.621 274.065 623.052 274.065Z" fill="#EA4638"/>
<path d="M661.67 148.698H643.277C642.709 148.7 642.165 148.927 641.764 149.329C641.363 149.732 641.138 150.277 641.138 150.845V169.237C641.139 169.804 641.364 170.348 641.765 170.749C642.166 171.151 642.71 171.376 643.277 171.376H661.67C662.238 171.376 662.783 171.151 663.185 170.75C663.588 170.349 663.815 169.805 663.817 169.237V150.845C663.815 150.276 663.588 149.731 663.186 149.328C662.784 148.926 662.239 148.699 661.67 148.698Z" fill="#E6E6E6"/>
<path d="M661.67 180.039H643.277C642.709 180.041 642.165 180.268 641.764 180.671C641.363 181.073 641.138 181.618 641.138 182.187V200.579C641.139 201.146 641.364 201.69 641.765 202.091C642.166 202.492 642.71 202.718 643.277 202.718H661.67C662.238 202.718 662.783 202.493 663.185 202.092C663.588 201.691 663.815 201.147 663.817 200.579V182.187C663.815 181.618 663.588 181.072 663.186 180.67C662.784 180.268 662.239 180.041 661.67 180.039Z" fill="#EA4638"/>
<path d="M661.67 211.381H643.277C642.709 211.383 642.165 211.61 641.764 212.013C641.363 212.416 641.138 212.961 641.138 213.529V231.913C641.138 232.194 641.192 232.473 641.299 232.733C641.407 232.994 641.564 233.23 641.763 233.43C641.961 233.629 642.197 233.787 642.457 233.896C642.717 234.004 642.996 234.059 643.277 234.06H661.67C662.239 234.059 662.785 233.833 663.188 233.431C663.59 233.028 663.817 232.482 663.817 231.913V213.529C663.815 212.96 663.588 212.414 663.186 212.012C662.784 211.61 662.239 211.383 661.67 211.381Z" fill="#EA4638"/>
<path d="M661.67 242.723H643.277C642.709 242.725 642.165 242.952 641.764 243.355C641.363 243.757 641.138 244.302 641.138 244.87V263.254C641.138 263.536 641.192 263.815 641.299 264.075C641.407 264.335 641.564 264.572 641.763 264.771C641.961 264.971 642.197 265.129 642.457 265.237C642.717 265.345 642.996 265.401 643.277 265.401H661.67C662.239 265.401 662.785 265.175 663.188 264.772C663.59 264.37 663.817 263.824 663.817 263.254V244.87C663.815 244.301 663.588 243.756 663.186 243.354C662.784 242.951 662.239 242.725 661.67 242.723Z" fill="#EA4638"/>
<path d="M661.67 274.065H643.277C642.996 274.065 642.717 274.121 642.457 274.229C642.197 274.337 641.961 274.496 641.763 274.695C641.564 274.894 641.407 275.131 641.299 275.391C641.192 275.652 641.138 275.931 641.138 276.212V294.596C641.138 294.878 641.192 295.157 641.299 295.417C641.407 295.677 641.564 295.914 641.763 296.113C641.961 296.313 642.197 296.471 642.457 296.579C642.717 296.687 642.996 296.743 643.277 296.743H661.67C662.239 296.743 662.785 296.517 663.188 296.114C663.59 295.712 663.817 295.165 663.817 294.596V276.212C663.817 275.643 663.59 275.097 663.188 274.694C662.785 274.292 662.239 274.065 661.67 274.065Z" fill="#E6E6E6"/>
<path d="M700.287 148.698H681.895C681.327 148.7 680.783 148.927 680.382 149.329C679.981 149.732 679.756 150.277 679.756 150.845V169.237C679.756 169.804 679.982 170.348 680.383 170.749C680.784 171.151 681.328 171.376 681.895 171.376H700.287C700.855 171.376 701.401 171.151 701.803 170.75C702.206 170.349 702.433 169.805 702.435 169.237V150.845C702.433 150.276 702.206 149.731 701.804 149.328C701.402 148.926 700.856 148.699 700.287 148.698Z" fill="#E6E6E6"/>
<path d="M700.287 180.039H681.895C681.327 180.041 680.783 180.268 680.382 180.671C679.981 181.073 679.756 181.618 679.756 182.187V200.579C679.756 201.146 679.982 201.69 680.383 202.091C680.784 202.492 681.328 202.718 681.895 202.718H700.287C700.855 202.718 701.401 202.493 701.803 202.092C702.206 201.691 702.433 201.147 702.435 200.579V182.187C702.433 181.618 702.206 181.072 701.804 180.67C701.402 180.268 700.856 180.041 700.287 180.039Z" fill="#E6E6E6"/>
<path d="M700.287 211.381H681.895C681.327 211.383 680.783 211.61 680.382 212.013C679.981 212.416 679.756 212.961 679.756 213.529V231.913C679.755 232.194 679.81 232.473 679.917 232.733C680.024 232.994 680.182 233.23 680.38 233.43C680.579 233.629 680.815 233.787 681.075 233.896C681.335 234.004 681.614 234.059 681.895 234.06H700.287C700.857 234.059 701.403 233.833 701.805 233.431C702.208 233.028 702.434 232.482 702.435 231.913V213.529C702.433 212.96 702.206 212.414 701.804 212.012C701.402 211.61 700.856 211.383 700.287 211.381Z" fill="#EA4638"/>
<path d="M700.287 242.723H681.895C681.327 242.725 680.783 242.952 680.382 243.355C679.981 243.757 679.756 244.302 679.756 244.87V263.254C679.755 263.536 679.81 263.815 679.917 264.075C680.024 264.335 680.182 264.572 680.38 264.771C680.579 264.971 680.815 265.129 681.075 265.237C681.335 265.345 681.614 265.401 681.895 265.401H700.287C700.857 265.401 701.403 265.175 701.805 264.772C702.208 264.37 702.434 263.824 702.435 263.254V244.87C702.433 244.301 702.206 243.756 701.804 243.354C701.402 242.951 700.856 242.725 700.287 242.723Z" fill="#E6E6E6"/>
<path d="M700.287 274.065H681.895C681.614 274.065 681.335 274.121 681.075 274.229C680.815 274.337 680.579 274.496 680.38 274.695C680.182 274.894 680.024 275.131 679.917 275.391C679.81 275.652 679.755 275.931 679.756 276.212V294.596C679.755 294.878 679.81 295.157 679.917 295.417C680.024 295.677 680.182 295.914 680.38 296.113C680.579 296.313 680.815 296.471 681.075 296.579C681.335 296.687 681.614 296.743 681.895 296.743H700.287C700.857 296.743 701.403 296.517 701.805 296.114C702.208 295.712 702.434 295.165 702.435 294.596V276.212C702.434 275.643 702.208 275.097 701.805 274.694C701.403 274.292 700.857 274.065 700.287 274.065Z" fill="#E6E6E6"/>
<path d="M277.571 545.117H277.059L277.497 545.059L277.571 545.117Z" fill="#2F2E41"/>
<path d="M233.568 202.384C264.731 202.384 289.993 177.121 289.993 145.958C289.993 114.796 264.731 89.5334 233.568 89.5334C202.406 89.5334 177.143 114.796 177.143 145.958C177.143 177.121 202.406 202.384 233.568 202.384Z" fill="#FFB6B6"/>
<path d="M282.981 104.589C282.981 104.589 297.739 76.3761 265.272 73.8113C265.272 73.8113 237.593 48.703 209.38 69.2211C209.38 69.2211 193.991 69.2211 185.576 86.6352C185.576 86.6352 173.473 82.045 170.813 94.3295C170.813 94.3295 161.957 119.977 170.813 143.06C179.67 166.143 182.611 168.708 182.611 168.708C182.611 168.708 168.059 120.313 203.481 117.748C238.903 115.184 278.542 93.0471 281.494 121.26C284.446 149.472 288.888 156.423 288.888 156.423C288.888 156.423 316.926 116.13 282.981 104.589Z" fill="#2F2E41"/>
<path d="M379.527 285.016L379.346 285.974L377.306 296.743L363.208 371.237L362.374 375.622L360.623 384.897L358.228 397.549L352.918 425.587L351.398 433.623L350.828 436.637L350.63 437.695L349.053 446.011L348.574 448.522L344.725 477.039L341.364 501.89L352.612 513.138L345.906 519.844L341.504 545.058L341.512 545.116H161.861C154.593 540.408 147.43 535.555 140.372 530.555L141.85 519.489C141.85 519.489 146.937 499.726 144.798 497.364C142.668 495.002 137.993 490.782 137.993 490.782L143.882 477.039L144.699 475.131L143.328 446.697L143.295 446.011L142.841 436.637L142.783 435.432L142.692 433.623L140.95 397.549L140.917 396.954L140.388 386.02L139.893 375.622L139.678 371.237L137.556 327.358L136.118 297.561L134.863 271.62L139.909 269.911L193.88 251.568L216.236 222.506L262.766 222.852L285.543 223.026L323.55 258.274L332.197 262.403L332.263 262.436L338.465 265.401L354.19 272.909L370.815 280.854L379.346 284.925L379.527 285.016Z" fill="#CACACA"/>
<path d="M222.249 460.465C218.839 461.786 215.182 462.343 211.533 462.098C207.885 461.852 204.335 460.809 201.133 459.043C197.931 457.277 195.155 454.83 193.001 451.875C190.848 448.921 189.368 445.529 188.666 441.941L100.662 429.455L131.255 394.85L210.135 412.011C216.241 411.232 222.422 412.721 227.505 416.194C232.588 419.667 236.22 424.885 237.714 430.857C239.207 436.83 238.457 443.143 235.607 448.6C232.757 454.056 228.004 458.278 222.249 460.465Z" fill="#FFB6B6"/>
<path d="M183.011 397.549C181.381 395.482 179.073 394.058 176.495 393.527L140.388 386.02L136.68 385.252C134.525 384.802 132.489 383.902 130.706 382.612C128.923 381.321 127.432 379.668 126.332 377.761C125.19 375.76 124.5 373.533 124.308 371.237C124.136 369.149 124.386 367.048 125.043 365.059L137.555 327.358L145.674 302.896C146.658 299.946 147.238 296.876 147.4 293.77C147.852 285.175 145.193 276.705 139.909 269.911C135.264 263.939 128.821 259.62 121.532 257.591C114.244 255.563 106.496 255.932 99.4332 258.646C99.2267 258.72 99.012 258.803 98.8055 258.885C93.7407 260.908 89.2156 264.08 85.5878 268.152C81.9601 272.225 79.3291 277.085 77.9027 282.348L69.0825 314.433L50.8885 380.577C49.0672 387.205 48.6993 394.147 49.8099 400.929C50.9204 407.712 53.4833 414.174 57.3231 419.874C61.1629 425.574 66.1889 430.377 72.0572 433.955C77.9254 437.532 84.4974 439.8 91.3232 440.602L143.328 446.697L167.394 449.521C170.177 449.856 172.984 449.129 175.255 447.487C177.526 445.845 179.096 443.407 179.65 440.66C179.689 440.51 179.719 440.358 179.741 440.205L180.319 436.637L185.216 406.592L185.266 406.287C185.521 404.754 185.452 403.184 185.064 401.679C184.676 400.174 183.976 398.767 183.011 397.549Z" fill="#CACACA"/>
<path d="M278.304 461.428C281.866 462.255 285.566 462.291 289.143 461.533C292.72 460.775 296.088 459.243 299.009 457.043C301.93 454.843 304.333 452.029 306.048 448.8C307.764 445.571 308.751 442.005 308.939 438.353L394.303 413.582L359.136 383.636L283.465 411.75C277.309 411.84 271.4 414.185 266.858 418.341C262.315 422.496 259.455 428.173 258.819 434.297C258.183 440.42 259.815 446.565 263.406 451.565C266.997 456.565 272.298 460.075 278.304 461.428Z" fill="#FFB6B6"/>
<path d="M436.686 358.172L396.086 264.733C392.765 257.061 386.834 250.814 379.346 247.1C377.031 245.961 374.6 245.074 372.095 244.457C371.706 244.358 371.318 244.267 370.93 244.193C365.618 243.034 360.108 243.136 354.842 244.49C350.029 245.727 345.53 247.964 341.639 251.057C337.749 254.149 334.554 258.026 332.263 262.437C332.238 262.473 332.216 262.512 332.197 262.552C329.638 267.503 328.277 272.985 328.224 278.558C328.17 284.131 329.427 289.639 331.891 294.637L332.395 295.645L361.086 353.266C362.065 355.236 362.617 357.392 362.705 359.59C362.794 361.789 362.416 363.981 361.597 366.024C360.778 368.066 359.537 369.913 357.954 371.442C356.372 372.97 354.484 374.147 352.414 374.895L350.399 375.622L314.16 388.712C311.44 389.683 309.204 391.67 307.921 394.257C306.637 396.843 306.408 399.826 307.28 402.579L307.371 402.868L317.529 435.374C317.579 435.523 317.628 435.671 317.686 435.82C317.775 436.1 317.886 436.374 318.016 436.637C319.096 439.059 321.004 441.015 323.398 442.155C325.791 443.295 328.513 443.544 331.073 442.856L350.63 437.695L354.619 436.637L405.121 423.3C411.766 421.544 417.953 418.373 423.259 414.003C428.564 409.634 432.863 404.17 435.861 397.985C438.858 391.8 440.484 385.04 440.627 378.168C440.769 371.297 439.425 364.475 436.686 358.172Z" fill="#CACACA"/>
<path d="M37.08 436.637C48.7829 450.912 61.4042 464.407 74.8635 477.039H448.132C451.729 477.045 455.176 478.476 457.718 481.02C460.26 483.564 461.69 487.012 461.693 490.608L462.23 585.195C485.193 574.645 506.698 561.174 526.21 545.116C531.628 540.664 536.878 536.02 541.96 531.183C545.288 528.028 548.536 524.796 551.705 521.487C575.46 496.74 594.696 468.023 608.541 436.637H37.08Z" fill="#3F3D56"/>
<path d="M551.705 521.488C548.542 524.799 545.293 528.031 541.96 531.183H462.503V521.488H551.705Z" fill="white"/>
<path d="M378.784 211.381C378.392 210.657 377.811 210.052 377.103 209.63C376.395 209.209 375.586 208.986 374.762 208.986H104.009C102.795 208.989 101.631 209.474 100.774 210.333C99.9163 211.192 99.4342 212.356 99.4332 213.57V375.622H379.346V213.57C379.35 212.804 379.157 212.05 378.784 211.381Z" fill="#3F3D56"/>
<path d="M99.188 371.235V391.232C99.188 392.061 99.3513 392.882 99.6686 393.648C99.9858 394.414 100.451 395.11 101.037 395.696C101.623 396.282 102.319 396.747 103.085 397.065C103.851 397.382 104.672 397.545 105.501 397.545H208.815V437.011H207.442C207.334 437.011 207.228 437.032 207.128 437.073C207.029 437.114 206.938 437.175 206.862 437.251C206.786 437.327 206.726 437.417 206.684 437.517C206.643 437.616 206.622 437.723 206.622 437.831V440.576C206.622 440.683 206.643 440.79 206.684 440.89C206.726 440.989 206.786 441.08 206.862 441.156C206.938 441.232 207.029 441.292 207.128 441.333C207.228 441.375 207.334 441.396 207.442 441.396H271.578C271.686 441.396 271.792 441.375 271.892 441.333C271.991 441.292 272.082 441.232 272.158 441.156C272.234 441.08 272.294 440.989 272.336 440.89C272.377 440.79 272.398 440.683 272.398 440.576V437.831C272.398 437.723 272.377 437.616 272.336 437.517C272.294 437.417 272.234 437.327 272.158 437.251C272.082 437.175 271.991 437.114 271.892 437.073C271.792 437.032 271.686 437.011 271.578 437.011H270.205V397.545H373.519C374.348 397.545 375.169 397.382 375.935 397.065C376.701 396.747 377.397 396.282 377.983 395.696C378.569 395.11 379.034 394.414 379.351 393.648C379.669 392.882 379.832 392.061 379.832 391.232V371.235H99.188Z" fill="#3F3D56"/>
<path d="M236.119 313.839C250.398 313.839 261.974 302.264 261.974 287.984C261.974 273.705 250.398 262.129 236.119 262.129C221.84 262.129 210.264 273.705 210.264 287.984C210.264 302.264 221.84 313.839 236.119 313.839Z" fill="#EA4638"/>
<path d="M301.995 142.875H297.865C297.865 111.657 266.969 91.2005 235.801 91.184C231.268 91.1707 226.744 91.6106 222.298 92.4971C217.293 93.4964 212.099 94.6939 206.995 96.2548C186.868 102.424 168.203 114.35 168.203 142.875C168.199 148.415 168.904 153.933 170.301 159.294L166.304 160.334C164.821 154.633 164.072 148.766 164.074 142.875C164.074 117.95 174.307 100.83 191.98 90.6224C201.271 85.2542 212.611 81.7938 225.602 80.109C231.008 79.3898 236.473 79.2238 241.912 79.6135C277.755 82.1902 301.995 109.675 301.995 142.875Z" fill="#EA4638"/>
<path d="M308.874 145.163L307.247 133.138C306.846 130.101 305.383 127.305 303.118 125.243C301.663 123.899 299.923 122.903 298.027 122.331C296.131 121.758 294.13 121.624 292.175 121.939L289.59 122.295C288.883 122.388 288.201 122.62 287.584 122.979C286.967 123.338 286.428 123.815 285.997 124.384C285.563 124.951 285.245 125.598 285.062 126.288C284.88 126.979 284.835 127.698 284.932 128.406L288.69 156.106C288.845 157.235 289.351 158.286 290.136 159.112C290.922 159.937 291.947 160.495 293.067 160.706C293.399 160.772 293.736 160.805 294.074 160.805C294.318 160.805 294.56 160.788 294.801 160.755L297.692 160.367C299.454 160.133 301.15 159.542 302.675 158.628C304.201 157.715 305.523 156.5 306.562 155.057C306.785 154.743 306.999 154.421 307.198 154.091C308.745 151.388 309.336 148.243 308.874 145.163Z" fill="#EA4638"/>
<path d="M287.922 122.798C287.164 123.167 286.504 123.71 285.997 124.384C285.563 124.951 285.245 125.598 285.062 126.288C284.88 126.979 284.835 127.698 284.932 128.406L288.69 156.106C288.845 157.235 289.351 158.286 290.136 159.112C290.922 159.938 291.947 160.495 293.067 160.706L287.922 122.798Z" fill="white"/>
<path d="M308.874 145.163L307.247 133.138C306.846 130.102 305.383 127.305 303.118 125.243L306.859 152.802C306.915 153.245 307.029 153.678 307.198 154.091C308.745 151.388 309.336 148.243 308.874 145.163Z" fill="#3F3D56"/>
<path d="M296.016 153.827C297.145 153.674 297.714 150.985 297.284 147.821C296.855 144.657 295.591 142.216 294.461 142.37C293.331 142.523 292.763 145.212 293.192 148.376C293.622 151.54 294.886 153.98 296.016 153.827Z" fill="#3F3D56"/>
<path d="M293.538 138.961C294.668 138.808 295.236 136.119 294.807 132.955C294.378 129.791 293.114 127.351 291.984 127.504C290.854 127.657 290.286 130.346 290.715 133.51C291.144 136.674 292.408 139.114 293.538 138.961Z" fill="#3F3D56"/>
<path d="M309.229 144.742C310.359 144.589 310.927 141.9 310.498 138.736C310.069 135.572 308.805 133.132 307.675 133.285C306.545 133.438 305.977 136.128 306.406 139.291C306.836 142.455 308.1 144.896 309.229 144.742Z" fill="#3F3D56"/>
<path d="M235.801 91.184C231.268 91.1707 226.744 91.6106 222.298 92.4971C217.293 93.4964 212.099 94.6939 206.995 96.2548C199.025 95.8667 193.161 93.802 191.98 90.6224C201.271 85.2542 212.611 81.7938 225.602 80.109C231.008 79.3898 236.473 79.2238 241.912 79.6135C242.488 79.9511 242.986 80.4067 243.373 80.9505C243.761 81.4942 244.028 82.1137 244.159 82.7683C244.547 85.6424 241.268 88.6981 235.801 91.184Z" fill="#3F3D56"/>
<path d="M183.077 171.533L176.718 145.097C176.491 144.143 175.988 143.278 175.271 142.609C174.554 141.941 173.655 141.499 172.688 141.339C172.415 141.297 172.139 141.275 171.862 141.273C171.473 141.275 171.084 141.322 170.706 141.414L168.245 142.008C165.076 142.775 162.341 144.767 160.639 147.548C158.938 150.328 158.409 153.671 159.168 156.841L162.018 168.7C162.668 171.492 164.218 173.994 166.428 175.819C166.786 176.109 167.161 176.376 167.551 176.621C168.935 177.488 170.48 178.07 172.092 178.331C173.705 178.592 175.354 178.527 176.941 178.14L179.394 177.545C180.043 177.394 180.653 177.11 181.186 176.711C181.979 176.133 182.583 175.332 182.919 174.41C183.256 173.488 183.311 172.486 183.077 171.533Z" fill="#EA4638"/>
<path d="M169.746 166.614C170.855 166.347 171.148 163.615 170.401 160.51C169.654 157.406 168.149 155.106 167.041 155.373C165.932 155.64 165.639 158.372 166.386 161.477C167.133 164.581 168.637 166.881 169.746 166.614Z" fill="#3F3D56"/>
<path d="M161.487 169.092C162.596 168.825 162.889 166.092 162.142 162.988C161.395 159.884 159.891 157.584 158.782 157.85C157.673 158.117 157.38 160.85 158.127 163.954C158.874 167.058 160.379 169.359 161.487 169.092Z" fill="#3F3D56"/>
<path d="M183.482 171.434L177.123 144.998C176.875 143.966 176.328 143.03 175.551 142.307C174.774 141.584 173.801 141.107 172.754 140.935L181.434 177.042C182.291 176.414 182.943 175.546 183.308 174.548C183.672 173.55 183.733 172.466 183.482 171.434Z" fill="white"/>
<path d="M160.605 151.605C160.43 150.87 160.101 150.18 159.639 149.581C158.745 151.896 158.581 154.43 159.168 156.841L162.018 168.7C162.668 171.492 164.218 173.993 166.428 175.819L160.605 151.605Z" fill="#3F3D56"/>
<g clip-path="url(#clip1_58_64)">
<path d="M443.321 65.8825C458.068 65.8825 470.022 53.9281 470.022 39.1817C470.022 24.4353 458.068 12.481 443.321 12.481C428.575 12.481 416.621 24.4353 416.621 39.1817C416.621 53.9281 428.575 65.8825 443.321 65.8825Z" fill="#F2F2F2"/>
<path d="M650.448 462.152C690.135 431.923 709.091 381.127 697.224 332.67C696.929 331.466 696.618 330.264 696.29 329.066C688.423 300.302 668.959 272.965 640.59 263.775C616.771 256.058 590.771 261.992 565.921 258.923C517.139 252.899 479.32 213.429 452.71 172.104C426.099 130.778 405.648 84.5205 370.288 50.3796C312.003 -5.89573 216.926 -18.0119 144.661 18.6192C72.3967 55.2504 26.3649 136.52 28.328 217.514C30.2912 298.509 78.3743 375.946 148.203 417.031C173.855 432.124 203.524 442.817 233.051 439.075C258.671 435.829 281.95 422.063 307.45 417.976C347.541 411.55 387.377 429.676 422.052 450.799C456.728 471.922 490.223 496.959 529.627 506.752C567.888 516.26 615.29 488.93 650.448 462.152Z" fill="#F2F2F2"/>
<path d="M593.426 20.32C592.556 19.74 591.676 19.19 590.806 18.63C565.657 2.54577 538.701 -10.5209 510.496 -20.3L503.956 69.92H462.496V-33.47C459.886 -34.01 457.256 -34.52 454.626 -35V69.92H405.356C378.232 69.92 352.219 59.1452 333.04 39.9659C313.861 20.7865 303.086 -5.22622 303.086 -32.3499C300.446 -31.7799 297.826 -31.17 295.206 -30.52V69.92H255.076L248.846 -16.11C219.861 -4.99369 192.343 9.62478 166.906 27.42C166.466 27.72 166.026 28.03 165.596 28.33C163.386 29.88 161.206 31.46 159.036 33.06V377.25H277.306L275.216 348.3L263.716 189.35H495.306L483.806 348.3L481.716 377.25H598.676V23.8C596.936 22.62 595.186 21.46 593.426 20.32ZM295.206 163.1H261.816L255.646 77.8H295.206V163.1ZM454.626 163.1H398.546V161.41C398.546 160.598 398.386 159.793 398.075 159.043C397.763 158.292 397.307 157.61 396.732 157.036C396.157 156.462 395.475 156.007 394.724 155.697C393.973 155.388 393.168 155.229 392.356 155.23H367.976C367.164 155.23 366.361 155.389 365.611 155.7C364.861 156.01 364.179 156.465 363.605 157.039C363.031 157.613 362.576 158.295 362.266 159.045C361.955 159.795 361.796 160.598 361.796 161.41V163.1H303.086V77.8H454.626V163.1ZM462.496 163.1V77.8H503.386L497.216 163.1H462.496Z" fill="#3F3D56"/>
<path d="M-15.0001 399.291C-6.31281 409.584 3.08344 419.258 13.1199 428.241L743.7 429.241C753.736 420.258 763.133 410.584 771.82 400.291L-15.0001 399.291Z" fill="#3F3D56"/>
<path d="M480.43 306.591V392.295C480.431 393.387 480.865 394.435 481.637 395.207C482.41 395.979 483.457 396.414 484.549 396.414H611.553C612.646 396.414 613.693 395.979 614.465 395.207C615.237 394.435 615.672 393.387 615.673 392.295V306.591C615.67 305.5 615.235 304.454 614.463 303.683C613.691 302.912 612.645 302.478 611.553 302.477H484.549C483.458 302.478 482.412 302.912 481.639 303.683C480.867 304.454 480.433 305.5 480.43 306.591Z" fill="#3F3D56"/>
<path d="M483.409 307.658V391.238C483.41 391.822 483.643 392.381 484.055 392.794C484.468 393.206 485.027 393.438 485.611 393.439H610.496C611.08 393.438 611.639 393.206 612.052 392.794C612.464 392.381 612.697 391.822 612.698 391.238V307.658C612.698 307.073 612.466 306.513 612.053 306.099C611.64 305.686 611.08 305.453 610.496 305.452H485.611C485.027 305.453 484.467 305.686 484.054 306.099C483.641 306.513 483.409 307.073 483.409 307.658Z" fill="#EA4638"/>
<path d="M477.774 409.01C478.006 409.301 478.302 409.537 478.639 409.698C478.975 409.859 479.344 409.942 479.717 409.94H615.709C616.081 409.939 616.448 409.856 616.784 409.696C617.119 409.535 617.415 409.302 617.649 409.014C617.884 408.725 618.051 408.387 618.138 408.026C618.226 407.664 618.232 407.288 618.155 406.924L616.044 396.897C615.957 396.488 615.768 396.107 615.496 395.79C615.224 395.472 614.877 395.228 614.486 395.079C614.203 394.968 613.902 394.911 613.598 394.911H481.82C481.516 394.911 481.215 394.968 480.932 395.079C480.541 395.228 480.194 395.472 479.922 395.79C479.65 396.107 479.461 396.488 479.374 396.897L477.263 406.924C477.188 407.288 477.195 407.664 477.283 408.025C477.371 408.385 477.539 408.722 477.774 409.01Z" fill="#2F2E41"/>
<path d="M608.932 399.23H612.144C612.414 399.23 612.632 399.012 612.632 398.742V397.206C612.632 396.936 612.414 396.717 612.144 396.717H608.932C608.662 396.717 608.444 396.936 608.444 397.206V398.742C608.444 399.012 608.662 399.23 608.932 399.23Z" fill="#3F3D56"/>
<path d="M600.555 399.23H603.767C604.037 399.23 604.255 399.012 604.255 398.742V397.206C604.255 396.936 604.037 396.717 603.767 396.717H600.555C600.285 396.717 600.067 396.936 600.067 397.206V398.742C600.067 399.012 600.285 399.23 600.555 399.23Z" fill="#3F3D56"/>
<path d="M592.178 399.23H595.39C595.66 399.23 595.878 399.012 595.878 398.742V397.206C595.878 396.936 595.66 396.717 595.39 396.717H592.178C591.908 396.717 591.69 396.936 591.69 397.206V398.742C591.69 399.012 591.908 399.23 592.178 399.23Z" fill="#3F3D56"/>
<path d="M583.801 399.23H587.013C587.283 399.23 587.501 399.012 587.501 398.742V397.206C587.501 396.936 587.283 396.717 587.013 396.717H583.801C583.531 396.717 583.313 396.936 583.313 397.206V398.742C583.313 399.012 583.531 399.23 583.801 399.23Z" fill="#3F3D56"/>
<path d="M575.424 399.23H578.636C578.906 399.23 579.124 399.012 579.124 398.742V397.206C579.124 396.936 578.906 396.717 578.636 396.717H575.424C575.154 396.717 574.936 396.936 574.936 397.206V398.742C574.936 399.012 575.154 399.23 575.424 399.23Z" fill="#3F3D56"/>
<path d="M567.047 399.23H570.259C570.529 399.23 570.747 399.012 570.747 398.742V397.206C570.747 396.936 570.529 396.717 570.259 396.717H567.047C566.777 396.717 566.559 396.936 566.559 397.206V398.742C566.559 399.012 566.777 399.23 567.047 399.23Z" fill="#3F3D56"/>
<path d="M558.67 399.23H561.882C562.152 399.23 562.37 399.012 562.37 398.742V397.206C562.37 396.936 562.152 396.717 561.882 396.717H558.67C558.4 396.717 558.182 396.936 558.182 397.206V398.742C558.182 399.012 558.4 399.23 558.67 399.23Z" fill="#3F3D56"/>
<path d="M550.293 399.23H553.505C553.775 399.23 553.993 399.012 553.993 398.742V397.206C553.993 396.936 553.775 396.717 553.505 396.717H550.293C550.023 396.717 549.805 396.936 549.805 397.206V398.742C549.805 399.012 550.023 399.23 550.293 399.23Z" fill="#3F3D56"/>
<path d="M541.916 399.23H545.128C545.398 399.23 545.616 399.012 545.616 398.742V397.206C545.616 396.936 545.398 396.717 545.128 396.717H541.916C541.647 396.717 541.428 396.936 541.428 397.206V398.742C541.428 399.012 541.647 399.23 541.916 399.23Z" fill="#3F3D56"/>
<path d="M533.539 399.23H536.751C537.021 399.23 537.239 399.012 537.239 398.742V397.206C537.239 396.936 537.021 396.717 536.751 396.717H533.539C533.27 396.717 533.051 396.936 533.051 397.206V398.742C533.051 399.012 533.27 399.23 533.539 399.23Z" fill="#3F3D56"/>
<path d="M525.162 399.23H528.374C528.644 399.23 528.862 399.012 528.862 398.742V397.206C528.862 396.936 528.644 396.717 528.374 396.717H525.162C524.892 396.717 524.674 396.936 524.674 397.206V398.742C524.674 399.012 524.892 399.23 525.162 399.23Z" fill="#3F3D56"/>
<path d="M516.785 399.23H519.997C520.267 399.23 520.485 399.012 520.485 398.742V397.206C520.485 396.936 520.267 396.717 519.997 396.717H516.785C516.516 396.717 516.297 396.936 516.297 397.206V398.742C516.297 399.012 516.516 399.23 516.785 399.23Z" fill="#3F3D56"/>
<path d="M508.408 399.23H511.62C511.89 399.23 512.108 399.012 512.108 398.742V397.206C512.108 396.936 511.89 396.717 511.62 396.717H508.408C508.139 396.717 507.92 396.936 507.92 397.206V398.742C507.92 399.012 508.139 399.23 508.408 399.23Z" fill="#3F3D56"/>
<path d="M500.031 399.23H503.243C503.513 399.23 503.732 399.012 503.732 398.742V397.206C503.732 396.936 503.513 396.717 503.243 396.717H500.031C499.762 396.717 499.543 396.936 499.543 397.206V398.742C499.543 399.012 499.762 399.23 500.031 399.23Z" fill="#3F3D56"/>
<path d="M491.654 399.23H494.866C495.136 399.23 495.355 399.012 495.355 398.742V397.206C495.355 396.936 495.136 396.717 494.866 396.717H491.654C491.385 396.717 491.166 396.936 491.166 397.206V398.742C491.166 399.012 491.385 399.23 491.654 399.23Z" fill="#3F3D56"/>
<path d="M483.277 399.23H486.489C486.759 399.23 486.977 399.012 486.977 398.742V397.206C486.977 396.936 486.759 396.717 486.489 396.717H483.277C483.008 396.717 482.789 396.936 482.789 397.206V398.742C482.789 399.012 483.008 399.23 483.277 399.23Z" fill="#3F3D56"/>
<path d="M609.031 403.419H612.243C612.513 403.419 612.731 403.2 612.731 402.931V401.394C612.731 401.124 612.513 400.906 612.243 400.906H609.031C608.761 400.906 608.543 401.124 608.543 401.394V402.931C608.543 403.2 608.761 403.419 609.031 403.419Z" fill="#3F3D56"/>
<path d="M600.654 403.419H603.866C604.136 403.419 604.354 403.2 604.354 402.931V401.394C604.354 401.124 604.136 400.906 603.866 400.906H600.654C600.384 400.906 600.166 401.124 600.166 401.394V402.931C600.166 403.2 600.384 403.419 600.654 403.419Z" fill="#3F3D56"/>
<path d="M592.277 403.419H595.489C595.759 403.419 595.977 403.2 595.977 402.931V401.394C595.977 401.124 595.759 400.906 595.489 400.906H592.277C592.007 400.906 591.789 401.124 591.789 401.394V402.931C591.789 403.2 592.007 403.419 592.277 403.419Z" fill="#3F3D56"/>
<path d="M583.9 403.419H587.112C587.382 403.419 587.6 403.2 587.6 402.931V401.394C587.6 401.124 587.382 400.906 587.112 400.906H583.9C583.63 400.906 583.412 401.124 583.412 401.394V402.931C583.412 403.2 583.63 403.419 583.9 403.419Z" fill="#3F3D56"/>
<path d="M575.523 403.419H578.735C579.005 403.419 579.223 403.2 579.223 402.931V401.394C579.223 401.124 579.005 400.906 578.735 400.906H575.523C575.253 400.906 575.035 401.124 575.035 401.394V402.931C575.035 403.2 575.253 403.419 575.523 403.419Z" fill="#3F3D56"/>
<path d="M567.146 403.419H570.358C570.628 403.419 570.846 403.2 570.846 402.931V401.394C570.846 401.124 570.628 400.906 570.358 400.906H567.146C566.876 400.906 566.658 401.124 566.658 401.394V402.931C566.658 403.2 566.876 403.419 567.146 403.419Z" fill="#3F3D56"/>
<path d="M558.769 403.419H561.981C562.251 403.419 562.469 403.2 562.469 402.931V401.394C562.469 401.124 562.251 400.906 561.981 400.906H558.769C558.499 400.906 558.281 401.124 558.281 401.394V402.931C558.281 403.2 558.499 403.419 558.769 403.419Z" fill="#3F3D56"/>
<path d="M550.392 403.419H553.604C553.874 403.419 554.092 403.2 554.092 402.931V401.394C554.092 401.124 553.874 400.906 553.604 400.906H550.392C550.122 400.906 549.904 401.124 549.904 401.394V402.931C549.904 403.2 550.122 403.419 550.392 403.419Z" fill="#3F3D56"/>
<path d="M542.015 403.419H545.227C545.497 403.419 545.715 403.2 545.715 402.931V401.394C545.715 401.124 545.497 400.906 545.227 400.906H542.015C541.745 400.906 541.527 401.124 541.527 401.394V402.931C541.527 403.2 541.745 403.419 542.015 403.419Z" fill="#3F3D56"/>
<path d="M533.638 403.419H536.85C537.12 403.419 537.338 403.2 537.338 402.931V401.394C537.338 401.124 537.12 400.906 536.85 400.906H533.638C533.369 400.906 533.15 401.124 533.15 401.394V402.931C533.15 403.2 533.369 403.419 533.638 403.419Z" fill="#3F3D56"/>
<path d="M525.261 403.419H528.473C528.743 403.419 528.961 403.2 528.961 402.931V401.394C528.961 401.124 528.743 400.906 528.473 400.906H525.261C524.991 400.906 524.773 401.124 524.773 401.394V402.931C524.773 403.2 524.991 403.419 525.261 403.419Z" fill="#3F3D56"/>
<path d="M516.884 403.419H520.096C520.366 403.419 520.584 403.2 520.584 402.931V401.394C520.584 401.124 520.366 400.906 520.096 400.906H516.884C516.615 400.906 516.396 401.124 516.396 401.394V402.931C516.396 403.2 516.615 403.419 516.884 403.419Z" fill="#3F3D56"/>
<path d="M508.507 403.419H511.719C511.989 403.419 512.207 403.2 512.207 402.931V401.394C512.207 401.124 511.989 400.906 511.719 400.906H508.507C508.238 400.906 508.019 401.124 508.019 401.394V402.931C508.019 403.2 508.238 403.419 508.507 403.419Z" fill="#3F3D56"/>
<path d="M500.13 403.419H503.342C503.612 403.419 503.831 403.2 503.831 402.931V401.394C503.831 401.124 503.612 400.906 503.342 400.906H500.13C499.861 400.906 499.642 401.124 499.642 401.394V402.931C499.642 403.2 499.861 403.419 500.13 403.419Z" fill="#3F3D56"/>
<path d="M491.753 403.419H494.965C495.235 403.419 495.453 403.2 495.453 402.931V401.394C495.453 401.124 495.235 400.906 494.965 400.906H491.753C491.484 400.906 491.265 401.124 491.265 401.394V402.931C491.265 403.2 491.484 403.419 491.753 403.419Z" fill="#3F3D56"/>
<path d="M483.376 403.419H486.588C486.858 403.419 487.077 403.2 487.077 402.931V401.394C487.077 401.124 486.858 400.906 486.588 400.906H483.376C483.107 400.906 482.888 401.124 482.888 401.394V402.931C482.888 403.2 483.107 403.419 483.376 403.419Z" fill="#3F3D56"/>
<path d="M539.502 408.445H572.034C572.303 408.445 572.522 408.226 572.522 407.957V406.42C572.522 406.151 572.303 405.932 572.034 405.932H539.502C539.232 405.932 539.014 406.151 539.014 406.42V407.957C539.014 408.226 539.232 408.445 539.502 408.445Z" fill="#3F3D56"/>
<path d="M505.036 323.737H502.192C501.33 323.737 500.631 324.436 500.631 325.298C500.631 326.16 501.33 326.859 502.192 326.859H505.036C505.898 326.859 506.597 326.16 506.597 325.298C506.597 324.436 505.898 323.737 505.036 323.737Z" fill="white"/>
<path d="M537.559 323.737H534.715C533.853 323.737 533.154 324.436 533.154 325.298C533.154 326.16 533.853 326.859 534.715 326.859H537.559C538.421 326.859 539.12 326.16 539.12 325.298C539.12 324.436 538.421 323.737 537.559 323.737Z" fill="white"/>
<path d="M546.774 323.737H543.93C543.068 323.737 542.369 324.436 542.369 325.298C542.369 326.16 543.068 326.859 543.93 326.859H546.774C547.636 326.859 548.335 326.16 548.335 325.298C548.335 324.436 547.636 323.737 546.774 323.737Z" fill="white"/>
<path d="M528.712 323.477H511.039C510.176 323.477 509.477 324.176 509.477 325.038C509.477 325.9 510.176 326.599 511.039 326.599H528.712C529.575 326.599 530.274 325.9 530.274 325.038C530.274 324.176 529.575 323.477 528.712 323.477Z" fill="white"/>
<path d="M572.076 323.477H554.403C553.54 323.477 552.841 324.176 552.841 325.038C552.841 325.9 553.54 326.599 554.403 326.599H572.076C572.939 326.599 573.638 325.9 573.638 325.038C573.638 324.176 572.939 323.477 572.076 323.477Z" fill="white"/>
<path d="M513.709 330.784H510.865C510.003 330.784 509.304 331.483 509.304 332.345C509.304 333.207 510.003 333.906 510.865 333.906H513.709C514.571 333.906 515.27 333.207 515.27 332.345C515.27 331.483 514.571 330.784 513.709 330.784Z" fill="white"/>
<path d="M546.232 330.784H543.388C542.526 330.784 541.827 331.483 541.827 332.345C541.827 333.207 542.526 333.906 543.388 333.906H546.232C547.094 333.906 547.793 333.207 547.793 332.345C547.793 331.483 547.094 330.784 546.232 330.784Z" fill="white"/>
<path d="M555.446 330.784H552.603C551.741 330.784 551.042 331.483 551.042 332.345C551.042 333.207 551.741 333.906 552.603 333.906H555.446C556.309 333.906 557.008 333.207 557.008 332.345C557.008 331.483 556.309 330.784 555.446 330.784Z" fill="white"/>
<path d="M537.385 330.523H519.711C518.849 330.523 518.15 331.222 518.15 332.085C518.15 332.947 518.849 333.646 519.711 333.646H537.385C538.247 333.646 538.946 332.947 538.946 332.085C538.946 331.222 538.247 330.523 537.385 330.523Z" fill="white"/>
<path d="M580.749 330.523H563.075C562.213 330.523 561.514 331.222 561.514 332.085C561.514 332.947 562.213 333.646 563.075 333.646H580.749C581.611 333.646 582.31 332.947 582.31 332.085C582.31 331.222 581.611 330.523 580.749 330.523Z" fill="white"/>
<path d="M522.381 337.83H519.538C518.676 337.83 517.977 338.529 517.977 339.391C517.977 340.254 518.676 340.952 519.538 340.952H522.381C523.244 340.952 523.943 340.254 523.943 339.391C523.943 338.529 523.244 337.83 522.381 337.83Z" fill="white"/>
<path d="M554.904 337.83H552.061C551.199 337.83 550.5 338.529 550.5 339.391C550.5 340.254 551.199 340.952 552.061 340.952H554.904C555.767 340.952 556.466 340.254 556.466 339.391C556.466 338.529 555.767 337.83 554.904 337.83Z" fill="white"/>
<path d="M564.119 337.83H561.276C560.413 337.83 559.715 338.529 559.715 339.391C559.715 340.254 560.413 340.952 561.276 340.952H564.119C564.981 340.952 565.68 340.254 565.68 339.391C565.68 338.529 564.981 337.83 564.119 337.83Z" fill="white"/>
<path d="M546.058 337.57H528.384C527.522 337.57 526.823 338.269 526.823 339.131C526.823 339.993 527.522 340.692 528.384 340.692H546.058C546.92 340.692 547.619 339.993 547.619 339.131C547.619 338.269 546.92 337.57 546.058 337.57Z" fill="white"/>
<path d="M589.422 337.57H571.748C570.886 337.57 570.187 338.269 570.187 339.131C570.187 339.993 570.886 340.692 571.748 340.692H589.422C590.284 340.692 590.983 339.993 590.983 339.131C590.983 338.269 590.284 337.57 589.422 337.57Z" fill="white"/>
<path d="M531.054 344.877H528.211C527.348 344.877 526.649 345.576 526.649 346.438C526.649 347.3 527.348 347.999 528.211 347.999H531.054C531.916 347.999 532.615 347.3 532.615 346.438C532.615 345.576 531.916 344.877 531.054 344.877Z" fill="white"/>
<path d="M563.577 344.877H560.734C559.871 344.877 559.172 345.576 559.172 346.438C559.172 347.3 559.871 347.999 560.734 347.999H563.577C564.439 347.999 565.138 347.3 565.138 346.438C565.138 345.576 564.439 344.877 563.577 344.877Z" fill="white"/>
<path d="M572.792 344.877H569.948C569.086 344.877 568.387 345.576 568.387 346.438C568.387 347.3 569.086 347.999 569.948 347.999H572.792C573.654 347.999 574.353 347.3 574.353 346.438C574.353 345.576 573.654 344.877 572.792 344.877Z" fill="white"/>
<path d="M554.731 344.617H537.057C536.195 344.617 535.496 345.316 535.496 346.178C535.496 347.04 536.195 347.739 537.057 347.739H554.731C555.593 347.739 556.292 347.04 556.292 346.178C556.292 345.316 555.593 344.617 554.731 344.617Z" fill="white"/>
<path d="M537.559 372.897H534.715C533.853 372.897 533.154 373.596 533.154 374.459C533.154 375.321 533.853 376.02 534.715 376.02H537.559C538.421 376.02 539.12 375.321 539.12 374.459C539.12 373.596 538.421 372.897 537.559 372.897Z" fill="white"/>
<path d="M546.774 372.897H543.93C543.068 372.897 542.369 373.596 542.369 374.459C542.369 375.321 543.068 376.02 543.93 376.02H546.774C547.636 376.02 548.335 375.321 548.335 374.459C548.335 373.596 547.636 372.897 546.774 372.897Z" fill="white"/>
<path d="M572.076 373.158H554.403C553.54 373.158 552.841 373.857 552.841 374.719C552.841 375.581 553.54 376.28 554.403 376.28H572.076C572.939 376.28 573.638 375.581 573.638 374.719C573.638 373.857 572.939 373.158 572.076 373.158Z" fill="white"/>
<path d="M505.036 372.897H502.192C501.33 372.897 500.631 373.596 500.631 374.459C500.631 375.321 501.33 376.02 502.192 376.02H505.036C505.898 376.02 506.597 375.321 506.597 374.459C506.597 373.596 505.898 372.897 505.036 372.897Z" fill="white"/>
<path d="M528.712 373.158H511.039C510.176 373.158 509.477 373.857 509.477 374.719C509.477 375.581 510.176 376.28 511.039 376.28H528.712C529.575 376.28 530.274 375.581 530.274 374.719C530.274 373.857 529.575 373.158 528.712 373.158Z" fill="white"/>
<path d="M513.709 365.851H510.865C510.003 365.851 509.304 366.55 509.304 367.412C509.304 368.274 510.003 368.973 510.865 368.973H513.709C514.571 368.973 515.27 368.274 515.27 367.412C515.27 366.55 514.571 365.851 513.709 365.851Z" fill="white"/>
<path d="M546.232 365.851H543.388C542.526 365.851 541.827 366.55 541.827 367.412C541.827 368.274 542.526 368.973 543.388 368.973H546.232C547.094 368.973 547.793 368.274 547.793 367.412C547.793 366.55 547.094 365.851 546.232 365.851Z" fill="white"/>
<path d="M555.446 365.851H552.603C551.741 365.851 551.042 366.55 551.042 367.412C551.042 368.274 551.741 368.973 552.603 368.973H555.446C556.309 368.973 557.008 368.274 557.008 367.412C557.008 366.55 556.309 365.851 555.446 365.851Z" fill="white"/>
<path d="M537.385 366.111H519.711C518.849 366.111 518.15 366.81 518.15 367.672C518.15 368.534 518.849 369.233 519.711 369.233H537.385C538.247 369.233 538.946 368.534 538.946 367.672C538.946 366.81 538.247 366.111 537.385 366.111Z" fill="white"/>
<path d="M522.381 358.804H519.538C518.676 358.804 517.977 359.503 517.977 360.365C517.977 361.227 518.676 361.926 519.538 361.926H522.381C523.244 361.926 523.943 361.227 523.943 360.365C523.943 359.503 523.244 358.804 522.381 358.804Z" fill="white"/>
<path d="M554.904 358.804H552.061C551.199 358.804 550.5 359.503 550.5 360.365C550.5 361.227 551.199 361.926 552.061 361.926H554.904C555.767 361.926 556.466 361.227 556.466 360.365C556.466 359.503 555.767 358.804 554.904 358.804Z" fill="white"/>
<path d="M564.119 358.804H561.276C560.413 358.804 559.715 359.503 559.715 360.365C559.715 361.227 560.413 361.926 561.276 361.926H564.119C564.981 361.926 565.68 361.227 565.68 360.365C565.68 359.503 564.981 358.804 564.119 358.804Z" fill="white"/>
<path d="M546.058 359.064H528.384C527.522 359.064 526.823 359.763 526.823 360.626C526.823 361.488 527.522 362.187 528.384 362.187H546.058C546.92 362.187 547.619 361.488 547.619 360.626C547.619 359.763 546.92 359.064 546.058 359.064Z" fill="white"/>
<path d="M531.054 351.758H528.211C527.348 351.758 526.649 352.457 526.649 353.319C526.649 354.181 527.348 354.88 528.211 354.88H531.054C531.916 354.88 532.615 354.181 532.615 353.319C532.615 352.457 531.916 351.758 531.054 351.758Z" fill="white"/>
<path d="M563.577 351.758H560.734C559.871 351.758 559.172 352.457 559.172 353.319C559.172 354.181 559.871 354.88 560.734 354.88H563.577C564.439 354.88 565.138 354.181 565.138 353.319C565.138 352.457 564.439 351.758 563.577 351.758Z" fill="white"/>
<path d="M572.792 351.758H569.948C569.086 351.758 568.387 352.457 568.387 353.319C568.387 354.181 569.086 354.88 569.948 354.88H572.792C573.654 354.88 574.353 354.181 574.353 353.319C574.353 352.457 573.654 351.758 572.792 351.758Z" fill="white"/>
<path d="M554.731 352.018H537.057C536.195 352.018 535.496 352.717 535.496 353.579C535.496 354.441 536.195 355.14 537.057 355.14H554.731C555.593 355.14 556.292 354.441 556.292 353.579C556.292 352.717 555.593 352.018 554.731 352.018Z" fill="white"/>
<path d="M489.917 455.482L476.568 434.38L518.47 400.977L535.765 381.816C538.012 379.327 540.873 377.471 544.062 376.433C547.251 375.396 550.657 375.214 553.938 375.905C557.22 376.596 560.262 378.136 562.762 380.372C565.262 382.607 567.131 385.46 568.183 388.644C569.742 393.363 569.407 398.502 567.248 402.979C565.089 407.455 561.276 410.917 556.613 412.635L529.264 422.71L489.917 455.482Z" fill="#FFB6B6"/>
<path d="M176.69 302.481V405.041H248.54V302.481C248.541 301.743 248.306 301.024 247.868 300.43C247.431 299.837 246.815 299.398 246.11 299.181C245.778 299.071 245.43 299.017 245.08 299.021H180.16C179.705 299.02 179.254 299.109 178.833 299.282C178.413 299.456 178.03 299.71 177.708 300.032C177.386 300.353 177.13 300.735 176.955 301.155C176.781 301.575 176.69 302.026 176.69 302.481ZM204.73 337.721C204.749 335.699 205.565 333.766 207.001 332.343C208.438 330.92 210.378 330.121 212.4 330.121C214.422 330.121 216.362 330.92 217.798 332.343C219.235 333.766 220.051 335.699 220.07 337.721V349.621C220.06 351.648 219.247 353.589 217.81 355.019C216.372 356.449 214.427 357.252 212.4 357.252C210.373 357.252 208.428 356.449 206.99 355.019C205.553 353.589 204.74 351.648 204.73 349.621V337.721Z" fill="#2F2E41"/>
<path d="M176.47 401.761V411.651C176.472 412.163 176.675 412.654 177.036 413.017C177.398 413.381 177.888 413.587 178.4 413.591H246.83C247.343 413.588 247.834 413.383 248.195 413.019C248.557 412.656 248.76 412.164 248.76 411.651V401.761H176.47Z" fill="#3F3D56"/>
<path d="M63.66 147.961V335.221C63.6619 337.607 64.6107 339.895 66.2981 341.583C67.9855 343.27 70.2736 344.219 72.66 344.221H350.16C352.546 344.219 354.834 343.27 356.522 341.583C358.209 339.895 359.158 337.607 359.16 335.221V147.961C359.154 145.577 358.204 143.292 356.517 141.607C354.83 139.922 352.544 138.974 350.16 138.971H72.66C70.2757 138.974 67.9898 139.922 66.3029 141.607C64.616 143.292 63.6657 145.577 63.66 147.961Z" fill="#3F3D56"/>
<path d="M70.17 150.291V332.911C70.1722 334.186 70.6796 335.408 71.5812 336.309C72.4828 337.211 73.705 337.719 74.98 337.721H347.85C349.125 337.719 350.347 337.211 351.249 336.309C352.15 335.408 352.658 334.186 352.66 332.911V150.291C352.66 149.014 352.153 147.79 351.252 146.886C350.35 145.983 349.127 145.473 347.85 145.471H74.98C73.7034 145.473 72.4801 145.983 71.5783 146.886C70.6766 147.79 70.1701 149.014 70.17 150.291Z" fill="white"/>
<path d="M120.81 412.921C121.088 413.269 121.441 413.55 121.843 413.742C122.244 413.934 122.685 414.033 123.13 414.031H285.47C285.914 414.03 286.352 413.931 286.753 413.74C287.154 413.548 287.507 413.27 287.786 412.925C288.066 412.581 288.265 412.178 288.37 411.746C288.474 411.315 288.481 410.865 288.39 410.431L285.87 398.461C285.765 397.973 285.541 397.518 285.216 397.139C284.891 396.76 284.476 396.469 284.01 396.291C283.672 396.158 283.313 396.09 282.95 396.091H125.64C125.277 396.09 124.918 396.158 124.58 396.291C124.114 396.469 123.699 396.76 123.374 397.139C123.049 397.518 122.824 397.973 122.72 398.461L120.2 410.431C120.11 410.865 120.119 411.314 120.224 411.745C120.33 412.175 120.53 412.577 120.81 412.921Z" fill="#2F2E41"/>
<path d="M338.995 170.628H83.6711C83.4058 170.622 83.1532 170.512 82.9676 170.322C82.782 170.133 82.6781 169.878 82.6781 169.612C82.6781 169.347 82.782 169.092 82.9676 168.902C83.1532 168.712 83.4058 168.603 83.6711 168.597H338.995C339.26 168.603 339.512 168.712 339.698 168.902C339.884 169.092 339.988 169.347 339.988 169.612C339.988 169.878 339.884 170.133 339.698 170.322C339.512 170.512 339.26 170.622 338.995 170.628Z" fill="#3F3D56"/>
<path d="M101.051 163.413C104.338 163.413 107.002 160.689 107.002 157.33C107.002 153.97 104.338 151.247 101.051 151.247C97.765 151.247 95.1009 153.97 95.1009 157.33C95.1009 160.689 97.765 163.413 101.051 163.413Z" fill="#3F3D56"/>
<path d="M121.607 163.413C124.894 163.413 127.558 160.689 127.558 157.33C127.558 153.97 124.894 151.247 121.607 151.247C118.321 151.247 115.657 153.97 115.657 157.33C115.657 160.689 118.321 163.413 121.607 163.413Z" fill="#3F3D56"/>
<path d="M142.163 163.413C145.45 163.413 148.114 160.689 148.114 157.33C148.114 153.97 145.45 151.247 142.163 151.247C138.877 151.247 136.213 153.97 136.213 157.33C136.213 160.689 138.877 163.413 142.163 163.413Z" fill="#3F3D56"/>
<path d="M326.616 152.751H312.016C311.728 152.758 311.453 152.877 311.251 153.084C311.05 153.29 310.937 153.567 310.937 153.856C310.937 154.145 311.05 154.422 311.251 154.628C311.453 154.835 311.728 154.954 312.016 154.961H326.616C326.907 154.957 327.184 154.839 327.388 154.632C327.592 154.425 327.706 154.146 327.706 153.856C327.706 153.566 327.592 153.287 327.388 153.08C327.184 152.873 326.907 152.755 326.616 152.751Z" fill="#3F3D56"/>
<path d="M326.616 156.901H312.016C311.728 156.907 311.453 157.027 311.251 157.233C311.049 157.44 310.935 157.717 310.935 158.006C310.935 158.295 311.049 158.572 311.251 158.779C311.453 158.985 311.728 159.104 312.016 159.111H326.616C326.907 159.107 327.185 158.989 327.389 158.783C327.594 158.576 327.708 158.297 327.708 158.006C327.708 157.715 327.594 157.436 327.389 157.229C327.185 157.022 326.907 156.904 326.616 156.901Z" fill="#3F3D56"/>
<path d="M326.616 161.051H312.016C311.728 161.058 311.453 161.177 311.251 161.383C311.05 161.59 310.937 161.867 310.937 162.156C310.937 162.444 311.05 162.722 311.251 162.928C311.453 163.135 311.728 163.254 312.016 163.261H326.616C326.907 163.257 327.184 163.138 327.388 162.932C327.592 162.725 327.706 162.446 327.706 162.156C327.706 161.865 327.592 161.587 327.388 161.38C327.184 161.173 326.907 161.055 326.616 161.051Z" fill="#3F3D56"/>
<path d="M678.596 406.101C679.036 407.384 679.872 408.494 680.983 409.272C682.094 410.05 683.423 410.457 684.779 410.432L711.271 409.75C712.637 409.724 713.957 409.256 715.035 408.416C716.114 407.577 716.891 406.411 717.252 405.093L721 365.006C722.33 365.609 723.778 365.906 725.238 365.877C726.507 365.845 727.756 365.564 728.916 365.049C730.076 364.534 731.122 363.796 731.997 362.877C732.871 361.957 733.556 360.875 734.012 359.691C734.468 358.507 734.686 357.245 734.654 355.976C734.622 354.708 734.341 353.458 733.826 352.299C733.311 351.139 732.573 350.092 731.654 349.218C730.735 348.344 729.652 347.659 728.468 347.203C727.284 346.747 726.022 346.529 724.753 346.56C724.17 346.559 723.588 346.619 723.017 346.741C722.397 346.07 721.642 345.536 720.803 345.173C719.963 344.811 719.057 344.629 718.143 344.638L677.393 345.69C677.055 345.703 676.718 345.745 676.388 345.815C675.494 345.982 674.646 346.338 673.902 346.859C673.157 347.381 672.533 348.056 672.071 348.839C671.61 349.622 671.321 350.495 671.225 351.399C671.129 352.303 671.228 353.217 671.514 354.08L678.596 406.101ZM721.769 362.284L724.437 352.732C724.74 351.628 724.747 350.464 724.457 349.357C724.587 349.357 724.701 349.295 724.83 349.295C726.659 349.257 728.429 349.946 729.751 351.211C731.073 352.476 731.839 354.213 731.882 356.042C731.925 357.871 731.24 359.643 729.979 360.968C728.718 362.293 726.983 363.064 725.154 363.112C723.971 363.149 722.801 362.863 721.769 362.284Z" fill="#2F2E41"/>
<path d="M676.388 345.815C677.256 350.779 687.017 354.269 698.753 353.662C709.546 353.165 718.371 349.375 719.988 344.884C719.389 344.707 718.767 344.624 718.143 344.638L677.393 345.69C677.055 345.703 676.718 345.744 676.388 345.815Z" fill="#3F3D56"/>
<path d="M700.904 384.073C700.958 384.059 701.009 384.037 701.055 384.007L706.808 380.241C706.878 380.196 706.935 380.134 706.975 380.061C707.014 379.988 707.035 379.906 707.035 379.823C707.035 379.74 707.014 379.658 706.975 379.585C706.935 379.512 706.878 379.45 706.809 379.405L700.829 375.488C700.774 375.452 700.713 375.427 700.648 375.414C700.583 375.402 700.517 375.402 700.452 375.415C700.388 375.429 700.327 375.454 700.272 375.491C700.218 375.528 700.171 375.576 700.135 375.631C700.099 375.686 700.074 375.747 700.062 375.812C700.05 375.877 700.051 375.943 700.064 376.008C700.078 376.072 700.104 376.133 700.141 376.187C700.178 376.242 700.226 376.288 700.281 376.324L705.622 379.822L700.508 383.17C700.409 383.235 700.336 383.333 700.302 383.446C700.269 383.559 700.276 383.681 700.324 383.789C700.371 383.898 700.456 383.986 700.562 384.038C700.668 384.089 700.79 384.102 700.904 384.073Z" fill="#EA4638"/>
<path d="M691.818 384.492C691.914 384.468 692.001 384.415 692.068 384.341C692.134 384.266 692.177 384.174 692.19 384.075C692.204 383.977 692.188 383.876 692.144 383.787C692.1 383.698 692.03 383.623 691.944 383.574L686.641 380.533L691.766 376.726C691.819 376.687 691.863 376.638 691.897 376.582C691.931 376.525 691.953 376.463 691.963 376.398C691.972 376.333 691.969 376.267 691.953 376.203C691.937 376.14 691.908 376.08 691.869 376.027C691.83 375.974 691.781 375.93 691.725 375.896C691.668 375.863 691.606 375.84 691.541 375.831C691.476 375.821 691.41 375.825 691.346 375.841C691.283 375.857 691.223 375.885 691.17 375.924L685.432 380.187C685.365 380.236 685.312 380.301 685.276 380.377C685.241 380.452 685.225 380.535 685.23 380.617C685.235 380.7 685.261 380.781 685.304 380.851C685.348 380.922 685.409 380.98 685.481 381.021L691.446 384.441C691.559 384.506 691.692 384.524 691.818 384.492Z" fill="#EA4638"/>
<path d="M700.332 387.373C700.381 387.361 700.427 387.341 700.469 387.315C700.525 387.281 700.574 387.236 700.613 387.183C700.652 387.13 700.68 387.07 700.695 387.006C700.711 386.942 700.714 386.876 700.704 386.811C700.694 386.746 700.671 386.684 700.637 386.628L692.481 373.22C692.412 373.107 692.301 373.026 692.172 372.994C692.043 372.963 691.907 372.985 691.794 373.054C691.681 373.123 691.6 373.234 691.568 373.362C691.537 373.491 691.558 373.627 691.627 373.74L699.782 387.149C699.838 387.24 699.921 387.311 700.02 387.351C700.119 387.392 700.229 387.399 700.332 387.373Z" fill="#EA4638"/>
<path d="M241.84 225.827H197.649C195.846 225.827 194.385 227.289 194.385 229.091V233.409C194.385 235.211 195.846 236.673 197.649 236.673H241.84C243.642 236.673 245.104 235.211 245.104 233.409V229.091C245.104 227.289 243.642 225.827 241.84 225.827Z" fill="#EA4638"/>
<path d="M267.598 247.519H171.89C170.087 247.519 168.626 248.98 168.626 250.783V255.1C168.626 256.903 170.087 258.364 171.89 258.364H267.598C269.401 258.364 270.862 256.903 270.862 255.1V250.783C270.862 248.98 269.401 247.519 267.598 247.519Z" fill="#E6E6E6"/>
<path d="M267.598 269.21H171.89C170.087 269.21 168.626 270.671 168.626 272.474V276.792C168.626 278.594 170.087 280.056 171.89 280.056H267.598C269.401 280.056 270.862 278.594 270.862 276.792V272.474C270.862 270.671 269.401 269.21 267.598 269.21Z" fill="#E6E6E6"/>
<path d="M275.711 341.846L275.928 342.53L275.939 342.553L282.465 362.391L289.971 385.252L304.094 428.213L304.23 434.887V434.91L305.28 488.594L302.371 495.872L305.645 507.805C305.645 507.805 304.139 489.768 296.062 500.126C291.488 506.012 286.138 512.036 281.746 517.682C288.146 520.272 294.648 522.614 301.253 524.709C302.679 525.166 304.116 525.599 305.554 526.033C305.862 526.124 306.17 526.215 306.478 526.307C328.372 532.781 351.008 536.42 373.829 537.132C375.015 537.167 376.179 537.189 377.308 537.212C377.707 537.224 378.095 537.235 378.483 537.235C379.761 537.247 381.027 537.258 382.304 537.258C384.883 537.258 387.449 537.22 390.005 537.144C408.918 536.611 427.721 534.068 446.096 529.558C445.971 521.972 445.628 513.108 445.138 503.64C444.91 498.997 439.788 493.966 439.48 489.106C439.263 485.456 443.86 482.022 443.621 478.314C442.069 455.488 440.13 464.25 438.693 448.086C438.544 446.5 438.407 444.983 438.282 443.534C437.358 433.153 436.719 426.662 436.719 426.662L442.856 387.979L452.496 327.244L451.754 326.024L450.922 325.613L400.078 300.448L397.317 293.375C396.513 291.337 395.117 289.587 393.31 288.349C391.502 287.111 389.366 286.442 387.176 286.428L353.683 286.291C351.944 286.283 350.229 286.69 348.68 287.477C347.131 288.265 345.791 289.411 344.773 290.82L335.704 303.379L275.711 341.846Z" fill="#3F3D56"/>
<path d="M311.817 418.654L304.23 434.887L299.051 445.975L290.142 492.621L285.682 497.355L281.86 480.596L241.862 489.477C240.55 482.187 241.511 489.723 240.701 481.727C240.929 481.498 241.169 481.27 241.408 481.042C242.047 480.449 242.583 479.89 242.572 479.354C242.116 451.77 243.485 404.827 254.915 376.388C256.705 371.745 259.066 367.342 261.942 363.281C262.17 362.973 262.387 362.665 262.604 362.357C267.874 354.976 271.205 347.709 275.928 342.542V342.53C275.957 342.507 275.984 342.48 276.008 342.45C276.025 342.442 276.04 342.43 276.053 342.416L308.497 325.213L309.889 364.319L310.881 392.427L311.817 418.654Z" fill="#3F3D56"/>
<path d="M428.801 423.264L438.277 443.539L441.585 450.6L450.492 497.242L454.937 501.964L458.768 485.209L460.568 484.84L493.026 478.118L502.487 508.164C504.619 504.611 505.459 500.431 504.865 496.33C504.271 492.23 502.278 488.46 499.225 485.658C498.579 485.074 498.041 484.505 498.056 483.966C498.595 451.523 496.61 392.283 478.689 367.9C472.997 360.163 469.582 352.456 464.613 347.072C464.598 347.056 464.598 347.041 464.583 347.041L452.491 327.243L451.753 326.027L450.922 325.612L428.801 423.264Z" fill="#3F3D56"/>
<path d="M371.397 276.759C396.005 276.759 415.955 256.809 415.955 232.201C415.955 207.592 396.005 187.642 371.397 187.642C346.788 187.642 326.838 207.592 326.838 232.201C326.838 256.809 346.788 276.759 371.397 276.759Z" fill="#FFB6B6"/>
<path d="M431.622 201.077C431.277 200.708 430.861 200.412 430.398 200.208C429.936 200.003 429.438 199.894 428.932 199.887L429.602 198.027C429.821 197.441 429.88 196.807 429.773 196.191C429.667 195.575 429.398 194.998 428.995 194.52C428.592 194.042 428.069 193.679 427.48 193.47C426.891 193.26 426.257 193.211 425.642 193.327L423.202 193.797L423.432 192.167C423.52 191.56 423.449 190.94 423.225 190.369C423.001 189.798 422.633 189.295 422.155 188.909C421.678 188.524 421.109 188.269 420.503 188.171C419.898 188.072 419.277 188.133 418.702 188.347C418.179 188.553 417.617 188.639 417.056 188.599C416.496 188.559 415.951 188.395 415.462 188.117C414.972 187.848 414.546 187.475 414.214 187.024C413.882 186.573 413.653 186.055 413.542 185.507L412.692 181.407L412.602 181.187C408.462 174.287 400.502 169.267 390.762 167.427C382.092 165.777 373.202 166.617 364.632 167.407C361.232 167.727 357.392 168.087 354.192 170.047C351.472 171.727 349.172 175.087 349.642 178.477C341.192 175.887 332.132 181.057 327.642 187.577C322.322 195.337 321.452 205.057 321.312 212.657C320.932 230.637 324.642 245.347 332.312 256.387C332.872 257.187 333.012 258.857 334.122 259.417L333.892 259.047C335.132 259.667 336.392 260.667 335.922 261.737C334.572 264.817 343.542 271.627 349.862 273.877C361.392 277.987 376.722 277.637 387.502 276.157L387.882 273.607C391.772 273.077 394.512 272.067 395.282 270.487C396.642 269.327 397.802 268.287 398.812 267.327L398.822 267.317C398.842 267.297 398.882 267.267 398.902 267.247C403.772 262.577 404.902 259.917 405.412 255.867C405.902 251.897 405.032 247.867 404.142 244.237C422.882 247.137 396.762 224.277 414.222 219.857C414.422 219.795 414.626 219.745 414.832 219.707C415.342 219.587 415.852 219.467 416.342 219.327C418.704 218.686 420.966 217.72 423.062 216.457C427.942 213.487 429.552 209.547 432.072 205.107C432.436 204.475 432.588 203.743 432.507 203.018C432.426 202.293 432.116 201.613 431.622 201.077Z" fill="#2F2E41"/>
<path d="M528.992 426.437C528.982 428.187 528.962 430.637 528.882 433.667C528.872 434.087 528.862 434.517 528.852 434.957C528.722 440.527 528.592 445.197 528.382 450.387C528.372 450.747 528.362 451.097 528.342 451.457C528.062 458.697 527.622 467.127 526.862 480.477C525.452 505.137 522.992 483.867 520.522 492.517C520.402 492.947 520.272 493.457 520.152 494.057C519.778 496.234 519.147 498.359 518.272 500.387C516.962 501.167 515.612 501.917 514.282 502.667C510.492 504.777 506.642 506.807 502.762 508.737C500.582 509.817 498.392 510.877 496.192 511.897C495.842 512.057 495.502 512.217 495.162 512.367C483.896 517.578 472.286 522.008 460.412 525.627C458.092 526.327 455.782 527.007 453.442 527.637C451.002 528.317 448.562 528.957 446.092 529.557C427.718 534.068 408.915 536.612 390.002 537.147C387.452 537.227 384.882 537.257 382.302 537.257C381.022 537.257 379.762 537.247 378.482 537.237C378.092 537.237 377.702 537.227 377.312 537.217C376.182 537.187 375.012 537.167 373.832 537.137C351.011 536.425 328.376 532.785 306.482 526.307L305.552 526.037C304.112 525.597 302.682 525.167 301.252 524.707C294.652 522.617 288.149 520.277 281.742 517.687C276.852 515.717 272.019 513.604 267.242 511.347C267.199 511.335 267.158 511.315 267.122 511.287C266.122 510.827 265.112 510.347 264.112 509.857C263.982 509.787 263.842 509.717 263.702 509.647C259.972 507.827 256.282 505.92 252.632 503.927C249.562 496.877 245.242 495.527 242.562 489.327C241.782 487.485 241.219 485.559 240.882 483.587C240.882 483.567 240.872 483.547 240.872 483.517C241.152 487.237 239.682 476.917 240.862 483.477C240.852 483.357 240.842 483.227 240.832 483.077C240.802 482.717 240.762 482.277 240.702 481.727C237.272 448.237 237.492 409.937 236.002 378.377C235.902 376.337 235.799 374.384 235.692 372.517C235.662 371.897 235.622 371.287 235.582 370.687C235.652 370.507 235.732 370.317 235.822 370.137C235.841 370.085 235.865 370.035 235.892 369.987C235.922 369.925 235.955 369.865 235.992 369.807C236.012 369.777 236.042 369.737 236.062 369.707C236.077 369.673 236.094 369.639 236.112 369.607C236.202 369.467 236.302 369.317 236.412 369.177C236.462 369.117 236.502 369.067 236.552 369.017C236.587 368.966 236.627 368.919 236.672 368.877C236.703 368.829 236.74 368.785 236.782 368.747C236.822 368.707 236.862 368.657 236.912 368.607C236.934 368.575 236.961 368.548 236.992 368.527C237.071 368.436 237.158 368.352 237.252 368.277C237.609 367.949 237.99 367.648 238.392 367.377C238.532 367.287 238.682 367.197 238.822 367.097C239.83 366.494 240.891 365.985 241.992 365.577C242.372 365.437 242.752 365.307 243.162 365.167C243.312 365.127 243.452 365.077 243.602 365.027C243.822 364.957 244.042 364.887 244.272 364.837C245.412 364.497 246.642 364.207 247.972 363.937C248.132 363.907 248.302 363.877 248.472 363.837C248.712 363.787 248.962 363.747 249.212 363.707C249.552 363.647 249.902 363.587 250.252 363.527C253.222 363.057 256.592 362.707 260.312 362.477C260.662 362.457 261.012 362.437 261.362 362.417C261.772 362.397 262.182 362.377 262.602 362.357C262.952 362.337 263.312 362.327 263.672 362.317C264.022 362.297 264.382 362.287 264.752 362.277C265.762 362.247 266.802 362.217 267.862 362.197C270.882 362.137 274.062 362.157 277.402 362.227C278.952 362.267 280.532 362.307 282.152 362.377C282.262 362.377 282.362 362.387 282.462 362.387C283.872 362.437 285.292 362.497 286.752 362.577C287.772 362.627 288.802 362.677 289.832 362.737C290.802 362.797 291.782 362.857 292.772 362.927C293.542 362.967 294.312 363.027 295.092 363.077C295.752 363.127 296.412 363.177 297.072 363.217L297.972 363.277C298.462 363.317 298.952 363.347 299.452 363.397C300.552 363.487 301.652 363.577 302.772 363.667C303.882 363.767 305.012 363.867 306.142 363.967C307.272 364.067 308.412 364.177 309.552 364.287C309.672 364.297 309.782 364.307 309.892 364.317C310.932 364.427 311.972 364.527 313.022 364.637C313.262 364.657 313.512 364.677 313.752 364.707C314.753 364.807 315.774 364.925 316.784 365.033C317.094 365.066 317.403 365.098 317.714 365.132C318.505 365.219 319.285 365.293 320.082 365.387C321.132 365.507 322.202 365.617 323.242 365.757C324.052 365.847 324.862 365.937 325.672 366.037C326.942 366.187 328.232 366.347 329.522 366.517C330.012 366.577 330.502 366.637 330.992 366.707C334.672 367.167 338.392 367.677 342.172 368.207C347.902 369.017 353.722 369.897 359.582 370.847C365.452 371.797 371.356 372.8 377.292 373.857C378.792 374.127 380.292 374.397 381.802 374.677C382.482 374.807 383.162 374.937 383.842 375.067C385.002 375.277 386.162 375.497 387.322 375.717C388.482 375.937 389.642 376.157 390.802 376.387C392.182 376.657 393.572 376.927 394.952 377.197C404.042 378.997 413.082 380.917 421.902 382.927C423.352 383.257 424.802 383.597 426.242 383.927C429.122 384.597 431.976 385.277 434.802 385.967C435.582 386.147 436.352 386.337 437.122 386.527C439.042 387.007 440.962 387.487 442.852 387.977L443.182 388.067C444.572 388.407 445.932 388.757 447.292 389.117C450.502 389.957 453.659 390.807 456.762 391.667C458.822 392.237 460.859 392.814 462.872 393.397C465.882 394.267 468.832 395.147 471.702 396.037C472.412 396.257 473.122 396.477 473.822 396.687C475.922 397.337 477.992 397.997 480.002 398.657C481.602 399.177 483.162 399.707 484.702 400.237C486.242 400.767 487.752 401.297 489.232 401.827C490.182 402.167 491.122 402.527 492.062 402.867C493.412 403.367 494.742 403.867 496.042 404.367C496.442 404.517 496.832 404.677 497.222 404.827C497.472 404.937 497.712 405.027 497.952 405.127C498.422 405.317 498.902 405.497 499.362 405.687C499.832 405.867 500.292 406.057 500.752 406.257C501.202 406.437 501.662 406.627 502.102 406.817C502.552 406.997 502.992 407.187 503.432 407.387C503.802 407.537 504.162 407.697 504.512 407.857C505.222 408.167 505.932 408.477 506.622 408.797C506.962 408.957 507.302 409.107 507.642 409.267L508.422 409.627C508.532 409.687 508.642 409.737 508.752 409.787C509.002 409.907 509.262 410.037 509.512 410.157C510.092 410.427 510.662 410.717 511.222 410.987C511.972 411.367 512.702 411.747 513.402 412.117C514.112 412.497 514.802 412.877 515.462 413.247C515.572 413.307 515.672 413.367 515.782 413.427C515.932 413.507 516.082 413.597 516.232 413.677C516.742 413.967 517.232 414.267 517.722 414.557C518.682 415.147 519.592 415.727 520.442 416.307C520.632 416.437 520.812 416.567 521.002 416.687C521.632 417.137 522.232 417.577 522.792 418.027C522.792 418.037 522.792 418.037 522.802 418.037C522.992 418.177 523.172 418.327 523.352 418.467C523.502 418.607 523.662 418.727 523.812 418.867C524.332 419.317 524.812 419.747 525.252 420.187C525.4 420.323 525.54 420.466 525.672 420.617C525.73 420.665 525.784 420.719 525.832 420.777C526.032 420.977 526.212 421.177 526.382 421.377C526.409 421.404 526.432 421.434 526.452 421.467C526.692 421.747 526.912 422.027 527.122 422.307C527.222 422.447 527.332 422.587 527.422 422.727C527.542 422.897 527.662 423.077 527.762 423.247C527.852 423.387 527.932 423.537 528.012 423.677C528.224 424.037 528.405 424.415 528.552 424.807C528.665 425.072 528.755 425.346 528.822 425.627C528.898 425.892 528.955 426.163 528.992 426.437Z" fill="#2F2E41"/>
<path opacity="0.2" d="M528.992 426.437C528.982 428.187 528.962 430.637 528.882 433.667C528.872 434.087 528.852 434.517 528.842 434.957C528.742 439.207 528.592 444.457 528.382 450.387C528.372 450.747 528.362 451.097 528.342 451.457C528.062 458.697 527.622 467.127 526.862 480.477C525.452 505.137 522.992 483.867 520.522 492.517C513.662 488.297 506.142 483.877 498.102 479.337C496.652 478.517 495.189 477.693 493.712 476.867C477.632 467.897 459.672 458.497 440.922 449.187C440.182 448.817 439.432 448.447 438.692 448.087C395.742 426.857 348.862 406.207 310.882 392.427C303.552 389.767 296.552 387.367 289.972 385.257C276.112 380.827 264.132 377.727 254.912 376.387C245.312 374.987 238.682 375.487 236.002 378.377C235.902 376.337 235.799 374.383 235.692 372.517C235.652 371.897 235.612 371.287 235.572 370.687C235.634 370.522 235.714 370.365 235.792 370.207C235.803 370.183 235.811 370.16 235.822 370.137C235.841 370.085 235.865 370.035 235.892 369.987C235.922 369.925 235.955 369.865 235.992 369.807C236.025 369.736 236.065 369.669 236.112 369.607C236.202 369.467 236.302 369.317 236.412 369.177C236.493 369.072 236.58 368.972 236.672 368.877C236.703 368.829 236.74 368.785 236.782 368.747C236.822 368.707 236.862 368.657 236.912 368.607C236.934 368.575 236.961 368.548 236.992 368.527C237.071 368.436 237.158 368.352 237.252 368.277C237.609 367.948 237.99 367.648 238.392 367.377C238.532 367.287 238.682 367.197 238.822 367.097C239.83 366.494 240.891 365.985 241.992 365.577C242.372 365.437 242.752 365.307 243.162 365.167C243.312 365.127 243.452 365.077 243.602 365.027C243.822 364.957 244.042 364.887 244.272 364.837C245.412 364.497 246.642 364.207 247.972 363.937C248.372 363.857 248.792 363.777 249.212 363.707C249.552 363.647 249.902 363.587 250.252 363.527C253.222 363.057 256.592 362.707 260.312 362.477C260.662 362.457 261.012 362.437 261.362 362.417C261.772 362.397 262.182 362.377 262.602 362.357C262.952 362.337 263.312 362.327 263.672 362.317C264.022 362.297 264.382 362.287 264.752 362.277C265.762 362.247 266.802 362.217 267.862 362.197C270.882 362.147 274.062 362.167 277.402 362.237C278.952 362.267 280.532 362.317 282.152 362.387C282.252 362.387 282.362 362.397 282.462 362.397C283.872 362.437 285.302 362.507 286.752 362.577C287.772 362.627 288.802 362.677 289.832 362.737C290.802 362.797 291.782 362.857 292.772 362.927C293.542 362.967 294.312 363.027 295.092 363.077C295.752 363.127 296.412 363.177 297.072 363.217C297.862 363.277 298.652 363.337 299.452 363.397C300.552 363.487 301.652 363.577 302.772 363.667C303.882 363.767 305.012 363.867 306.142 363.967C307.272 364.067 308.412 364.177 309.552 364.287C309.672 364.297 309.782 364.307 309.892 364.317C310.932 364.427 311.972 364.527 313.022 364.637C318.842 365.227 324.832 365.917 330.992 366.707C334.672 367.177 338.399 367.68 342.172 368.217C347.902 369.027 353.722 369.907 359.582 370.847C365.452 371.797 371.356 372.8 377.292 373.857C378.792 374.127 380.292 374.397 381.802 374.677C383.642 375.017 385.482 375.363 387.322 375.717C388.482 375.937 389.642 376.157 390.802 376.387C392.182 376.657 393.572 376.927 394.952 377.197C404.042 378.997 413.082 380.917 421.902 382.927C423.352 383.257 424.802 383.597 426.242 383.927C429.122 384.597 431.976 385.277 434.802 385.967C435.582 386.157 436.352 386.347 437.122 386.537C439.052 387.017 440.962 387.497 442.852 387.977V387.987C442.962 388.007 443.072 388.037 443.182 388.067C444.562 388.417 445.932 388.767 447.292 389.127C450.502 389.967 453.659 390.813 456.762 391.667C458.822 392.247 460.862 392.817 462.872 393.397C465.882 394.277 468.832 395.157 471.702 396.037C472.412 396.257 473.122 396.477 473.822 396.687C475.922 397.347 477.982 398.003 480.002 398.657C481.602 399.177 483.162 399.707 484.702 400.237C486.242 400.767 487.752 401.297 489.232 401.827C490.192 402.167 491.132 402.517 492.062 402.857C493.422 403.357 494.742 403.857 496.042 404.367C496.442 404.517 496.832 404.677 497.222 404.827C497.952 405.107 498.662 405.397 499.362 405.687C499.832 405.867 500.292 406.057 500.752 406.257C501.202 406.437 501.662 406.627 502.102 406.817C502.552 406.997 502.992 407.187 503.432 407.387C503.802 407.537 504.162 407.697 504.512 407.857C505.222 408.167 505.932 408.477 506.622 408.797C506.962 408.957 507.302 409.107 507.642 409.267L508.422 409.627C508.532 409.687 508.642 409.737 508.752 409.787C509.602 410.187 510.422 410.587 511.222 410.987C511.972 411.367 512.702 411.747 513.402 412.117C514.232 412.557 515.022 412.987 515.782 413.427C515.932 413.507 516.082 413.597 516.232 413.677C516.742 413.967 517.232 414.267 517.722 414.557C518.682 415.147 519.592 415.727 520.442 416.307C521.282 416.887 522.062 417.457 522.792 418.027C522.792 418.037 522.792 418.037 522.802 418.037C523.152 418.317 523.492 418.597 523.812 418.867C524.332 419.317 524.812 419.747 525.252 420.187C525.4 420.322 525.54 420.466 525.672 420.617C525.73 420.665 525.784 420.718 525.832 420.777C526.042 421.007 526.252 421.237 526.452 421.467C526.692 421.747 526.912 422.027 527.122 422.307C527.222 422.447 527.332 422.587 527.422 422.727C527.542 422.897 527.662 423.077 527.762 423.247C527.852 423.387 527.932 423.537 528.012 423.677C528.224 424.037 528.405 424.415 528.552 424.807C528.662 425.073 528.752 425.347 528.822 425.627C528.898 425.892 528.955 426.163 528.992 426.437Z" fill="black"/>
</g>
</g>
<defs>
<clipPath id="clip0_58_64">
<rect width="702.435" height="611.83" fill="white"/>
</clipPath>
<clipPath id="clip1_58_64">
<rect width="786.82" height="572.258" fill="white" transform="translate(-15 -35)"/>
</clipPath>
</defs>
</svg>
