<svg width="703" height="612" viewBox="0 0 703 612" fill="none" xmlns="http://www.w3.org/2000/svg">
<path d="M633.342 318.406C633.434 394.113 604.171 466.908 551.705 521.488C548.542 524.799 545.293 528.031 541.96 531.183C536.88 536.015 531.631 540.659 526.21 545.116C475.504 586.892 412.202 610.367 346.517 611.755C344.329 611.805 342.132 611.83 339.927 611.83C287.542 611.83 221.654 583.849 161.861 545.116C156.914 541.911 152.011 538.633 147.152 535.28C144.881 533.727 142.621 532.152 140.372 530.556C117.31 514.272 95.4204 496.389 74.8635 477.039C61.4042 464.408 48.7829 450.912 37.08 436.638C-8.86324 379.966 -18.9967 328.903 46.5031 318.406C54.2581 317.167 61.7845 315.843 69.0825 314.433C79.6536 312.402 89.7706 310.208 99.4332 307.851C112.449 304.688 124.677 301.258 136.118 297.561C139.967 296.322 143.727 295.059 147.4 293.77C201.693 274.701 238.031 249.834 262.766 222.853C266.961 218.286 270.829 213.663 274.369 208.986C279.786 201.867 284.706 194.383 289.094 186.589C295.152 175.758 300.24 164.413 304.299 152.687L304.522 152.042C324.202 95.2721 318.215 42.6146 339.927 24.9905C432.738 -50.3537 548.286 56.9434 602.521 183.475C605.254 189.851 607.826 196.265 610.234 202.718C611.316 205.6 612.36 208.488 613.364 211.381C616.007 218.921 618.405 226.481 620.558 234.06C621.384 236.95 622.171 239.838 622.92 242.723C623.721 245.837 624.489 248.942 625.199 252.047C630.476 274.783 633.342 297.206 633.342 318.406Z" fill="#F2F2F2"/>
<path d="M346.517 611.755C344.329 611.805 342.132 611.83 339.927 611.83C287.542 611.83 221.654 583.849 161.861 545.116C156.914 541.911 152.011 538.633 147.152 535.28L151.414 509.347L280.423 492.219L345.171 541.73L346.517 611.755Z" fill="#2F2E41"/>
<path d="M352.728 148.698H334.344C333.775 148.698 333.229 148.924 332.826 149.327C332.423 149.729 332.197 150.275 332.197 150.845V169.237C332.197 169.519 332.253 169.797 332.361 170.057C332.469 170.317 332.627 170.553 332.827 170.752C333.026 170.95 333.263 171.108 333.523 171.215C333.783 171.322 334.062 171.377 334.344 171.376H352.728C353.296 171.376 353.841 171.151 354.243 170.75C354.646 170.349 354.873 169.805 354.875 169.237V150.845C354.873 150.276 354.647 149.731 354.244 149.328C353.842 148.926 353.297 148.699 352.728 148.698Z" fill="white"/>
<path d="M352.728 180.039H334.344C333.775 180.04 333.229 180.266 332.826 180.669C332.423 181.071 332.197 181.617 332.197 182.187V200.579C332.197 200.86 332.253 201.139 332.361 201.399C332.469 201.659 332.627 201.895 332.827 202.094C333.026 202.292 333.263 202.45 333.523 202.557C333.783 202.664 334.062 202.719 334.344 202.718H352.728C353.296 202.718 353.841 202.493 354.243 202.092C354.646 201.691 354.873 201.147 354.875 200.579V182.187C354.873 181.618 354.647 181.072 354.244 180.67C353.842 180.268 353.297 180.041 352.728 180.039Z" fill="#E6E6E6"/>
<path d="M352.728 211.381H334.344C333.775 211.382 333.228 211.608 332.826 212.011C332.423 212.413 332.197 212.959 332.197 213.529V231.912C332.196 232.195 332.251 232.474 332.359 232.735C332.467 232.996 332.625 233.233 332.824 233.432C333.024 233.632 333.261 233.79 333.522 233.897C333.782 234.005 334.062 234.06 334.344 234.06H352.728C353.297 234.059 353.843 233.833 354.246 233.43C354.649 233.028 354.875 232.482 354.875 231.912V213.529C354.873 212.96 354.647 212.414 354.244 212.012C353.842 211.61 353.297 211.383 352.728 211.381Z" fill="#E6E6E6"/>
<path d="M354.842 244.49C354.75 243.996 354.489 243.549 354.103 243.226C353.717 242.903 353.231 242.726 352.728 242.723H334.344C333.775 242.723 333.229 242.95 332.826 243.352C332.423 243.755 332.197 244.301 332.197 244.87V263.254C332.196 263.536 332.251 263.816 332.359 264.077C332.467 264.337 332.625 264.574 332.824 264.774C333.024 264.973 333.261 265.131 333.522 265.239C333.782 265.347 334.062 265.402 334.344 265.401H352.728C353.297 265.401 353.843 265.175 354.246 264.772C354.649 264.37 354.875 263.824 354.875 263.254V244.87C354.877 244.743 354.866 244.616 354.842 244.49Z" fill="#E6E6E6"/>
<path d="M353.562 274.23C353.298 274.121 353.014 274.065 352.728 274.065H334.344C334.062 274.064 333.782 274.119 333.522 274.227C333.261 274.335 333.024 274.493 332.824 274.693C332.625 274.892 332.467 275.129 332.359 275.39C332.251 275.651 332.196 275.93 332.197 276.212V294.596C332.196 294.878 332.25 295.158 332.358 295.419C332.465 295.68 332.623 295.918 332.823 296.117C333.023 296.317 333.26 296.475 333.521 296.582C333.782 296.69 334.062 296.745 334.344 296.743H352.728C353.297 296.743 353.843 296.517 354.246 296.114C354.649 295.711 354.875 295.165 354.875 294.596V276.212C354.874 275.79 354.749 275.376 354.516 275.024C354.282 274.672 353.951 274.396 353.562 274.23Z" fill="#E6E6E6"/>
<path d="M391.346 148.698H372.962C372.392 148.698 371.846 148.924 371.444 149.327C371.041 149.729 370.815 150.275 370.815 150.845V169.237C370.815 169.519 370.871 169.797 370.979 170.057C371.087 170.317 371.245 170.553 371.445 170.752C371.644 170.95 371.881 171.108 372.141 171.215C372.401 171.322 372.68 171.377 372.962 171.376H391.346C391.914 171.376 392.459 171.151 392.861 170.75C393.264 170.349 393.491 169.805 393.493 169.237V150.845C393.491 150.276 393.264 149.731 392.862 149.328C392.46 148.926 391.915 148.699 391.346 148.698Z" fill="#E6E6E6"/>
<path d="M391.346 180.039H372.962C372.392 180.04 371.846 180.266 371.444 180.669C371.041 181.071 370.815 181.617 370.815 182.187V200.579C370.815 200.86 370.871 201.139 370.979 201.399C371.087 201.659 371.245 201.895 371.445 202.094C371.644 202.292 371.881 202.45 372.141 202.557C372.401 202.664 372.68 202.719 372.962 202.718H391.346C391.914 202.718 392.459 202.493 392.861 202.092C393.264 201.691 393.491 201.147 393.493 200.579V182.187C393.491 181.618 393.264 181.072 392.862 180.67C392.46 180.268 391.915 180.041 391.346 180.039Z" fill="#EA4638"/>
<path d="M391.346 211.381H372.962C372.392 211.382 371.846 211.608 371.444 212.011C371.041 212.413 370.815 212.959 370.815 213.529V231.912C370.814 232.195 370.869 232.474 370.977 232.735C371.085 232.996 371.243 233.233 371.442 233.432C371.642 233.632 371.879 233.79 372.139 233.897C372.4 234.005 372.68 234.06 372.962 234.06H391.346C391.915 234.059 392.461 233.833 392.864 233.43C393.266 233.028 393.493 232.482 393.493 231.912V213.529C393.491 212.96 393.264 212.414 392.862 212.012C392.46 211.61 391.915 211.383 391.346 211.381Z" fill="#EA4638"/>
<path d="M391.346 242.723H372.962C372.511 242.723 372.073 242.866 371.708 243.129C371.343 243.393 371.071 243.766 370.93 244.193C370.854 244.411 370.815 244.64 370.815 244.87V263.254C370.814 263.536 370.869 263.816 370.977 264.077C371.084 264.337 371.243 264.574 371.442 264.774C371.642 264.973 371.879 265.131 372.139 265.239C372.4 265.347 372.68 265.402 372.962 265.401H391.346C391.915 265.401 392.461 265.175 392.864 264.772C393.266 264.37 393.493 263.824 393.493 263.254V244.87C393.491 244.301 393.264 243.756 392.862 243.354C392.46 242.951 391.915 242.725 391.346 242.723Z" fill="#EA4638"/>
<path d="M391.346 274.065H372.962C372.68 274.064 372.4 274.119 372.139 274.227C371.879 274.335 371.642 274.493 371.442 274.693C371.243 274.892 371.085 275.129 370.977 275.39C370.869 275.651 370.814 275.93 370.815 276.212V294.596C370.814 294.878 370.869 295.158 370.977 295.418C371.085 295.679 371.243 295.916 371.442 296.116C371.642 296.315 371.879 296.473 372.139 296.581C372.4 296.689 372.68 296.744 372.962 296.743H391.346C391.915 296.743 392.461 296.517 392.864 296.114C393.266 295.711 393.493 295.165 393.493 294.596V276.212C393.493 275.643 393.266 275.097 392.864 274.694C392.461 274.291 391.915 274.065 391.346 274.065Z" fill="#E6E6E6"/>
<path d="M429.963 148.698H411.579C411.01 148.698 410.464 148.924 410.061 149.327C409.659 149.729 409.433 150.275 409.432 150.845V169.237C409.433 169.519 409.488 169.797 409.596 170.057C409.705 170.317 409.863 170.553 410.062 170.752C410.262 170.95 410.498 171.108 410.759 171.215C411.019 171.322 411.298 171.377 411.579 171.376H429.963C430.531 171.376 431.076 171.151 431.479 170.75C431.882 170.349 432.109 169.805 432.111 169.237V150.845C432.109 150.276 431.882 149.731 431.48 149.328C431.077 148.926 430.532 148.699 429.963 148.698Z" fill="#EA4638"/>
<path d="M429.963 180.039H411.579C411.01 180.04 410.464 180.266 410.061 180.669C409.659 181.071 409.433 181.617 409.432 182.187V200.579C409.433 200.86 409.488 201.139 409.596 201.399C409.705 201.659 409.863 201.895 410.062 202.094C410.262 202.292 410.498 202.45 410.759 202.557C411.019 202.664 411.298 202.719 411.579 202.718H429.963C430.531 202.718 431.076 202.493 431.479 202.092C431.882 201.691 432.109 201.147 432.111 200.579V182.187C432.109 181.618 431.882 181.072 431.48 180.67C431.078 180.268 430.532 180.041 429.963 180.039Z" fill="#EA4638"/>
<path d="M429.963 211.381H411.579C411.01 211.382 410.464 211.608 410.061 212.011C409.659 212.413 409.433 212.959 409.432 213.529V231.912C409.432 232.195 409.487 232.474 409.595 232.735C409.702 232.996 409.86 233.233 410.06 233.432C410.259 233.632 410.496 233.79 410.757 233.897C411.018 234.005 411.297 234.06 411.579 234.06H429.963C430.533 234.059 431.079 233.833 431.481 233.43C431.884 233.028 432.11 232.482 432.111 231.912V213.529C432.109 212.96 431.882 212.414 431.48 212.012C431.078 211.61 430.532 211.383 429.963 211.381Z" fill="#E6E6E6"/>
<path d="M429.963 242.723H411.579C411.01 242.723 410.464 242.95 410.061 243.352C409.659 243.755 409.433 244.301 409.432 244.87V263.254C409.432 263.536 409.487 263.816 409.595 264.077C409.702 264.337 409.86 264.574 410.06 264.774C410.259 264.973 410.496 265.131 410.757 265.239C411.018 265.347 411.297 265.402 411.579 265.401H429.963C430.533 265.401 431.079 265.175 431.481 264.772C431.884 264.37 432.11 263.824 432.111 263.254V244.87C432.109 244.301 431.882 243.756 431.48 243.354C431.078 242.951 430.532 242.725 429.963 242.723Z" fill="#EA4638"/>
<path d="M429.963 274.065H411.579C411.297 274.064 411.018 274.119 410.757 274.227C410.496 274.335 410.259 274.493 410.06 274.693C409.86 274.892 409.702 275.129 409.595 275.39C409.487 275.651 409.432 275.93 409.432 276.212V294.596C409.432 294.878 409.487 295.158 409.595 295.418C409.702 295.679 409.86 295.916 410.06 296.116C410.259 296.315 410.496 296.473 410.757 296.581C411.018 296.689 411.297 296.744 411.579 296.743H429.963C430.533 296.743 431.079 296.517 431.481 296.114C431.884 295.711 432.11 295.165 432.111 294.596V276.212C432.11 275.643 431.884 275.097 431.481 274.694C431.079 274.291 430.533 274.065 429.963 274.065Z" fill="#EA4638"/>
<path d="M468.581 148.698H450.197C449.628 148.698 449.082 148.924 448.679 149.327C448.276 149.729 448.05 150.275 448.05 150.845V169.237C448.05 169.519 448.106 169.797 448.214 170.057C448.322 170.317 448.48 170.553 448.68 170.752C448.879 170.95 449.116 171.108 449.376 171.215C449.637 171.322 449.916 171.377 450.197 171.376H468.581C469.149 171.376 469.694 171.151 470.097 170.75C470.499 170.349 470.726 169.805 470.728 169.237V150.845C470.727 150.276 470.5 149.731 470.098 149.328C469.695 148.926 469.15 148.699 468.581 148.698Z" fill="#EA4638"/>
<path d="M468.581 180.039H450.197C449.628 180.04 449.082 180.266 448.679 180.669C448.276 181.071 448.05 181.617 448.05 182.187V200.579C448.05 200.86 448.106 201.139 448.214 201.399C448.322 201.659 448.48 201.895 448.68 202.094C448.879 202.292 449.116 202.45 449.376 202.557C449.637 202.664 449.916 202.719 450.197 202.718H468.581C469.149 202.718 469.694 202.493 470.097 202.092C470.499 201.691 470.726 201.147 470.728 200.579V182.187C470.727 181.618 470.5 181.072 470.098 180.67C469.695 180.268 469.15 180.041 468.581 180.039Z" fill="white"/>
<path d="M468.581 211.381H450.197C449.628 211.382 449.082 211.608 448.679 212.011C448.276 212.413 448.05 212.959 448.05 213.529V231.912C448.049 232.195 448.104 232.474 448.212 232.735C448.32 232.996 448.478 233.233 448.678 233.432C448.877 233.632 449.114 233.79 449.375 233.897C449.635 234.005 449.915 234.06 450.197 234.06H468.581C469.15 234.059 469.696 233.833 470.099 233.43C470.502 233.028 470.728 232.482 470.728 231.912V213.529C470.727 212.96 470.5 212.414 470.098 212.012C469.695 211.61 469.15 211.383 468.581 211.381Z" fill="white"/>
<path d="M468.581 242.723H450.197C449.628 242.723 449.082 242.95 448.679 243.352C448.276 243.755 448.05 244.301 448.05 244.87V263.254C448.049 263.536 448.104 263.816 448.212 264.077C448.32 264.337 448.478 264.574 448.678 264.774C448.877 264.973 449.114 265.131 449.375 265.239C449.635 265.347 449.915 265.402 450.197 265.401H468.581C469.15 265.401 469.696 265.175 470.099 264.772C470.502 264.37 470.728 263.824 470.728 263.254V244.87C470.727 244.301 470.5 243.756 470.098 243.354C469.695 242.951 469.15 242.725 468.581 242.723Z" fill="#E6E6E6"/>
<path d="M468.581 274.065H450.197C449.915 274.064 449.635 274.119 449.375 274.227C449.114 274.335 448.877 274.493 448.678 274.693C448.478 274.892 448.32 275.129 448.212 275.39C448.104 275.651 448.049 275.93 448.05 276.212V294.596C448.049 294.878 448.104 295.158 448.212 295.418C448.32 295.679 448.478 295.916 448.678 296.116C448.877 296.315 449.114 296.473 449.375 296.581C449.635 296.689 449.915 296.744 450.197 296.743H468.581C469.15 296.743 469.696 296.517 470.099 296.114C470.502 295.711 470.728 295.165 470.728 294.596V276.212C470.728 275.643 470.502 275.097 470.099 274.694C469.696 274.291 469.15 274.065 468.581 274.065Z" fill="#EA4638"/>
<path d="M507.199 148.698H488.807C488.238 148.7 487.694 148.927 487.293 149.329C486.892 149.732 486.667 150.277 486.667 150.845V169.237C486.668 169.804 486.893 170.348 487.294 170.749C487.695 171.151 488.239 171.376 488.807 171.376H507.199C507.767 171.376 508.312 171.151 508.714 170.75C509.117 170.349 509.344 169.805 509.346 169.237V150.845C509.344 150.276 509.118 149.731 508.715 149.328C508.313 148.926 507.768 148.699 507.199 148.698Z" fill="white"/>
<path d="M507.199 180.039H488.807C488.238 180.041 487.694 180.269 487.293 180.671C486.892 181.074 486.667 181.619 486.667 182.187V200.579C486.668 201.146 486.893 201.69 487.294 202.091C487.695 202.492 488.239 202.718 488.807 202.718H507.199C507.767 202.718 508.312 202.493 508.714 202.092C509.117 201.691 509.344 201.147 509.346 200.579V182.187C509.344 181.618 509.118 181.072 508.715 180.67C508.313 180.268 507.768 180.041 507.199 180.039Z" fill="white"/>
<path d="M507.199 211.381H488.807C488.238 211.383 487.694 211.61 487.293 212.013C486.892 212.415 486.667 212.96 486.667 213.529V231.912C486.667 232.194 486.721 232.473 486.829 232.733C486.936 232.994 487.093 233.23 487.292 233.43C487.49 233.629 487.726 233.787 487.986 233.895C488.246 234.004 488.525 234.059 488.807 234.06H507.199C507.768 234.059 508.314 233.833 508.717 233.43C509.119 233.028 509.346 232.482 509.346 231.912V213.529C509.344 212.96 509.118 212.414 508.715 212.012C508.313 211.61 507.768 211.383 507.199 211.381Z" fill="white"/>
<path d="M507.199 242.723H488.807C488.238 242.725 487.694 242.952 487.293 243.355C486.892 243.757 486.667 244.302 486.667 244.87V263.254C486.667 263.536 486.721 263.815 486.829 264.075C486.936 264.335 487.093 264.572 487.292 264.771C487.49 264.971 487.726 265.129 487.986 265.237C488.246 265.345 488.525 265.401 488.807 265.401H507.199C507.768 265.401 508.314 265.175 508.717 264.772C509.119 264.37 509.346 263.824 509.346 263.254V244.87C509.344 244.301 509.118 243.756 508.715 243.354C508.313 242.951 507.768 242.725 507.199 242.723Z" fill="#EA4638"/>
<path d="M507.199 274.065H488.807C488.525 274.065 488.246 274.121 487.986 274.229C487.726 274.337 487.49 274.496 487.292 274.695C487.093 274.894 486.936 275.131 486.829 275.391C486.721 275.652 486.667 275.931 486.667 276.212V294.596C486.667 294.878 486.721 295.156 486.829 295.417C486.936 295.677 487.093 295.914 487.292 296.113C487.49 296.313 487.726 296.471 487.986 296.579C488.246 296.687 488.525 296.743 488.807 296.743H507.199C507.768 296.743 508.314 296.517 508.717 296.114C509.119 295.711 509.346 295.165 509.346 294.596V276.212C509.346 275.643 509.119 275.097 508.717 274.694C508.314 274.291 507.768 274.065 507.199 274.065Z" fill="#E6E6E6"/>
<path d="M545.816 148.698H527.424C526.856 148.7 526.312 148.927 525.911 149.329C525.51 149.732 525.285 150.277 525.285 150.845V169.237C525.285 169.804 525.511 170.348 525.912 170.749C526.313 171.151 526.857 171.376 527.424 171.376H545.816C546.385 171.376 546.93 171.151 547.332 170.75C547.735 170.349 547.962 169.805 547.964 169.237V150.845C547.962 150.276 547.735 149.731 547.333 149.328C546.931 148.926 546.385 148.699 545.816 148.698Z" fill="white"/>
<path d="M545.816 180.039H527.424C526.856 180.041 526.312 180.269 525.911 180.671C525.51 181.074 525.285 181.619 525.285 182.187V200.579C525.285 201.146 525.511 201.69 525.912 202.091C526.313 202.492 526.857 202.718 527.424 202.718H545.816C546.385 202.718 546.93 202.493 547.332 202.092C547.735 201.691 547.962 201.147 547.964 200.579V182.187C547.962 181.618 547.735 181.072 547.333 180.67C546.931 180.268 546.385 180.041 545.816 180.039Z" fill="white"/>
<path d="M545.816 211.381H527.424C526.856 211.383 526.312 211.61 525.911 212.013C525.51 212.415 525.285 212.96 525.285 213.529V231.912C525.284 232.194 525.339 232.473 525.446 232.733C525.554 232.994 525.711 233.23 525.91 233.43C526.108 233.629 526.344 233.787 526.604 233.895C526.864 234.004 527.143 234.059 527.424 234.06H545.816C546.386 234.059 546.932 233.833 547.334 233.43C547.737 233.028 547.964 232.482 547.964 231.912V213.529C547.962 212.96 547.735 212.414 547.333 212.012C546.931 211.61 546.385 211.383 545.816 211.381Z" fill="#EA4638"/>
<path d="M545.816 242.723H527.424C526.856 242.725 526.312 242.952 525.911 243.355C525.51 243.757 525.285 244.302 525.285 244.87V263.254C525.284 263.536 525.339 263.815 525.446 264.075C525.553 264.335 525.711 264.572 525.91 264.771C526.108 264.971 526.344 265.129 526.604 265.237C526.864 265.345 527.143 265.401 527.424 265.401H545.816C546.386 265.401 546.932 265.175 547.335 264.772C547.737 264.37 547.964 263.824 547.964 263.254V244.87C547.962 244.301 547.735 243.756 547.333 243.354C546.931 242.951 546.385 242.725 545.816 242.723Z" fill="#E6E6E6"/>
<path d="M545.816 274.065H527.424C527.143 274.065 526.864 274.121 526.604 274.229C526.344 274.337 526.108 274.496 525.91 274.695C525.711 274.894 525.553 275.131 525.446 275.391C525.339 275.652 525.284 275.931 525.285 276.212V294.596C525.284 294.878 525.339 295.156 525.446 295.417C525.553 295.677 525.711 295.914 525.91 296.113C526.108 296.313 526.344 296.471 526.604 296.579C526.864 296.687 527.143 296.743 527.424 296.743H545.816C546.386 296.743 546.932 296.517 547.335 296.114C547.737 295.711 547.964 295.165 547.964 294.596V276.212C547.964 275.643 547.737 275.097 547.335 274.694C546.932 274.291 546.386 274.065 545.816 274.065Z" fill="white"/>
<path d="M584.434 148.698H566.042C565.474 148.7 564.93 148.927 564.529 149.329C564.128 149.732 563.903 150.277 563.903 150.845V169.237C563.903 169.804 564.128 170.348 564.53 170.749C564.931 171.151 565.475 171.376 566.042 171.376H584.434C585.002 171.376 585.547 171.151 585.95 170.75C586.352 170.349 586.579 169.805 586.581 169.237V150.845C586.58 150.276 586.353 149.731 585.951 149.328C585.548 148.926 585.003 148.699 584.434 148.698Z" fill="#EA4638"/>
<path d="M584.434 180.039H566.042C565.474 180.041 564.93 180.269 564.529 180.671C564.128 181.074 563.903 181.619 563.903 182.187V200.579C563.903 201.146 564.128 201.69 564.53 202.091C564.931 202.492 565.475 202.718 566.042 202.718H584.434C585.002 202.718 585.547 202.493 585.95 202.092C586.352 201.691 586.579 201.147 586.581 200.579V182.187C586.58 181.618 586.353 181.072 585.951 180.67C585.548 180.268 585.003 180.041 584.434 180.039Z" fill="#EA4638"/>
<path d="M584.434 211.381H566.042C565.474 211.383 564.93 211.61 564.529 212.013C564.128 212.415 563.903 212.96 563.903 213.529V231.912C563.902 232.194 563.957 232.473 564.064 232.733C564.171 232.994 564.329 233.23 564.527 233.43C564.726 233.629 564.962 233.787 565.222 233.895C565.482 234.004 565.761 234.059 566.042 234.06H584.434C585.004 234.059 585.55 233.833 585.952 233.43C586.355 233.028 586.581 232.482 586.581 231.912V213.529C586.58 212.96 586.353 212.414 585.951 212.012C585.548 211.61 585.003 211.383 584.434 211.381Z" fill="#E6E6E6"/>
<path d="M584.434 242.723H566.042C565.474 242.725 564.93 242.952 564.529 243.355C564.128 243.757 563.903 244.302 563.903 244.87V263.254C563.902 263.536 563.957 263.815 564.064 264.075C564.171 264.335 564.329 264.572 564.527 264.771C564.726 264.971 564.962 265.129 565.222 265.237C565.482 265.345 565.761 265.401 566.042 265.401H584.434C585.004 265.401 585.55 265.175 585.952 264.772C586.355 264.37 586.581 263.824 586.581 263.254V244.87C586.58 244.301 586.353 243.756 585.951 243.354C585.548 242.951 585.003 242.725 584.434 242.723Z" fill="white"/>
<path d="M584.434 274.065H566.042C565.761 274.065 565.482 274.121 565.222 274.229C564.962 274.337 564.726 274.496 564.527 274.695C564.329 274.894 564.171 275.131 564.064 275.391C563.957 275.652 563.902 275.931 563.903 276.212V294.596C563.902 294.878 563.957 295.156 564.064 295.417C564.171 295.677 564.329 295.914 564.527 296.113C564.726 296.313 564.962 296.471 565.222 296.579C565.482 296.687 565.761 296.743 566.042 296.743H584.434C585.004 296.743 585.55 296.517 585.952 296.114C586.355 295.711 586.581 295.165 586.581 294.596V276.212C586.581 275.643 586.355 275.097 585.952 274.694C585.55 274.291 585.004 274.065 584.434 274.065Z" fill="#EA4638"/>
<path d="M623.052 148.698H604.66C604.092 148.7 603.547 148.927 603.146 149.329C602.746 149.732 602.521 150.277 602.521 150.845V169.237C602.521 169.804 602.746 170.348 603.147 170.749C603.548 171.151 604.092 171.376 604.66 171.376H623.052C623.62 171.376 624.165 171.151 624.568 170.75C624.97 170.349 625.197 169.805 625.199 169.237V150.845C625.197 150.276 624.971 149.731 624.568 149.328C624.166 148.926 623.621 148.699 623.052 148.698Z" fill="#EA4638"/>
<path d="M623.052 180.039H604.66C604.092 180.041 603.547 180.269 603.146 180.671C602.745 181.074 602.52 181.619 602.521 182.187V200.579C602.521 201.146 602.746 201.69 603.147 202.091C603.548 202.492 604.092 202.718 604.66 202.718H623.052C623.62 202.718 624.165 202.493 624.568 202.092C624.97 201.691 625.197 201.147 625.199 200.579V182.187C625.197 181.618 624.971 181.072 624.568 180.67C624.166 180.268 623.621 180.041 623.052 180.039Z" fill="#EA4638"/>
<path d="M623.052 211.381H604.66C604.092 211.383 603.547 211.61 603.146 212.013C602.746 212.415 602.52 212.96 602.521 213.529V231.912C602.52 232.194 602.575 232.473 602.682 232.733C602.789 232.994 602.946 233.23 603.145 233.43C603.344 233.629 603.58 233.787 603.84 233.895C604.1 234.004 604.378 234.059 604.66 234.06H623.052C623.621 234.059 624.167 233.833 624.57 233.43C624.972 233.028 625.199 232.482 625.199 231.912V213.529C625.197 212.96 624.971 212.414 624.568 212.012C624.166 211.61 623.621 211.383 623.052 211.381Z" fill="#E6E6E6"/>
<path d="M623.052 242.723H604.66C604.092 242.725 603.547 242.952 603.146 243.355C602.746 243.757 602.52 244.302 602.521 244.87V263.254C602.52 263.536 602.575 263.815 602.682 264.075C602.789 264.335 602.946 264.572 603.145 264.771C603.344 264.971 603.58 265.129 603.84 265.237C604.1 265.345 604.378 265.401 604.66 265.401H623.052C623.621 265.401 624.167 265.175 624.57 264.772C624.973 264.37 625.199 263.824 625.199 263.254V244.87C625.197 244.301 624.971 243.756 624.568 243.354C624.166 242.951 623.621 242.725 623.052 242.723Z" fill="#EA4638"/>
<path d="M623.052 274.065H604.66C604.378 274.065 604.1 274.121 603.84 274.229C603.58 274.337 603.344 274.496 603.145 274.695C602.946 274.894 602.789 275.131 602.682 275.391C602.575 275.652 602.52 275.931 602.521 276.212V294.596C602.52 294.878 602.575 295.156 602.682 295.417C602.789 295.677 602.946 295.914 603.145 296.113C603.344 296.313 603.58 296.471 603.84 296.579C604.099 296.687 604.378 296.743 604.66 296.743H623.052C623.621 296.743 624.167 296.517 624.57 296.114C624.973 295.711 625.199 295.165 625.199 294.596V276.212C625.199 275.643 624.973 275.097 624.57 274.694C624.167 274.291 623.621 274.065 623.052 274.065Z" fill="#EA4638"/>
<path d="M661.67 148.698H643.277C642.709 148.7 642.165 148.927 641.764 149.329C641.363 149.732 641.138 150.277 641.138 150.845V169.237C641.139 169.804 641.364 170.348 641.765 170.749C642.166 171.151 642.71 171.376 643.277 171.376H661.67C662.238 171.376 662.783 171.151 663.185 170.75C663.588 170.349 663.815 169.805 663.817 169.237V150.845C663.815 150.276 663.588 149.731 663.186 149.328C662.784 148.926 662.239 148.699 661.67 148.698Z" fill="#E6E6E6"/>
<path d="M661.67 180.039H643.277C642.709 180.041 642.165 180.269 641.764 180.671C641.363 181.074 641.138 181.619 641.138 182.187V200.579C641.139 201.146 641.364 201.69 641.765 202.091C642.166 202.492 642.71 202.718 643.277 202.718H661.67C662.238 202.718 662.783 202.493 663.185 202.092C663.588 201.691 663.815 201.147 663.817 200.579V182.187C663.815 181.618 663.588 181.072 663.186 180.67C662.784 180.268 662.239 180.041 661.67 180.039Z" fill="#EA4638"/>
<path d="M661.67 211.381H643.277C642.709 211.383 642.165 211.61 641.764 212.013C641.363 212.415 641.138 212.96 641.138 213.529V231.912C641.138 232.194 641.192 232.473 641.299 232.733C641.407 232.994 641.564 233.23 641.763 233.43C641.961 233.629 642.197 233.787 642.457 233.895C642.717 234.004 642.996 234.059 643.277 234.06H661.67C662.239 234.059 662.785 233.833 663.188 233.43C663.59 233.028 663.817 232.482 663.817 231.912V213.529C663.815 212.96 663.588 212.414 663.186 212.012C662.784 211.61 662.239 211.383 661.67 211.381Z" fill="#EA4638"/>
<path d="M661.67 242.723H643.277C642.709 242.725 642.165 242.952 641.764 243.355C641.363 243.757 641.138 244.302 641.138 244.87V263.254C641.138 263.536 641.192 263.815 641.299 264.075C641.407 264.335 641.564 264.572 641.763 264.771C641.961 264.971 642.197 265.129 642.457 265.237C642.717 265.345 642.996 265.401 643.277 265.401H661.67C662.239 265.401 662.785 265.175 663.188 264.772C663.59 264.37 663.817 263.824 663.817 263.254V244.87C663.815 244.301 663.588 243.756 663.186 243.354C662.784 242.951 662.239 242.725 661.67 242.723Z" fill="#EA4638"/>
<path d="M661.67 274.065H643.277C642.996 274.065 642.717 274.121 642.457 274.229C642.197 274.337 641.961 274.496 641.763 274.695C641.564 274.894 641.407 275.131 641.299 275.391C641.192 275.652 641.138 275.931 641.138 276.212V294.596C641.138 294.878 641.192 295.156 641.299 295.417C641.407 295.677 641.564 295.914 641.763 296.113C641.961 296.313 642.197 296.471 642.457 296.579C642.717 296.687 642.996 296.743 643.277 296.743H661.67C662.239 296.743 662.785 296.517 663.188 296.114C663.59 295.711 663.817 295.165 663.817 294.596V276.212C663.817 275.643 663.59 275.097 663.188 274.694C662.785 274.291 662.239 274.065 661.67 274.065Z" fill="#E6E6E6"/>
<path d="M700.287 148.698H681.895C681.327 148.7 680.783 148.927 680.382 149.329C679.981 149.732 679.756 150.277 679.756 150.845V169.237C679.756 169.804 679.982 170.348 680.383 170.749C680.784 171.151 681.328 171.376 681.895 171.376H700.287C700.855 171.376 701.401 171.151 701.803 170.75C702.206 170.349 702.433 169.805 702.435 169.237V150.845C702.433 150.276 702.206 149.731 701.804 149.328C701.402 148.926 700.856 148.699 700.287 148.698Z" fill="#E6E6E6"/>
<path d="M700.287 180.039H681.895C681.327 180.041 680.783 180.269 680.382 180.671C679.981 181.074 679.756 181.619 679.756 182.187V200.579C679.756 201.146 679.982 201.69 680.383 202.091C680.784 202.492 681.328 202.718 681.895 202.718H700.287C700.855 202.718 701.401 202.493 701.803 202.092C702.206 201.691 702.433 201.147 702.435 200.579V182.187C702.433 181.618 702.206 181.072 701.804 180.67C701.402 180.268 700.856 180.041 700.287 180.039Z" fill="#E6E6E6"/>
<path d="M700.287 211.381H681.895C681.327 211.383 680.783 211.61 680.382 212.013C679.981 212.415 679.756 212.96 679.756 213.529V231.912C679.755 232.194 679.81 232.473 679.917 232.733C680.024 232.994 680.182 233.23 680.38 233.43C680.579 233.629 680.815 233.787 681.075 233.895C681.335 234.004 681.614 234.059 681.895 234.06H700.287C700.857 234.059 701.403 233.833 701.805 233.43C702.208 233.028 702.434 232.482 702.435 231.912V213.529C702.433 212.96 702.206 212.414 701.804 212.012C701.402 211.61 700.856 211.383 700.287 211.381Z" fill="#EA4638"/>
<path d="M700.287 242.723H681.895C681.327 242.725 680.783 242.952 680.382 243.355C679.981 243.757 679.756 244.302 679.756 244.87V263.254C679.755 263.536 679.81 263.815 679.917 264.075C680.024 264.335 680.182 264.572 680.38 264.771C680.579 264.971 680.815 265.129 681.075 265.237C681.335 265.345 681.614 265.401 681.895 265.401H700.287C700.857 265.401 701.403 265.175 701.805 264.772C702.208 264.37 702.434 263.824 702.435 263.254V244.87C702.433 244.301 702.206 243.756 701.804 243.354C701.402 242.951 700.856 242.725 700.287 242.723Z" fill="#E6E6E6"/>
<path d="M700.287 274.065H681.895C681.614 274.065 681.335 274.121 681.075 274.229C680.815 274.337 680.579 274.496 680.38 274.695C680.182 274.894 680.024 275.131 679.917 275.391C679.81 275.652 679.755 275.931 679.756 276.212V294.596C679.755 294.878 679.81 295.156 679.917 295.417C680.024 295.677 680.182 295.914 680.38 296.113C680.579 296.313 680.815 296.471 681.075 296.579C681.335 296.687 681.614 296.743 681.895 296.743H700.287C700.857 296.743 701.403 296.517 701.805 296.114C702.208 295.711 702.434 295.165 702.435 294.596V276.212C702.434 275.643 702.208 275.097 701.805 274.694C701.403 274.291 700.857 274.065 700.287 274.065Z" fill="#E6E6E6"/>
<path d="M277.571 545.117H277.059L277.497 545.059L277.571 545.117Z" fill="#2F2E41"/>
<path d="M233.568 202.384C264.731 202.384 289.993 177.121 289.993 145.958C289.993 114.796 264.731 89.5335 233.568 89.5335C202.406 89.5335 177.143 114.796 177.143 145.958C177.143 177.121 202.406 202.384 233.568 202.384Z" fill="#FFB6B6"/>
<path d="M282.981 104.589C282.981 104.589 297.739 76.3761 265.272 73.8113C265.272 73.8113 237.593 48.7029 209.38 69.2211C209.38 69.2211 193.991 69.2211 185.576 86.6351C185.576 86.6351 173.473 82.0449 170.813 94.3295C170.813 94.3295 161.957 119.977 170.813 143.06C179.67 166.143 182.611 168.708 182.611 168.708C182.611 168.708 168.059 120.313 203.481 117.748C238.903 115.184 278.542 93.0471 281.494 121.26C284.446 149.472 288.888 156.423 288.888 156.423C288.888 156.423 316.926 116.13 282.981 104.589Z" fill="#2F2E41"/>
<path d="M379.527 285.016L362.374 375.622L350.828 436.638L350.63 437.695L349.053 446.011L348.574 448.522L341.364 501.89L352.612 513.138L345.906 519.844L341.504 545.058L341.512 545.116H161.861C154.593 540.408 147.43 535.555 140.372 530.556L141.85 519.489C141.85 519.489 146.937 499.726 144.798 497.364C142.668 495.002 137.993 490.782 137.993 490.782L144.699 475.131L143.328 446.697L142.783 435.432L142.692 433.623L140.95 397.549L140.917 396.954L140.388 386.02L139.893 375.622L137.556 327.358L136.118 297.561L134.863 271.62L139.909 269.911L193.88 251.568L216.236 222.506L262.766 222.853L285.543 223.026L323.55 258.274L332.197 262.404L332.263 262.437L379.346 284.925L379.527 285.016Z" fill="#CACACA"/>
<path d="M222.249 460.465C218.84 461.786 215.182 462.343 211.533 462.098C207.885 461.852 204.335 460.809 201.133 459.043C197.931 457.277 195.155 454.83 193.001 451.876C190.848 448.921 189.368 445.529 188.666 441.941L100.662 429.455L131.255 394.85L210.135 412.012C216.241 411.232 222.422 412.721 227.505 416.194C232.588 419.667 236.22 424.885 237.714 430.857C239.207 436.83 238.457 443.143 235.607 448.6C232.757 454.057 228.004 458.278 222.249 460.465Z" fill="#FFB6B6"/>
<path d="M183.011 397.549C181.381 395.482 179.073 394.058 176.495 393.527L140.388 386.02L136.68 385.252C134.525 384.802 132.489 383.902 130.706 382.612C128.923 381.321 127.432 379.668 126.332 377.761C125.19 375.76 124.5 373.533 124.308 371.237C124.136 369.149 124.386 367.048 125.043 365.059L137.556 327.358L145.674 302.896C146.658 299.946 147.238 296.876 147.4 293.77C147.852 285.175 145.193 276.705 139.909 269.911C135.264 263.939 128.821 259.62 121.532 257.591C114.244 255.563 106.496 255.933 99.4332 258.646C99.2267 258.72 99.012 258.803 98.8055 258.885C93.7407 260.908 89.2156 264.08 85.5878 268.152C81.9601 272.225 79.3291 277.085 77.9027 282.348L69.0825 314.433L50.8885 380.578C49.0672 387.205 48.6993 394.147 49.8098 400.929C50.9204 407.712 53.4833 414.174 57.3231 419.874C61.1629 425.574 66.1889 430.377 72.0572 433.955C77.9254 437.532 84.4973 439.8 91.3231 440.602L143.328 446.697L167.394 449.521C170.177 449.856 172.984 449.129 175.255 447.487C177.526 445.845 179.096 443.407 179.65 440.66C179.689 440.51 179.719 440.358 179.741 440.205L185.216 406.592L185.266 406.287C185.521 404.754 185.452 403.184 185.064 401.679C184.676 400.174 183.976 398.767 183.011 397.549Z" fill="#CACACA"/>
<path d="M278.304 461.428C281.866 462.255 285.566 462.291 289.143 461.533C292.72 460.776 296.088 459.243 299.009 457.043C301.93 454.843 304.333 452.029 306.048 448.8C307.764 445.571 308.751 442.005 308.939 438.353L394.303 413.582L359.136 383.637L283.465 411.75C277.309 411.84 271.4 414.185 266.858 418.341C262.315 422.496 259.455 428.174 258.819 434.297C258.183 440.421 259.815 446.565 263.406 451.565C266.997 456.566 272.298 460.075 278.304 461.428Z" fill="#FFB6B6"/>
<path d="M436.686 358.172L396.086 264.733C392.765 257.061 386.834 250.814 379.346 247.1C377.031 245.961 374.6 245.075 372.095 244.457C371.706 244.358 371.318 244.267 370.93 244.193C365.618 243.034 360.108 243.136 354.842 244.49C350.029 245.727 345.53 247.964 341.639 251.057C337.749 254.149 334.554 258.026 332.263 262.437C332.238 262.473 332.216 262.512 332.197 262.552C329.638 267.503 328.277 272.986 328.224 278.558C328.17 284.131 329.427 289.639 331.891 294.637L332.395 295.645L361.086 353.266C362.065 355.236 362.617 357.392 362.705 359.59C362.794 361.789 362.416 363.982 361.597 366.024C360.778 368.066 359.537 369.913 357.954 371.442C356.372 372.971 354.484 374.148 352.414 374.895L314.16 388.712C311.44 389.683 309.204 391.67 307.921 394.257C306.637 396.843 306.408 399.826 307.28 402.579L307.371 402.868L317.529 435.374C317.579 435.523 317.628 435.671 317.686 435.82C317.775 436.1 317.886 436.374 318.016 436.638C319.096 439.059 321.004 441.015 323.398 442.155C325.791 443.295 328.513 443.544 331.073 442.856L350.63 437.695L405.121 423.3C411.766 421.544 417.953 418.373 423.259 414.003C428.564 409.634 432.863 404.17 435.861 397.985C438.858 391.8 440.484 385.04 440.627 378.168C440.769 371.297 439.425 364.476 436.686 358.172Z" fill="#CACACA"/>
<path d="M37.08 436.638C48.7829 450.912 61.4042 464.408 74.8635 477.039H448.132C451.729 477.045 455.176 478.476 457.718 481.02C460.26 483.564 461.69 487.012 461.693 490.608L462.23 585.195C485.193 574.645 506.698 561.174 526.21 545.116C531.628 540.664 536.878 536.02 541.96 531.183C545.288 528.028 548.536 524.797 551.705 521.488C575.46 496.74 594.696 468.023 608.541 436.638L37.08 436.638Z" fill="#3F3D56"/>
<path d="M551.705 521.488C548.542 524.799 545.293 528.031 541.96 531.183L462.503 531.183V521.487L551.705 521.488Z" fill="white"/>
<path d="M378.784 211.381C378.392 210.657 377.811 210.052 377.103 209.63C376.395 209.209 375.586 208.986 374.762 208.986H104.009C102.795 208.989 101.632 209.474 100.774 210.333C99.9163 211.192 99.4342 212.356 99.4333 213.57V375.622H379.346V213.57C379.35 212.804 379.157 212.05 378.784 211.381Z" fill="#3F3D56"/>
<path d="M99.1881 371.235V391.232C99.188 392.061 99.3514 392.882 99.6686 393.648C99.9858 394.414 100.451 395.11 101.037 395.696C101.623 396.282 102.319 396.747 103.085 397.065C103.851 397.382 104.672 397.545 105.501 397.545H208.815V437.011H207.442C207.334 437.011 207.228 437.032 207.128 437.073C207.029 437.114 206.938 437.175 206.862 437.251C206.786 437.327 206.726 437.418 206.684 437.517C206.643 437.617 206.622 437.723 206.622 437.831V440.576C206.622 440.684 206.643 440.79 206.684 440.89C206.726 440.989 206.786 441.08 206.862 441.156C206.938 441.232 207.029 441.292 207.128 441.334C207.228 441.375 207.334 441.396 207.442 441.396H271.578C271.686 441.396 271.792 441.375 271.892 441.334C271.991 441.292 272.082 441.232 272.158 441.156C272.234 441.08 272.294 440.989 272.336 440.89C272.377 440.79 272.398 440.684 272.398 440.576V437.831C272.398 437.723 272.377 437.617 272.336 437.517C272.294 437.418 272.234 437.327 272.158 437.251C272.082 437.175 271.991 437.114 271.892 437.073C271.792 437.032 271.686 437.011 271.578 437.011H270.205V397.545H373.519C374.348 397.545 375.169 397.382 375.935 397.065C376.701 396.747 377.397 396.282 377.983 395.696C378.569 395.11 379.034 394.414 379.351 393.648C379.669 392.882 379.832 392.061 379.832 391.232V371.235H99.1881Z" fill="#3F3D56"/>
<path d="M236.119 313.839C250.398 313.839 261.974 302.264 261.974 287.984C261.974 273.705 250.398 262.129 236.119 262.129C221.84 262.129 210.264 273.705 210.264 287.984C210.264 302.264 221.84 313.839 236.119 313.839Z" fill="#EA4638"/>
<path d="M301.995 142.875H297.865C297.865 111.657 266.969 91.2005 235.801 91.184C231.268 91.1708 226.744 91.6107 222.298 92.4971C217.293 93.4965 212.099 94.694 206.995 96.2549C186.868 102.424 168.203 114.35 168.203 142.875C168.199 148.415 168.904 153.933 170.301 159.294L166.304 160.334C164.821 154.633 164.072 148.766 164.074 142.875C164.074 117.95 174.307 100.83 191.98 90.6224C201.271 85.2543 212.611 81.7939 225.602 80.1091C231.008 79.3899 236.473 79.2239 241.912 79.6136C277.755 82.1903 301.995 109.675 301.995 142.875Z" fill="#EA4638"/>
<path d="M308.874 145.163L307.247 133.138C306.846 130.102 305.383 127.305 303.118 125.243C301.663 123.899 299.923 122.903 298.027 122.331C296.131 121.758 294.13 121.625 292.175 121.939L289.59 122.295C288.883 122.388 288.201 122.62 287.584 122.979C286.967 123.338 286.428 123.815 285.997 124.384C285.563 124.951 285.245 125.598 285.062 126.288C284.88 126.979 284.835 127.698 284.932 128.406L288.69 156.106C288.845 157.235 289.351 158.286 290.136 159.112C290.922 159.938 291.947 160.495 293.067 160.706C293.399 160.772 293.736 160.805 294.074 160.805C294.318 160.805 294.56 160.788 294.801 160.755L297.692 160.367C299.454 160.133 301.15 159.542 302.675 158.628C304.201 157.715 305.523 156.5 306.562 155.057C306.785 154.743 306.999 154.421 307.198 154.091C308.745 151.388 309.336 148.243 308.874 145.163Z" fill="#EA4638"/>
<path d="M287.922 122.798C287.164 123.167 286.504 123.71 285.997 124.384C285.563 124.951 285.245 125.598 285.062 126.288C284.88 126.979 284.835 127.698 284.932 128.406L288.69 156.106C288.845 157.235 289.351 158.286 290.136 159.112C290.922 159.938 291.947 160.495 293.067 160.706L287.922 122.798Z" fill="white"/>
<path d="M308.874 145.163L307.247 133.138C306.846 130.102 305.383 127.305 303.118 125.243L306.859 152.802C306.915 153.245 307.029 153.678 307.198 154.091C308.745 151.388 309.336 148.243 308.874 145.163Z" fill="#3F3D56"/>
<path d="M296.016 153.827C297.145 153.674 297.714 150.985 297.284 147.821C296.855 144.657 295.591 142.216 294.461 142.37C293.331 142.523 292.763 145.212 293.192 148.376C293.622 151.54 294.886 153.98 296.016 153.827Z" fill="#3F3D56"/>
<path d="M293.538 138.961C294.668 138.808 295.236 136.119 294.807 132.955C294.378 129.791 293.114 127.351 291.984 127.504C290.854 127.657 290.286 130.346 290.715 133.51C291.144 136.674 292.408 139.115 293.538 138.961Z" fill="#3F3D56"/>
<path d="M309.229 144.742C310.359 144.589 310.927 141.9 310.498 138.736C310.069 135.572 308.805 133.132 307.675 133.285C306.545 133.438 305.977 136.127 306.406 139.291C306.836 142.455 308.1 144.896 309.229 144.742Z" fill="#3F3D56"/>
<path d="M235.801 91.184C231.268 91.1708 226.744 91.6107 222.298 92.4971C217.293 93.4965 212.099 94.694 206.995 96.2549C199.025 95.8667 193.161 93.802 191.98 90.6224C201.271 85.2543 212.611 81.7939 225.602 80.1091C231.008 79.3899 236.473 79.2239 241.912 79.6136C242.488 79.9511 242.986 80.4068 243.373 80.9505C243.761 81.4943 244.028 82.1138 244.159 82.7684C244.547 85.6425 241.268 88.6981 235.801 91.184Z" fill="#3F3D56"/>
<path d="M183.077 171.533L176.718 145.097C176.491 144.143 175.988 143.278 175.271 142.609C174.554 141.941 173.655 141.499 172.688 141.339C172.415 141.297 172.139 141.275 171.862 141.273C171.473 141.274 171.084 141.322 170.706 141.414L168.245 142.008C165.076 142.774 162.341 144.767 160.639 147.547C158.938 150.328 158.409 153.67 159.168 156.841L162.018 168.7C162.668 171.492 164.218 173.993 166.428 175.819C166.786 176.108 167.161 176.376 167.551 176.62C168.935 177.488 170.48 178.07 172.092 178.331C173.705 178.592 175.354 178.527 176.941 178.14L179.394 177.545C180.043 177.394 180.653 177.11 181.186 176.711C181.979 176.133 182.583 175.332 182.919 174.41C183.256 173.488 183.311 172.486 183.077 171.533Z" fill="#EA4638"/>
<path d="M169.746 166.614C170.855 166.347 171.148 163.615 170.401 160.511C169.654 157.406 168.149 155.106 167.041 155.373C165.932 155.64 165.639 158.372 166.386 161.477C167.133 164.581 168.637 166.881 169.746 166.614Z" fill="#3F3D56"/>
<path d="M161.487 169.092C162.596 168.825 162.889 166.092 162.142 162.988C161.395 159.884 159.891 157.584 158.782 157.851C157.673 158.117 157.38 160.85 158.127 163.954C158.874 167.058 160.379 169.359 161.487 169.092Z" fill="#3F3D56"/>
<path d="M183.482 171.434L177.123 144.998C176.875 143.966 176.328 143.03 175.551 142.307C174.774 141.584 173.801 141.107 172.754 140.934L181.434 177.042C182.291 176.414 182.943 175.546 183.308 174.548C183.672 173.55 183.733 172.466 183.482 171.434Z" fill="white"/>
<path d="M160.605 151.605C160.43 150.87 160.101 150.18 159.639 149.581C158.745 151.897 158.581 154.43 159.168 156.841L162.018 168.7C162.668 171.492 164.218 173.993 166.428 175.819L160.605 151.605Z" fill="#3F3D56"/>
</svg>
