<svg width="26" height="26" viewBox="0 0 26 26" fill="none" xmlns="http://www.w3.org/2000/svg">
<path d="M13.1249 25.4199C6.22119 25.4199 0.624939 19.8237 0.624939 12.9199C0.624939 6.01617 6.22119 0.419922 13.1249 0.419922C20.0287 0.419922 25.6249 6.01617 25.6249 12.9199C25.6249 19.8237 20.0287 25.4199 13.1249 25.4199ZM13.1249 22.9199C15.7771 22.9199 18.3206 21.8664 20.196 19.991C22.0714 18.1156 23.1249 15.5721 23.1249 12.9199C23.1249 10.2678 22.0714 7.72422 20.196 5.84885C18.3206 3.97349 15.7771 2.91992 13.1249 2.91992C10.4728 2.91992 7.92923 3.97349 6.05387 5.84885C4.17851 7.72422 3.12494 10.2678 3.12494 12.9199C3.12494 15.5721 4.17851 18.1156 6.05387 19.991C7.92923 21.8664 10.4728 22.9199 13.1249 22.9199ZM14.3749 12.9199H19.3749V15.4199H11.8749V6.66992H14.3749V12.9199Z" fill="#67676D"/>
</svg>
